<svg width="198" height="41" fill="none" xmlns="http://www.w3.org/2000/svg"><path fill-rule="evenodd" clip-rule="evenodd" d="M0 13.438V.898c0-.613.261-.89.905-.89 2.976 0 5.47-.019 8.506 0 2.734.06 5.47.04 8.204.04 2.755 0 5.369.376 7.902 1.442 3.82 1.6 6.616 4.266 8.727 7.742 1.73 2.863 2.292 5.944 2.292 9.183 0 5.49-.02 11 .02 16.49 0 .909-.28 1.086-1.145 1.086-4.827-.04-9.652-.079-14.478 0-3.52.06-6.978-.158-10.255-1.58-3.58-1.876-6.234-4.74-7.622-6.438-.522-.651-.482-1.046.04-1.48l1.127-.89c.502-.375 1.086-.217 1.508.277.503.573 2.03 2.271 2.03 2.271 1.449 1.481 2.957 2.567 4.847 3.436 2.05.81 3.58 1.027 5.188 1.027.704 0 12.467.02 12.467.02L8.968 11.206C7.3 9.548 5.61 7.908 3.941 6.25c-.12-.118-.241-.237-.523-.039v9.677c0 .296.04.533.443.533h5.73c.483 0 .725.375.725.652v1.659c0 .75-.302.948-1.026.928l-8.385.02c-.623 0-.885-.257-.885-.948L0 13.438zm16.63.454L6.031 3.425h9.692c.503 0 .905-.02.905.692-.02 3.18 0 6.378 0 9.775zm11.682-6.596c-.08.296-.14.395-.14.474 0 5.688 0 11.375-.02 17.063 0 .376.12.711.402.968.884.85 1.689 1.777 2.634 2.548.623.513 1.025 1.283 1.93 1.619.02-3.851-.02-7.623.02-11.395.04-2.173-.382-4.246-1.186-6.24-.784-1.936-2.031-3.516-3.64-5.037zM24.753 22.05c.06-.316.12-.435.12-.553 0-5.333 0-10.645.02-15.977 0-.533-.24-.77-.683-.948-1.086-.435-2.212-.73-3.338-.988-.784-.177-.965 0-.965.77.04 3.516.12 7.031-.02 10.546-.06 1.719.362 3.002 1.73 4.108 1.085.909 2.01 1.955 3.136 3.042z" fill="#6CD3A2"/><path fill-rule="evenodd" clip-rule="evenodd" d="M134.886 6.99a2 2 0 11-4 0 2 2 0 014 0zM121 9a2 2 0 100-4 2 2 0 000 4zm-51.455 4.001V7.37H50.943v2.222l2.871.49v20.061l-2.871.49v2.204h12.842c2.73 0 4.861-.682 6.376-2.064 1.515-1.382 2.272-3.236 2.272-5.527s-.757-4.093-2.272-5.44c-1.497-1.346-3.629-2.011-6.377-2.011h-6.323V10.08h8.843l.264 2.92h2.977zM57.46 20.505h6.324c1.743 0 3.03.437 3.892 1.33.864.874 1.286 1.993 1.286 3.375 0 1.417-.422 2.606-1.286 3.533-.863.927-2.149 1.4-3.893 1.4h-6.323v-9.638zm34.74 1.19v2.186h-9.495c-1.392-.018-2.502-1.155-2.467-2.537l.018-.21 8.42.018v-.472c0-1.364-.37-2.536-1.11-3.428-.74-.927-1.85-1.4-3.294-1.4-1.18 0-2.202.49-3.03 1.487-.827.98-1.338 2.239-1.532 3.726l-.14 2.903c.052 1.837.528 3.358 1.444 4.565.88 1.19 2.166 1.784 3.804 1.784 1.18 0 2.237-.175 3.136-.507.07-.026.14-.057.211-.087.07-.031.141-.062.212-.088 1.198-.525 2.607-.052 3.294 1.05-.687.664-1.603 1.224-2.766 1.679-1.127.454-2.484.682-4.087.682-2.712 0-4.844-.892-6.447-2.676-1.585-1.767-2.378-4.093-2.378-6.927v-.787c0-2.746.81-5.02 2.466-6.839 1.639-1.801 3.559-2.728 5.813-2.728 2.607 0 4.563.787 5.919 2.361 1.339 1.557 2.008 3.638 2.008 6.244zm20.752 1.853c0-3.096-.669-5.58-2.008-7.468-1.321-1.872-3.171-2.816-5.549-2.816-1.215 0-2.272.227-3.206.7-.916.454-1.691 1.119-2.325 1.976-.194-1.33-1.339-2.309-2.713-2.309h-.599l-.035 2.746v20.989c.035 1.522 1.304 2.746 2.836 2.746h3.576a2.655 2.655 0 00-2.219-2.624l-.67-.122V18.598c.441-.77 1.004-1.381 1.727-1.819.704-.472 1.567-.682 2.554-.682 1.691 0 2.959.7 3.805 2.082.863 1.399 1.286 3.183 1.286 5.37v.367c0 1.924-.423 3.48-1.286 4.67-.846 1.207-2.114 1.819-3.77 1.819-1.022 0-1.902-.21-2.607-.648a4.867 4.867 0 01-1.286-1.189v.997c0 1.242.669 2.449 1.85 2.956h.017c.881.42 1.938.612 3.118.612 2.325 0 4.175-.857 5.496-2.554 1.321-1.679 2.008-3.917 2.008-6.663v-.368zm21.687-1.854v2.187h-9.495c-1.391-.018-2.501-1.155-2.466-2.537l.018-.21 8.42.018v-.472c0-1.364-.37-2.536-1.11-3.428-.74-.927-1.849-1.4-3.294-1.4-1.18 0-2.202.49-3.03 1.487-.828.98-1.339 2.239-1.532 3.726l-.141 2.903c.053 1.837.528 3.358 1.444 4.565.881 1.19 2.167 1.784 3.805 1.784 1.18 0 2.237-.175 3.136-.507.07-.026.141-.057.211-.087.07-.031.141-.062.211-.088 1.198-.525 2.607-.052 3.294 1.05-.687.664-1.603 1.224-2.765 1.679-1.128.454-2.484.682-4.087.682-2.713 0-4.844-.892-6.447-2.676-1.585-1.767-2.378-4.093-2.378-6.927v-.787c0-2.746.81-5.02 2.466-6.839 1.638-1.801 3.558-2.728 5.813-2.728 2.607 0 4.562.787 5.919 2.361 1.339 1.557 2.008 3.638 2.008 6.244zm11.505.088h-3.312v2.798h3.312c2.554 0 3.734.892 3.734 2.921 0 .857-.352 1.592-1.039 2.169-.687.577-1.673.857-2.924.857-1.215 0-2.22-.332-2.995-.98-.775-.647-1.162-1.416-1.162-2.308h-3.294l-.035.105c-.053 1.889.651 3.34 2.131 4.337 1.497.997 3.276 1.487 5.355 1.487 2.237 0 4.051-.507 5.408-1.504 1.374-.997 2.061-2.396 2.061-4.163 0-2.151-1.163-3.638-3.294-4.39 1.849-.822 2.942-2.326 2.942-4.023 0-3.516-2.66-5.492-7.117-5.492-2.061 0-3.805.507-5.197 1.54-1.391 1.014-2.06 2.326-1.99 3.952l.035.105h3.294c0-.822.37-1.504 1.11-2.081.74-.577 1.656-.857 2.748-.857 1.215 0 2.131.28 2.73.822.599.542.899 1.224.899 2.011 0 1.75-.952 2.694-3.4 2.694zm14.359-5.16l-2.872-.49v-2.221h9.213v2.221l-2.871.49v5.282h1.832l3.981-5.3c1.427-1.976 2.713-3.025 4.421-3.025.546 0 .987.07 1.339.21.352.122.758.332 1.198.612l-.493 2.343-.881-.14c-.071-.017-.229-.017-.458-.017-.863 0-1.744.735-2.378 1.592l-3.682 4.74 6.007 7.276 2.449.437v2.204h-4.633l-6.447-8.028h-2.255v5.334l2.871.49v2.204h-9.213v-2.204l2.872-.49v-13.52zm36.871 13.992l-.494-.087c-.546-.07-.933-.507-.968-1.067v-9.602c0-2.047-.67-3.62-2.008-4.723-1.339-1.102-3.083-1.644-5.267-1.644-1.427 0-2.766.21-4.017.612-.017 0-.035.035-.035.035-1.885.63-3.135 2.467-3.135 4.443v.875h1.18c.845 0 1.62-.56 1.761-1.347.071-.473.335-.892.74-1.12.3-.157.634-.315.987-.437.687-.245 1.444-.35 2.325-.35 1.25 0 2.237.332 2.942.98.704.647 1.056 1.521 1.056 2.64v2.205h-3.575c-2.555 0-4.58.49-6.025 1.469-1.48.98-2.202 2.361-2.202 4.163 0 1.749.511 3.113 1.533 4.075 1.039.962 2.554 1.452 4.544 1.452 1.145 0 2.22-.298 3.242-.857l.017-.018c1.092-.63 1.797-1.801 1.797-3.06v-.858a6.483 6.483 0 01-1.374 1.067c-.969.56-2.026.84-3.153.84-1.057 0-1.832-.245-2.36-.683-.511-.437-.776-1.066-.776-1.906 0-.927.423-1.714 1.234-2.361.845-.665 1.955-.98 3.399-.98h3.699v3.114l.036 2.71c.017.42.053.805.105 1.225v.018a1.624 1.624 0 001.603 1.364h.969c1.251 0 2.22-.98 2.22-2.187z" fill="#0B1739"/></svg>