<svg width="100" height="21" fill="none" xmlns="http://www.w3.org/2000/svg"><path fill-rule="evenodd" clip-rule="evenodd" d="M0 6.716V.449C0 .143.122.004.424.004c1.394 0 2.562-.01 3.984 0 1.28.03 2.562.02 3.843.02 1.29 0 2.514.188 3.701.72 1.79.8 3.099 2.132 4.088 3.87.81 1.43 1.074 2.97 1.074 4.589 0 2.744-.01 5.497.009 8.241 0 .454-.132.543-.537.543-2.26-.02-4.52-.04-6.781 0-1.649.03-3.269-.08-4.804-.79-1.676-.937-2.92-2.368-3.57-3.217-.244-.326-.226-.523.02-.74l.527-.445c.235-.187.508-.108.706.139.236.286.951 1.135.951 1.135a7.388 7.388 0 002.27 1.717c.961.405 1.677.513 2.43.513l5.84.01L4.201 5.6c-.782-.829-1.573-1.648-2.355-2.477-.057-.06-.113-.118-.245-.02V7.94c0 .148.019.266.207.266h2.684c.227 0 .34.188.34.326v.829c0 .375-.142.473-.48.464l-3.928.01c-.292 0-.415-.129-.415-.474L0 6.716zm7.79.227L2.824 1.712h4.54c.236 0 .424-.01.424.345-.01 1.59 0 3.188 0 4.886zm5.471-3.297c-.037.148-.066.198-.066.237 0 2.843 0 5.685-.009 8.528 0 .187.056.355.188.483.415.425.792.888 1.234 1.273.292.257.48.642.904.81.01-1.925-.009-3.81.01-5.695a8.337 8.337 0 00-.556-3.119c-.367-.967-.951-1.757-1.705-2.517zm-1.667 7.373c.029-.158.057-.217.057-.277 0-2.664 0-5.32.01-7.984 0-.266-.114-.385-.321-.474a9.93 9.93 0 00-1.564-.493c-.367-.089-.452 0-.452.385.02 1.756.057 3.513-.01 5.27-.027.859.17 1.5.81 2.053.51.454.943.977 1.47 1.52z" fill="#6CD3A2"/><path fill-rule="evenodd" clip-rule="evenodd" d="M56.634 4.253c.475 0 .86-.408.86-.911 0-.504-.385-.912-.86-.912s-.86.408-.86.912c0 .503.385.911.86.911zm-24.75-.503v2.866h-1.42L30.34 5.13H26.12v3.925h3.016c1.311 0 2.328.338 3.042 1.023.722.686 1.083 1.602 1.083 2.768 0 1.166-.36 2.11-1.083 2.813-.723.703-1.74 1.05-3.042 1.05h-6.124v-1.122l1.37-.249V5.13l-1.37-.25V3.75h8.872zm-2.747 6.684h-3.016v4.904h3.016c.832 0 1.445-.24 1.857-.712.412-.471.613-1.077.613-1.798 0-.703-.201-1.272-.613-1.717-.412-.454-1.025-.677-1.857-.677zm13.553.605v1.113h-4.528c-.664-.009-1.193-.587-1.177-1.29l.009-.107 4.016.008v-.24c0-.694-.177-1.29-.53-1.744-.352-.472-.882-.712-1.57-.712-.564 0-1.05.249-1.446.756-.395.499-.638 1.14-.73 1.896l-.068 1.477c.025.935.252 1.71.69 2.323.42.606 1.032.908 1.814.908.563 0 1.067-.089 1.495-.258.034-.013.067-.029.101-.044l.1-.045c.572-.267 1.244-.027 1.572.534-.328.338-.765.623-1.32.855-.537.231-1.184.347-1.948.347-1.294 0-2.31-.454-3.075-1.362-.756-.899-1.134-2.083-1.134-3.525v-.4c0-1.397.386-2.554 1.176-3.48.781-.917 1.697-1.389 2.772-1.389 1.244 0 2.176.4 2.823 1.202.639.792.958 1.851.958 3.177zm9.898.944c0-1.575-.32-2.84-.958-3.8-.63-.953-1.512-1.434-2.646-1.434-.58 0-1.084.116-1.53.356-.436.232-.806.57-1.108 1.006-.093-.676-.639-1.175-1.294-1.175h-.286l-.017 1.398v10.68c.017.774.622 1.397 1.353 1.397h1.706c0-.658-.446-1.228-1.059-1.335l-.32-.062v-9.55c.21-.392.48-.703.824-.926.336-.24.748-.347 1.218-.347.807 0 1.412.356 1.815 1.06.412.711.613 1.62.613 2.732v.187c0 .979-.201 1.77-.613 2.376-.403.614-1.008.926-1.798.926-.487 0-.907-.107-1.243-.33a2.382 2.382 0 01-.614-.605v.507c0 .632.32 1.247.883 1.505h.008c.42.213.924.311 1.487.311 1.109 0 1.991-.436 2.621-1.3.63-.854.958-1.993.958-3.39v-.187zm10.343-.944v1.113h-4.528c-.664-.009-1.193-.587-1.176-1.29l.008-.107 4.016.008v-.24c0-.694-.176-1.29-.53-1.744-.352-.472-.881-.712-1.57-.712-.563 0-1.05.249-1.446.756-.394.499-.638 1.14-.73 1.896l-.068 1.477c.026.935.253 1.71.69 2.323.42.606 1.033.908 1.814.908.563 0 1.067-.089 1.495-.258.034-.013.068-.029.101-.044l.101-.045c.571-.267 1.244-.027 1.571.534-.328.338-.764.623-1.319.855-.538.231-1.184.347-1.949.347-1.294 0-2.31-.454-3.075-1.362-.756-.899-1.134-2.083-1.134-3.525v-.4c0-1.397.386-2.554 1.176-3.48.782-.917 1.697-1.389 2.773-1.389 1.243 0 2.176.4 2.822 1.202.639.792.958 1.851.958 3.177zm5.487.045H66.84v1.424h1.58c1.218 0 1.78.454 1.78 1.486 0 .436-.167.81-.495 1.104-.328.294-.798.436-1.395.436-.58 0-1.058-.17-1.428-.498-.37-.33-.554-.721-.554-1.175h-1.572l-.016.053c-.026.961.31 1.7 1.016 2.208.714.507 1.563.756 2.554.756 1.067 0 1.933-.258 2.58-.765.655-.508.983-1.22.983-2.119 0-1.095-.555-1.851-1.572-2.234.883-.418 1.404-1.183 1.404-2.047 0-1.789-1.27-2.794-3.395-2.794-.983 0-1.814.258-2.478.783-.664.516-.983 1.184-.95 2.011l.017.054h1.571c0-.419.177-.766.53-1.06.353-.293.79-.436 1.31-.436.58 0 1.017.143 1.303.419.285.276.428.623.428 1.023 0 .89-.454 1.37-1.622 1.37zm6.849-2.626l-1.37-.249V7.08h4.394v1.13l-1.37.25v2.687h.875l1.898-2.697c.68-1.005 1.294-1.54 2.11-1.54.26 0 .47.036.638.107.168.063.36.17.57.312l-.234 1.193-.42-.072c-.034-.009-.11-.009-.219-.009-.411 0-.832.374-1.134.81l-1.756 2.412 2.865 3.703 1.168.222v1.122h-2.21l-3.075-4.085h-1.075v2.714l1.37.25v1.12h-4.395v-1.12l1.37-.25v-6.88zm17.585 7.12l-.235-.044c-.26-.036-.445-.258-.462-.543v-4.886c0-1.042-.32-1.843-.958-2.403-.639-.561-1.47-.837-2.512-.837-.68 0-1.319.107-1.916.312-.008 0-.016.017-.016.017-.9.32-1.496 1.255-1.496 2.261V9.9h.563c.403 0 .773-.285.84-.685a.78.78 0 01.353-.57c.143-.08.303-.16.47-.222.328-.125.69-.178 1.11-.178.596 0 1.066.169 1.403.498.336.33.504.774.504 1.344v1.122h-1.706c-1.218 0-2.184.249-2.873.747-.706.498-1.05 1.202-1.05 2.118 0 .89.243 1.585.73 2.074.496.49 1.219.739 2.168.739.546 0 1.059-.151 1.546-.436l.008-.01c.521-.32.857-.916.857-1.557v-.436a3.14 3.14 0 01-.655.543 2.82 2.82 0 01-1.504.427c-.504 0-.874-.124-1.126-.347-.243-.222-.37-.543-.37-.97 0-.472.203-.872.589-1.202.403-.338.932-.498 1.621-.498H90.5v1.584l.016 1.38c.009.213.026.41.05.623v.009c.06.4.387.694.765.694h.462c.597 0 1.06-.498 1.06-1.112zM63.037 3.342c0 .503-.386.911-.86.911-.476 0-.861-.408-.861-.911 0-.504.385-.912.86-.912s.86.408.86.912z" fill="#fff"/></svg>