<svg width="198" height="41" viewBox="0 0 198 41" fill="none" xmlns="http://www.w3.org/2000/svg">
    <path fill-rule="evenodd" clip-rule="evenodd" d="M2.67029e-05 13.4381V0.89748C2.67029e-05 0.285263 0.261433 0.00877762 0.904892 0.00877762C3.8809 0.00877762 6.37431 -0.0109711 9.41064 0.00877762C12.1453 0.0680237 14.8801 0.048275 17.6148 0.048275C20.3696 0.048275 22.9836 0.423504 25.5173 1.48995C29.3378 3.08961 32.1328 5.75573 34.2442 9.23154C35.9735 12.0951 36.5365 15.176 36.5365 18.4148C36.5365 23.905 36.5164 29.415 36.5566 34.9052C36.5566 35.8136 36.2751 35.9914 35.4105 35.9914C30.5845 35.9519 25.7586 35.9124 20.9326 35.9914C17.4137 36.0506 13.9551 35.8334 10.6775 34.4115C7.0982 32.5353 4.44393 29.6717 3.05647 27.9733C2.53365 27.3216 2.57387 26.9266 3.09668 26.4921L4.22274 25.6034C4.72544 25.2282 5.30858 25.3862 5.73085 25.8799C6.23355 26.4526 7.76177 28.1511 7.76177 28.1511C9.20956 29.6322 10.7177 30.7184 12.6078 31.5874C14.6589 32.3971 16.1871 32.6143 17.7957 32.6143C18.4995 32.6143 30.2628 32.6341 30.2628 32.6341L8.96826 11.2064C7.29928 9.54753 5.6102 7.90836 3.94122 6.24945C3.82058 6.13096 3.69992 6.01246 3.41841 6.20995C3.41841 9.38953 3.41841 12.6481 3.41841 15.8869C3.41841 16.1832 3.45863 16.4202 3.86079 16.4202H9.59161C10.0742 16.4202 10.3155 16.7954 10.3155 17.0719C10.3155 17.7631 10.3155 17.9211 10.3155 18.7308C10.3155 19.4813 10.0139 19.6787 9.28999 19.659L0.904892 19.6787C0.28154 19.6787 0.020134 19.422 0.020134 18.7308L2.67029e-05 13.4381ZM16.6295 13.8923C13.0502 10.3572 9.61172 6.96041 6.03247 3.42535C6.8368 3.42535 7.50037 3.42535 8.18404 3.42535C10.6976 3.42535 13.2111 3.42535 15.7246 3.42535C16.2273 3.42535 16.6295 3.4056 16.6295 4.11656C16.6094 7.29615 16.6295 10.4955 16.6295 13.8923ZM28.3123 7.29614C28.2319 7.59238 28.1715 7.69112 28.1715 7.77012C28.1715 13.4578 28.1715 19.1455 28.1514 24.8332C28.1514 25.2085 28.2721 25.5442 28.5536 25.8009C29.4384 26.6501 30.2427 27.5783 31.1878 28.3485C31.8111 28.862 32.2133 29.6322 33.1181 29.968C33.1383 26.1169 33.098 22.3449 33.1383 18.5728C33.1785 16.4004 32.7562 14.3268 31.9519 12.3321C31.1677 10.3967 29.921 8.81681 28.3123 7.29614ZM24.7532 22.0486C24.8135 21.7326 24.8738 21.6141 24.8738 21.4957C24.8738 16.1634 24.8738 10.851 24.8939 5.51874C24.8939 4.98552 24.6526 4.74853 24.2102 4.57079C23.1244 4.13631 21.9983 3.84008 20.8723 3.58334C20.0881 3.4056 19.9071 3.58334 19.9071 4.35355C19.9473 7.86887 20.0277 11.3842 19.887 14.8995C19.8267 16.6177 20.2489 17.9013 21.6163 19.0073C22.7021 19.9157 23.6271 20.9624 24.7532 22.0486Z" fill="#6CD3A2"/>
    <path fill-rule="evenodd" clip-rule="evenodd" d="M134.886 6.99023C134.886 8.0948 133.991 8.99023 132.886 8.99023C131.782 8.99023 130.886 8.0948 130.886 6.99023C130.886 5.88566 131.782 4.99023 132.886 4.99023C133.991 4.99023 134.886 5.88566 134.886 6.99023ZM121 9C122.105 9 123 8.10457 123 7C123 5.89543 122.105 5 121 5C119.895 5 119 5.89543 119 7C119 8.10457 119.895 9 121 9ZM69.5447 13.0014V7.36942H50.943V9.59073L53.8143 10.0805V30.1423L50.943 30.632V32.8358H63.7845C66.5148 32.8358 68.6463 32.1537 70.1612 30.7719C71.6761 29.3902 72.4335 27.5362 72.4335 25.2449C72.4335 22.9536 71.6761 21.1521 70.1612 19.8053C68.6639 18.4585 66.5325 17.7939 63.7845 17.7939H57.4606V10.0805H66.3035L66.5677 13.0014H69.5447ZM57.4606 20.5049H63.7845C65.5284 20.5049 66.8143 20.9422 67.6774 21.8342C68.5406 22.7087 68.9634 23.8281 68.9634 25.2099C68.9634 26.6266 68.5406 27.816 67.6774 28.743C66.8143 29.67 65.5284 30.1423 63.7845 30.1423H57.4606V20.5049ZM92.2002 21.6943V23.8806H82.7056C81.314 23.8631 80.2042 22.7262 80.2394 21.3445L80.257 21.1346L88.6771 21.1521V20.6798C88.6771 19.3155 88.3072 18.1437 87.5674 17.2516C86.8275 16.3246 85.7178 15.8524 84.2733 15.8524C83.0931 15.8524 82.0714 16.3421 81.2435 17.3391C80.4156 18.3186 79.9047 19.5779 79.711 21.0646L79.5701 23.9681C79.6229 25.8046 80.0985 27.3263 81.0145 28.5331C81.8953 29.7225 83.1812 30.3172 84.8194 30.3172C85.9996 30.3172 87.0565 30.1423 87.9549 29.8099C88.0254 29.7837 88.0958 29.7531 88.1663 29.7225C88.2367 29.6919 88.3072 29.6613 88.3777 29.635C89.5755 29.1103 90.9847 29.5826 91.6717 30.6845C90.9847 31.3491 90.0687 31.9088 88.9061 32.3636C87.7787 32.8183 86.4224 33.0457 84.8194 33.0457C82.1066 33.0457 79.9752 32.1537 78.3722 30.3696C76.7869 28.6031 75.9942 26.2768 75.9942 23.4433V22.6563C75.9942 19.9102 76.8045 17.6364 78.4603 15.8174C80.0985 14.0159 82.0186 13.0889 84.2733 13.0889C86.8804 13.0889 88.8357 13.8759 90.192 15.4501C91.5308 17.0068 92.2002 19.0882 92.2002 21.6943ZM112.953 23.5483C112.953 20.4524 112.284 17.9688 110.945 16.0798C109.624 14.2083 107.774 13.2638 105.396 13.2638C104.181 13.2638 103.124 13.4911 102.19 13.9634C101.274 14.4182 100.499 15.0828 99.8651 15.9398C99.6714 14.6106 98.5264 13.6311 97.1524 13.6311H96.5535L96.5182 16.3771V37.3659C96.5535 38.8876 97.8218 40.112 99.3543 40.112H102.93C102.93 38.8176 101.997 37.6982 100.711 37.4883L100.041 37.3659V18.5984C100.482 17.8288 101.045 17.2167 101.768 16.7794C102.472 16.3071 103.335 16.0973 104.322 16.0973C106.013 16.0973 107.281 16.7969 108.127 18.1786C108.99 19.5779 109.413 21.362 109.413 23.5483V23.9156C109.413 25.8396 108.99 27.3962 108.127 28.5856C107.281 29.7925 106.013 30.4046 104.357 30.4046C103.335 30.4046 102.455 30.1947 101.75 29.7575C101.257 29.4426 100.834 29.0578 100.464 28.5681V29.5651C100.464 30.8069 101.133 32.0138 102.314 32.521H102.331C103.212 32.9408 104.269 33.1332 105.449 33.1332C107.774 33.1332 109.624 32.2761 110.945 30.5795C112.266 28.9004 112.953 26.6616 112.953 23.9156V23.5483ZM134.64 21.6943V23.8806H125.145C123.754 23.8631 122.644 22.7262 122.679 21.3445L122.697 21.1346L131.117 21.1521V20.6798C131.117 19.3155 130.747 18.1437 130.007 17.2516C129.267 16.3246 128.158 15.8524 126.713 15.8524C125.533 15.8524 124.511 16.3421 123.683 17.3391C122.855 18.3186 122.344 19.5779 122.151 21.0646L122.01 23.9681C122.063 25.8046 122.538 27.3263 123.454 28.5331C124.335 29.7225 125.621 30.3172 127.259 30.3172C128.439 30.3172 129.496 30.1423 130.395 29.8099C130.465 29.7837 130.536 29.7531 130.606 29.7225C130.676 29.6919 130.747 29.6613 130.817 29.635C132.015 29.1103 133.424 29.5826 134.111 30.6845C133.424 31.3491 132.508 31.9088 131.346 32.3636C130.218 32.8183 128.862 33.0457 127.259 33.0457C124.546 33.0457 122.415 32.1537 120.812 30.3696C119.227 28.6031 118.434 26.2768 118.434 23.4433V22.6563C118.434 19.9102 119.244 17.6364 120.9 15.8174C122.538 14.0159 124.458 13.0889 126.713 13.0889C129.32 13.0889 131.275 13.8759 132.632 15.4501C133.971 17.0068 134.64 19.0882 134.64 21.6943ZM146.145 21.7817H142.833V24.5802H146.145C148.699 24.5802 149.879 25.4723 149.879 27.5012C149.879 28.3582 149.527 29.0928 148.84 29.67C148.153 30.2472 147.167 30.5271 145.916 30.5271C144.701 30.5271 143.696 30.1947 142.921 29.5476C142.146 28.9004 141.759 28.1308 141.759 27.2388H138.465L138.43 27.3438C138.377 29.2328 139.081 30.6845 140.561 31.6814C142.058 32.6784 143.837 33.1682 145.916 33.1682C148.153 33.1682 149.967 32.6609 151.324 31.664C152.698 30.667 153.385 29.2677 153.385 27.5012C153.385 25.3498 152.222 23.8631 150.091 23.111C151.94 22.289 153.033 20.7848 153.033 19.0882C153.033 15.5725 150.373 13.5961 145.916 13.5961C143.855 13.5961 142.111 14.1033 140.719 15.1353C139.328 16.1497 138.659 17.4615 138.729 19.0882L138.764 19.1931H142.058C142.058 18.371 142.428 17.6889 143.168 17.1117C143.908 16.5345 144.824 16.2547 145.916 16.2547C147.131 16.2547 148.047 16.5345 148.646 17.0767C149.245 17.6189 149.545 18.3011 149.545 19.0882C149.545 20.8372 148.593 21.7817 146.145 21.7817ZM160.504 16.622L157.632 16.1322V13.9109H166.845V16.1322L163.974 16.622V21.9042H165.806L169.787 16.6045C171.214 14.628 172.5 13.5786 174.208 13.5786C174.754 13.5786 175.195 13.6486 175.547 13.7885C175.899 13.9109 176.305 14.1208 176.745 14.4007L176.252 16.7444L175.371 16.6045C175.3 16.587 175.142 16.587 174.913 16.587C174.05 16.587 173.169 17.3216 172.535 18.1786L168.853 22.9186L174.86 30.1947L177.309 30.632V32.8358H172.676L166.229 24.8076H163.974V30.1423L166.845 30.632V32.8358H157.632V30.632L160.504 30.1423V16.622ZM197.375 30.6145L196.881 30.5271C196.335 30.4571 195.948 30.0198 195.913 29.4601V28.9879V19.8578C195.913 17.8113 195.243 16.2372 193.905 15.1353C192.566 14.0334 190.822 13.4911 188.638 13.4911C187.211 13.4911 185.872 13.701 184.621 14.1033C184.604 14.1033 184.586 14.1383 184.586 14.1383C182.701 14.768 181.451 16.6045 181.451 18.5809V19.4555H182.631C183.476 19.4555 184.251 18.8958 184.392 18.1087C184.463 17.6364 184.727 17.2167 185.132 16.9893C185.432 16.8319 185.766 16.6745 186.119 16.552C186.806 16.3071 187.563 16.2022 188.444 16.2022C189.694 16.2022 190.681 16.5345 191.386 17.1817C192.09 17.8288 192.442 18.7034 192.442 19.8228V22.0266H188.867C186.312 22.0266 184.287 22.5163 182.842 23.4958C181.362 24.4753 180.64 25.8571 180.64 27.6586C180.64 29.4077 181.151 30.7719 182.173 31.7339C183.212 32.6959 184.727 33.1856 186.717 33.1856C187.862 33.1856 188.937 32.8883 189.959 32.3286L189.976 32.3111C191.068 31.6814 191.773 30.5096 191.773 29.2502V28.3932C191.386 28.7955 190.928 29.1453 190.399 29.4601C189.43 30.0198 188.373 30.2997 187.246 30.2997C186.189 30.2997 185.414 30.0548 184.886 29.6175C184.375 29.1803 184.11 28.5506 184.11 27.7111C184.11 26.7841 184.533 25.997 185.344 25.3498C186.189 24.6852 187.299 24.3703 188.743 24.3703H192.442V27.4837L192.478 30.1947C192.495 30.6145 192.531 30.9993 192.583 31.4191V31.4366C192.707 32.2237 193.394 32.8009 194.186 32.8009H195.155C196.406 32.8009 197.375 31.8214 197.375 30.6145Z" fill="#0B1739"/>
</svg>
