<svg width="100" height="21" viewBox="0 0 100 21" fill="none" xmlns="http://www.w3.org/2000/svg">
<path fill-rule="evenodd" clip-rule="evenodd" d="M-0.000240326 6.71571V0.448511C-0.000240326 0.142553 0.122204 0.00437737 0.423603 0.00437737C1.81758 0.00437737 2.9855 -0.00549126 4.40773 0.00437737C5.68868 0.033987 6.96963 0.0241165 8.25058 0.0241165C9.54095 0.0241165 10.7654 0.211639 11.9522 0.744598C13.7417 1.54403 15.0509 2.87643 16.0399 4.61348C16.8499 6.04457 17.1136 7.58423 17.1136 9.20284C17.1136 11.9466 17.1042 14.7002 17.123 17.444C17.123 17.898 16.9912 17.9868 16.5862 17.9868C14.3257 17.967 12.0652 17.9473 9.80468 17.9868C8.1564 18.0164 6.53637 17.9078 5.00112 17.1972C3.32458 16.2596 2.0813 14.8285 1.43141 13.9797C1.18652 13.654 1.20536 13.4566 1.45025 13.2395L1.9777 12.7954C2.21317 12.6079 2.48631 12.6868 2.6841 12.9336C2.91957 13.2198 3.6354 14.0686 3.6354 14.0686C4.31355 14.8088 5.01995 15.3516 5.90532 15.7859C6.86603 16.1905 7.58185 16.2991 8.33535 16.2991C8.66501 16.2991 14.175 16.309 14.175 16.309L4.20052 5.60044C3.41877 4.77139 2.62759 3.95222 1.84583 3.12317C1.78932 3.06395 1.73281 3.00474 1.60095 3.10343C1.60095 4.69244 1.60095 6.32092 1.60095 7.93954C1.60095 8.08758 1.61978 8.20601 1.80816 8.20601H4.4925C4.71855 8.20601 4.83158 8.39354 4.83158 8.53171C4.83158 8.87715 4.83158 8.9561 4.83158 9.36076C4.83158 9.7358 4.6903 9.8345 4.35122 9.82463L0.423603 9.8345C0.131622 9.8345 0.00917816 9.70619 0.00917816 9.36076L-0.000240326 6.71571ZM7.78908 6.9427C6.11254 5.17604 4.50194 3.47847 2.8254 1.71181C3.20215 1.71181 3.51297 1.71181 3.83321 1.71181C5.01055 1.71181 6.18789 1.71181 7.36524 1.71181C7.60071 1.71181 7.78908 1.70195 7.78908 2.05725C7.77966 3.64626 7.78908 5.24513 7.78908 6.9427ZM13.2614 3.64626C13.2237 3.7943 13.1954 3.84365 13.1954 3.88313C13.1954 6.72557 13.1954 9.56802 13.186 12.4105C13.186 12.598 13.2425 12.7658 13.3744 12.8941C13.7888 13.3185 14.1656 13.7823 14.6082 14.1672C14.9002 14.4239 15.0886 14.8088 15.5124 14.9766C15.5219 13.052 15.503 11.1669 15.5219 9.2818C15.5407 8.19614 15.3429 7.15984 14.9662 6.16301C14.5988 5.19579 14.0149 4.40622 13.2614 3.64626ZM11.5942 11.0188C11.6225 10.8609 11.6508 10.8017 11.6508 10.7425C11.6508 8.07771 11.6508 5.42278 11.6602 2.75799C11.6602 2.49151 11.5472 2.37308 11.3399 2.28425C10.8313 2.06712 10.3039 1.91908 9.77643 1.79077C9.40909 1.70195 9.32433 1.79077 9.32433 2.17569C9.34316 3.93248 9.38084 5.68926 9.31491 7.44605C9.28665 8.30471 9.48444 8.94623 10.1249 9.49893C10.6335 9.95293 11.0668 10.476 11.5942 11.0188Z" fill="#6CD3A2"/>
<path fill-rule="evenodd" clip-rule="evenodd" d="M56.6341 4.25318C57.1092 4.25318 57.4944 3.84513 57.4944 3.34178C57.4944 2.83843 57.1092 2.43039 56.6341 2.43039C56.1589 2.43039 55.7738 2.83843 55.7738 3.34178C55.7738 3.84513 56.1589 4.25318 56.6341 4.25318ZM31.8846 3.75001V6.61592H30.4648L30.3387 5.12956H26.1212V9.05461H29.1373C30.448 9.05461 31.4645 9.39282 32.1787 10.0781C32.9012 10.7635 33.2624 11.6802 33.2624 12.8461C33.2624 14.0121 32.9012 14.9555 32.1787 15.6586C31.4561 16.3618 30.4396 16.7089 29.1373 16.7089H23.0127V15.5874L24.3821 15.3382V5.12956L23.0127 4.88035V3.75001H31.8846ZM29.1373 10.4342H26.1212V15.3382H29.1373C29.9691 15.3382 30.5824 15.0979 30.9941 14.6262C31.4057 14.1545 31.6074 13.5493 31.6074 12.8283C31.6074 12.1252 31.4057 11.5556 30.9941 11.1106C30.5824 10.6567 29.9691 10.4342 29.1373 10.4342ZM42.69 11.0394V12.1519H38.1616C37.4979 12.143 36.9686 11.5645 36.9854 10.8614L36.9938 10.7546L41.0097 10.7635V10.5232C41.0097 9.82893 40.8333 9.23261 40.4804 8.77869C40.1275 8.30698 39.5982 8.06667 38.9093 8.06667C38.3464 8.06667 37.8592 8.31588 37.4643 8.8232C37.0694 9.32161 36.8258 9.96244 36.7334 10.719L36.6661 12.1964C36.6914 13.131 36.9182 13.9053 37.3551 14.5194C37.7751 15.1246 38.3884 15.4272 39.1698 15.4272C39.7327 15.4272 40.2368 15.3382 40.6652 15.1691C40.6988 15.1558 40.7324 15.1402 40.766 15.1246C40.7997 15.1091 40.8333 15.0935 40.8669 15.0801C41.4382 14.8131 42.1103 15.0534 42.4379 15.6141C42.1103 15.9524 41.6734 16.2372 41.1189 16.4686C40.5812 16.7 39.9343 16.8157 39.1698 16.8157C37.876 16.8157 36.8594 16.3618 36.0949 15.4539C35.3387 14.555 34.9607 13.3713 34.9607 11.9294V11.5289C34.9607 10.1315 35.3471 8.9745 36.1369 8.04887C36.9182 7.13213 37.8339 6.66042 38.9093 6.66042C40.1527 6.66042 41.0853 7.06093 41.7322 7.86196C42.3707 8.65409 42.69 9.71323 42.69 11.0394ZM52.588 11.9828C52.588 10.4075 52.2687 9.14361 51.6302 8.18237C51.0001 7.23004 50.118 6.74942 48.9838 6.74942C48.4041 6.74942 47.9 6.86512 47.4547 7.10543C47.0178 7.33684 46.6482 7.67505 46.3457 8.11117C46.2533 7.43475 45.7072 6.93633 45.0519 6.93633H44.7662L44.7494 8.33368V19.0141C44.7662 19.7884 45.3711 20.4114 46.1021 20.4114H47.8076C47.8076 19.7528 47.3623 19.1832 46.749 19.0764L46.4297 19.0141V9.46402C46.6398 9.07241 46.9086 8.76089 47.2531 8.53839C47.5891 8.29808 48.0008 8.19127 48.4713 8.19127C49.2778 8.19127 49.8827 8.54729 50.286 9.25041C50.6977 9.96244 50.8993 10.8703 50.8993 11.9828V12.1697C50.8993 13.1488 50.6977 13.9409 50.286 14.5461C49.8827 15.1602 49.2778 15.4717 48.4881 15.4717C48.0008 15.4717 47.5807 15.3649 47.2447 15.1424C47.0094 14.9822 46.8078 14.7864 46.6314 14.5372V15.0445C46.6314 15.6764 46.9506 16.2906 47.5135 16.5487H47.5219C47.942 16.7623 48.4461 16.8602 49.009 16.8602C50.118 16.8602 51.0001 16.4241 51.6302 15.5607C52.2603 14.7063 52.588 13.5671 52.588 12.1697V11.9828ZM62.9312 11.0394V12.1519H58.4029C57.7392 12.143 57.2099 11.5645 57.2267 10.8614L57.2351 10.7546L61.2509 10.7635V10.5232C61.2509 9.82893 61.0745 9.23261 60.7217 8.77869C60.3688 8.30698 59.8395 8.06667 59.1506 8.06667C58.5877 8.06667 58.1004 8.31588 57.7055 8.8232C57.3107 9.32161 57.067 9.96244 56.9746 10.719L56.9074 12.1964C56.9326 13.131 57.1595 13.9053 57.5963 14.5194C58.0164 15.1246 58.6297 15.4272 59.411 15.4272C59.9739 15.4272 60.478 15.3382 60.9065 15.1691C60.9401 15.1558 60.9737 15.1402 61.0073 15.1246L61.0073 15.1246C61.0409 15.109 61.0745 15.0935 61.1081 15.0801C61.6794 14.8131 62.3515 15.0534 62.6792 15.6141C62.3515 15.9524 61.9147 16.2372 61.3602 16.4686C60.8225 16.7 60.1756 16.8157 59.411 16.8157C58.1172 16.8157 57.1006 16.3618 56.3361 15.4539C55.58 14.555 55.2019 13.3713 55.2019 11.9294V11.5289C55.2019 10.1315 55.5884 8.9745 56.3781 8.04887C57.1595 7.13213 58.0752 6.66042 59.1506 6.66042C60.394 6.66042 61.3266 7.06093 61.9735 7.86196C62.612 8.65409 62.9312 9.71323 62.9312 11.0394ZM68.4185 11.0839H66.839V12.5079H68.4185C69.6367 12.5079 70.1996 12.9618 70.1996 13.9943C70.1996 14.4304 70.0316 14.8042 69.7039 15.0979C69.3763 15.3916 68.9058 15.534 68.3093 15.534C67.7296 15.534 67.2507 15.3649 66.8811 15.0356C66.5114 14.7063 66.3266 14.3147 66.3266 13.8608H64.7555L64.7387 13.9142C64.7135 14.8754 65.0495 15.6141 65.7553 16.1215C66.4694 16.6288 67.3179 16.878 68.3093 16.878C69.3763 16.878 70.2416 16.6199 70.8885 16.1126C71.5439 15.6052 71.8715 14.8932 71.8715 13.9943C71.8715 12.8995 71.317 12.143 70.3004 11.7603C71.1826 11.342 71.7035 10.5766 71.7035 9.71323C71.7035 7.92427 70.4349 6.91853 68.3093 6.91853C67.3263 6.91853 66.4946 7.17664 65.8309 7.70176C65.1672 8.21798 64.8479 8.8855 64.8815 9.71323L64.8983 9.76663H66.4694C66.4694 9.34832 66.6458 9.0012 66.9987 8.70749C67.3515 8.41378 67.7884 8.27138 68.3093 8.27138C68.889 8.27138 69.3259 8.41378 69.6115 8.68969C69.8972 8.9656 70.04 9.31272 70.04 9.71323C70.04 10.6033 69.5863 11.0839 68.4185 11.0839ZM75.2668 8.45828L73.8974 8.20907V7.07873H78.2913V8.20907L76.9219 8.45828V11.1462H77.7956L79.6944 8.44938C80.3749 7.44364 80.9882 6.90962 81.8031 6.90962C82.0636 6.90962 82.2736 6.94522 82.4416 7.01643C82.6097 7.07873 82.8029 7.18553 83.0129 7.32794L82.7777 8.52058L82.3576 8.44938C82.324 8.44048 82.2484 8.44048 82.1392 8.44048C81.7275 8.44048 81.3074 8.81429 81.005 9.25041L79.2491 11.6624L82.114 15.3649L83.2818 15.5874V16.7089H81.0722L77.9973 12.6236H76.9219V15.3382L78.2913 15.5874V16.7089H73.8974V15.5874L75.2668 15.3382V8.45828ZM92.8521 15.5785L92.6168 15.534C92.3564 15.4984 92.1716 15.2759 92.1548 14.9911V14.7508V10.1048C92.1548 9.0635 91.8355 8.26247 91.197 7.70175C90.5585 7.14103 89.7268 6.86512 88.685 6.86512C88.0045 6.86512 87.366 6.97193 86.7695 7.17663C86.7611 7.17663 86.7527 7.19443 86.7527 7.19443C85.8537 7.51485 85.2572 8.44938 85.2572 9.45512V9.90013H85.8201C86.2234 9.90013 86.593 9.61532 86.6602 9.21481C86.6938 8.9745 86.8199 8.76089 87.0131 8.64519C87.1559 8.56508 87.3156 8.48498 87.4836 8.42268C87.8112 8.29807 88.1725 8.24467 88.5926 8.24467C89.1891 8.24467 89.6595 8.41378 89.9956 8.74309C90.3317 9.0724 90.4997 9.51742 90.4997 10.087V11.2085H88.7942C87.576 11.2085 86.6098 11.4577 85.9209 11.9561C85.2152 12.4545 84.8707 13.1577 84.8707 14.0744C84.8707 14.9644 85.1144 15.6586 85.6017 16.1482C86.0973 16.6377 86.8199 16.8869 87.7692 16.8869C88.3153 16.8869 88.8278 16.7356 89.3151 16.4508L89.3235 16.4419C89.8444 16.1215 90.1804 15.5251 90.1804 14.8843V14.4482C89.9956 14.6529 89.7772 14.8309 89.5251 14.9911C89.063 15.2759 88.559 15.4183 88.0213 15.4183C87.5172 15.4183 87.1475 15.2937 86.8955 15.0712C86.6518 14.8487 86.5258 14.5283 86.5258 14.1011C86.5258 13.6294 86.7275 13.2289 87.1139 12.8995C87.5172 12.5613 88.0465 12.4011 88.7354 12.4011H90.4997V13.9854L90.5165 15.3649C90.5249 15.5785 90.5417 15.7743 90.5669 15.988V15.9969C90.6257 16.3974 90.9534 16.6911 91.3314 16.6911H91.7935C92.39 16.6911 92.8521 16.1927 92.8521 15.5785ZM63.0366 3.34178C63.0366 3.84513 62.6514 4.25318 62.1763 4.25318C61.7011 4.25318 61.316 3.84513 61.316 3.34178C61.316 2.83843 61.7011 2.43039 62.1763 2.43039C62.6514 2.43039 63.0366 2.83843 63.0366 3.34178Z" fill="white"/>
</svg>
