<svg width="24" height="25" viewBox="0 0 24 25" fill="none" xmlns="http://www.w3.org/2000/svg">
    <path fill-rule="evenodd" clip-rule="evenodd" d="M4 7.19165C3.86193 7.19165 3.75 7.30358 3.75 7.44165V15.4417C3.75 15.5797 3.86197 15.6917 4 15.6917H6.5V17.1917H4C3.03347 17.1917 2.25 16.4081 2.25 15.4417V7.44165C2.25 6.47516 3.03351 5.69165 4 5.69165H20C20.9665 5.69165 21.75 6.47517 21.75 7.44165V15.4417C21.75 16.4081 20.9666 17.1917 20 17.1917H17.5V15.6917H20C20.138 15.6917 20.25 15.5797 20.25 15.4417V7.44165C20.25 7.30357 20.1381 7.19165 20 7.19165H4Z" />
    <path fill-rule="evenodd" clip-rule="evenodd" d="M9 3.19165C8.30964 3.19165 7.75 3.75129 7.75 4.44165V5.69165H16.25V4.44165C16.25 3.75129 15.6904 3.19165 15 3.19165H9ZM6.25 4.44165C6.25 2.92287 7.48122 1.69165 9 1.69165H15C16.5188 1.69165 17.75 2.92287 17.75 4.44165V7.19165H6.25V4.44165Z" />
    <path fill-rule="evenodd" clip-rule="evenodd" d="M7.75 13.1917V21.6916L16.25 21.6917V13.1917H7.75ZM6.25 12.9417C6.25 12.2512 6.80971 11.6917 7.5 11.6917H16.5C17.1902 11.6917 17.75 12.2512 17.75 12.9417V21.9417C17.75 22.632 17.1903 23.1917 16.5 23.1917L7.5 23.1916C6.80971 23.1916 6.25 22.6321 6.25 21.9416V12.9417Z" />
    <path d="M16 10.4417C15.4477 10.4417 15 9.99394 15 9.44165C15 8.88937 15.4477 8.44165 16 8.44165C16.5523 8.44165 17 8.88937 17 9.44165C17 9.99394 16.5523 10.4417 16 10.4417Z" />
</svg>
