<svg width="40" height="40" viewBox="0 0 40 40" fill="none" xmlns="http://www.w3.org/2000/svg" class="popup__close-icon">
    <path fill-rule="evenodd" clip-rule="evenodd" d="M15.0502 15.0507C15.4407 14.6602 16.0739 14.6602 16.4644 15.0507L24.9497 23.5359C25.3403 23.9264 25.3403 24.5596 24.9497 24.9501C24.5592 25.3406 23.926 25.3406 23.5355 24.9501L15.0502 16.4649C14.6597 16.0744 14.6597 15.4412 15.0502 15.0507Z" fill="white"/>
    <path fill-rule="evenodd" clip-rule="evenodd" d="M24.9497 15.0507C25.3403 15.4412 25.3403 16.0744 24.9497 16.4649L16.4644 24.9501C16.0739 25.3406 15.4407 25.3406 15.0502 24.9501C14.6597 24.5596 14.6597 23.9264 15.0502 23.5359L23.5355 15.0507C23.926 14.6602 24.5592 14.6602 24.9497 15.0507Z" fill="white"/>
</svg>
