<svg width="40" height="40" viewBox="0 0 40 40" fill="none" xmlns="http://www.w3.org/2000/svg">
<rect width="40" height="40" rx="20" fill="white"/>
<path d="M26.9994 15.9554C26.9355 15.1904 26.6047 14.4695 26.0619 13.9125C25.4895 13.3787 24.7435 13.0561 23.9526 13.0005C23.1464 12.9874 22.3596 13.2415 21.7215 13.721C21.105 14.214 20.7004 14.9134 20.5871 15.6818C20.3721 16.7037 20.0058 17.6899 19.4997 18.6094L16.856 16.0284C16.7833 15.9115 16.6845 15.812 16.567 15.7373C16.4494 15.6625 16.3161 15.6144 16.1769 15.5965C16.0377 15.5786 15.8961 15.5914 15.7626 15.6338C15.6291 15.6763 15.5072 15.7474 15.4057 15.8419C15.3043 15.9364 15.226 16.0518 15.1766 16.1797C15.1271 16.3076 15.1079 16.4447 15.1202 16.5808C15.1326 16.7169 15.1762 16.8485 15.2478 16.966C15.3195 17.0835 15.4174 17.1839 15.5342 17.2596L17.081 18.7645C16.816 18.7097 16.5458 18.6821 16.2748 18.6824C15.4293 18.6824 14.6028 18.9263 13.8999 19.3833C13.1969 19.8402 12.649 20.4898 12.3254 21.2497C12.0019 22.0096 11.9172 22.8458 12.0821 23.6525C12.2471 24.4593 12.6542 25.2003 13.2521 25.7819C13.8499 26.3635 14.6116 26.7596 15.4408 26.9201C16.2701 27.0806 17.1296 26.9982 17.9107 26.6834C18.6918 26.3687 19.3595 25.8356 19.8292 25.1517C20.2989 24.4678 20.5496 23.6637 20.5496 22.8412C20.5457 22.5748 20.5175 22.3093 20.4653 22.0477L21.9089 23.4522C22.0789 23.6164 22.307 23.711 22.5464 23.7167C22.7167 23.701 22.8794 23.6402 23.0167 23.5409C23.154 23.4417 23.2609 23.3078 23.3256 23.1537C23.3903 22.9996 23.4104 22.8313 23.3838 22.6669C23.3571 22.5025 23.2848 22.3483 23.1745 22.221L21.3746 20.4791C22.2173 19.8868 23.1737 19.465 24.187 19.2387C24.9865 19.1437 25.7214 18.7635 26.2494 18.1716C26.7504 17.537 27.0148 16.7555 26.9994 15.9554ZM16.2748 25.258C15.7827 25.2598 15.3011 25.1194 14.8911 24.8545C14.4811 24.5897 14.1613 24.2123 13.9721 23.7703C13.7829 23.3283 13.7329 22.8416 13.8285 22.3719C13.924 21.9023 14.1608 21.4708 14.5088 21.1322C14.8568 20.7937 15.3003 20.5633 15.7831 20.4703C16.2659 20.3774 16.7661 20.426 17.2205 20.6101C17.6748 20.7941 18.0627 21.1053 18.3349 21.5042C18.6072 21.903 18.7516 22.3715 18.7497 22.8503C18.7472 23.4881 18.4857 24.0992 18.0221 24.5502C17.5585 25.0012 16.9304 25.2556 16.2748 25.258Z" fill="#3EB57C"/>
</svg>
