<svg width="40" height="40" viewBox="0 0 40 40" fill="none" xmlns="http://www.w3.org/2000/svg">
<rect width="40" height="40" rx="20" fill="white"/>
<path d="M16.3635 13.4H20.6835C22.3755 13.4 23.6055 13.76 24.3735 14.48C25.1535 15.188 25.5435 16.214 25.5435 17.558C25.5435 18.818 25.1355 19.826 24.3195 20.582C23.5035 21.338 22.2915 21.716 20.6835 21.716H18.5235V26H16.3635V13.4ZM18.5235 15.308V19.808H20.6835C21.5475 19.808 22.1955 19.604 22.6275 19.196C23.0595 18.788 23.2755 18.242 23.2755 17.558C23.2755 16.838 23.0655 16.286 22.6455 15.902C22.2375 15.506 21.5835 15.308 20.6835 15.308H18.5235Z" fill="#3EB57C"/>
</svg>
