<svg width="168" height="24" viewBox="0 0 168 24" fill="none" xmlns="http://www.w3.org/2000/svg">
    <rect width="24" height="24" rx="12" fill="#FF8A00"/>
    <path d="M9 15L15 9M15 9L11.1818 9M15 9L15 13.0909" stroke="white" stroke-width="1.5" stroke-linecap="round"/>
    <rect x="32" y="2" width="136" height="20" rx="4" fill="white"/>
    <path d="M42.64 12.88L42.172 11.728V16H40.78V10H42.772L44.104 13.132L45.46 10H47.38V16H45.988V11.728L45.52 12.88L44.776 14.62H43.384L42.64 12.88ZM49.6562 16.108C49.3763 16.108 49.1443 16.016 48.9603 15.832C48.7843 15.64 48.6963 15.412 48.6963 15.148C48.6963 14.884 48.7843 14.66 48.9603 14.476C49.1443 14.284 49.3763 14.188 49.6562 14.188C49.9363 14.188 50.1643 14.284 50.3403 14.476C50.5243 14.66 50.6163 14.884 50.6163 15.148C50.6163 15.412 50.5243 15.64 50.3403 15.832C50.1643 16.016 49.9363 16.108 49.6562 16.108ZM54.2763 14.764H54.5163C54.6923 14.764 54.8523 14.728 54.9963 14.656C55.1483 14.576 55.2763 14.436 55.3803 14.236C55.4843 14.036 55.5643 13.76 55.6203 13.408C55.6843 13.056 55.7163 12.6 55.7163 12.04V7.6H61.4763V16H60.0363V8.872H57.1562V12.04C57.1562 12.84 57.1003 13.504 56.9883 14.032C56.8843 14.552 56.7203 14.968 56.4963 15.28C56.2803 15.584 56.0043 15.8 55.6683 15.928C55.3403 16.048 54.9563 16.108 54.5163 16.108H54.2763V14.764ZM64.6525 16.108C64.0045 16.108 63.5125 15.948 63.1765 15.628C62.8405 15.308 62.6725 14.864 62.6725 14.296C62.6725 13.984 62.7205 13.704 62.8165 13.456C62.9205 13.2 63.0805 12.988 63.2965 12.82C63.5205 12.644 63.8045 12.512 64.1485 12.424C64.5005 12.328 64.9285 12.28 65.4325 12.28H66.4405V11.92C66.4405 11.632 66.3605 11.416 66.2005 11.272C66.0485 11.12 65.7925 11.044 65.4325 11.044C65.0965 11.044 64.8525 11.108 64.7005 11.236C64.5485 11.364 64.4565 11.532 64.4245 11.74H62.9125C62.9445 11.204 63.1605 10.764 63.5605 10.42C63.9685 10.068 64.5925 9.892 65.4325 9.892C66.2325 9.892 66.8325 10.076 67.2325 10.444C67.6325 10.812 67.8325 11.304 67.8325 11.92V16H66.7405L66.5965 15.172C66.3885 15.476 66.1165 15.708 65.7805 15.868C65.4525 16.028 65.0765 16.108 64.6525 16.108ZM64.8925 14.956C65.1165 14.956 65.3205 14.92 65.5045 14.848C65.6965 14.768 65.8605 14.664 65.9965 14.536C66.1325 14.4 66.2405 14.248 66.3205 14.08C66.4005 13.912 66.4405 13.732 66.4405 13.54V13.36H65.4325C64.9525 13.36 64.6165 13.44 64.4245 13.6C64.2325 13.76 64.1365 13.976 64.1365 14.248C64.1365 14.464 64.2005 14.636 64.3285 14.764C64.4645 14.892 64.6525 14.956 64.8925 14.956ZM73.6829 16H69.9509V17.56H68.6069V14.8H69.2429C69.3309 14.656 69.4109 14.496 69.4829 14.32C69.5629 14.136 69.6269 13.928 69.6749 13.696C69.7309 13.456 69.7749 13.184 69.8069 12.88C69.8389 12.568 69.8549 12.208 69.8549 11.8V10H74.3069V14.8H75.0269V17.56H73.6829V16ZM71.1989 11.8C71.1989 12.224 71.1829 12.596 71.1509 12.916C71.1269 13.228 71.0909 13.504 71.0429 13.744C70.9949 13.976 70.9389 14.18 70.8749 14.356C70.8189 14.524 70.7589 14.672 70.6949 14.8H72.9149V11.224H71.1989V11.8ZM78.4445 16.108C77.5405 16.108 76.8325 15.852 76.3205 15.34C75.8165 14.828 75.5645 14.112 75.5645 13.192V12.808C75.5645 12.352 75.6285 11.944 75.7565 11.584C75.8925 11.224 76.0845 10.92 76.3325 10.672C76.5885 10.416 76.8925 10.224 77.2445 10.096C77.5965 9.96 77.9965 9.892 78.4445 9.892C79.3485 9.892 80.0525 10.148 80.5565 10.66C81.0685 11.172 81.3245 11.888 81.3245 12.808V13.192C81.3245 13.648 81.2565 14.056 81.1205 14.416C80.9925 14.776 80.8005 15.084 80.5445 15.34C80.2965 15.588 79.9925 15.78 79.6325 15.916C79.2805 16.044 78.8845 16.108 78.4445 16.108ZM78.4445 14.812C78.9005 14.812 79.2485 14.68 79.4885 14.416C79.7365 14.152 79.8605 13.744 79.8605 13.192V12.808C79.8605 12.264 79.7325 11.86 79.4765 11.596C79.2285 11.324 78.8845 11.188 78.4445 11.188C77.9885 11.188 77.6365 11.32 77.3885 11.584C77.1485 11.848 77.0285 12.256 77.0285 12.808V13.192C77.0285 13.736 77.1525 14.144 77.4005 14.416C77.6565 14.68 78.0045 14.812 78.4445 14.812ZM87.1118 13.492H86.5238V16H85.1318V13.492H84.5318L83.1758 16H81.5678L83.3318 12.916L81.7718 10H83.3798L84.5198 12.268H85.1318V10H86.5238V12.268H87.1238L88.2878 10H89.8718L88.3478 12.808L90.0878 16H88.4078L87.1118 13.492ZM93.1502 16.108C92.7182 16.108 92.3262 16.044 91.9742 15.916C91.6302 15.78 91.3342 15.588 91.0862 15.34C90.8462 15.084 90.6582 14.776 90.5222 14.416C90.3942 14.056 90.3302 13.648 90.3302 13.192V12.808C90.3302 12.36 90.3942 11.956 90.5222 11.596C90.6582 11.236 90.8502 10.932 91.0982 10.684C91.3462 10.428 91.6422 10.232 91.9862 10.096C92.3382 9.96 92.7262 9.892 93.1502 9.892C93.9102 9.892 94.4982 10.08 94.9142 10.456C95.3382 10.832 95.6102 11.32 95.7302 11.92H94.2422C94.1782 11.704 94.0462 11.528 93.8462 11.392C93.6462 11.256 93.3942 11.188 93.0902 11.188C92.9142 11.188 92.7462 11.22 92.5862 11.284C92.4342 11.34 92.2982 11.436 92.1782 11.572C92.0582 11.7 91.9622 11.868 91.8902 12.076C91.8262 12.276 91.7942 12.52 91.7942 12.808V13.192C91.7942 13.472 91.8302 13.716 91.9022 13.924C91.9742 14.124 92.0702 14.292 92.1902 14.428C92.3102 14.556 92.4462 14.652 92.5982 14.716C92.7582 14.78 92.9222 14.812 93.0902 14.812C93.4342 14.812 93.6942 14.736 93.8702 14.584C94.0542 14.432 94.1782 14.244 94.2422 14.02H95.7302C95.6102 14.652 95.3382 15.16 94.9142 15.544C94.4982 15.92 93.9102 16.108 93.1502 16.108ZM98.7408 13.492H98.1408V16H96.7488V10H98.1408V12.268H98.7408L100.181 10H101.789L99.8928 12.832L102.029 16H100.349L98.7408 13.492ZM104.309 16.108C103.661 16.108 103.169 15.948 102.833 15.628C102.497 15.308 102.329 14.864 102.329 14.296C102.329 13.984 102.377 13.704 102.473 13.456C102.577 13.2 102.737 12.988 102.953 12.82C103.177 12.644 103.461 12.512 103.805 12.424C104.157 12.328 104.585 12.28 105.089 12.28H106.097V11.92C106.097 11.632 106.017 11.416 105.857 11.272C105.705 11.12 105.449 11.044 105.089 11.044C104.753 11.044 104.509 11.108 104.357 11.236C104.205 11.364 104.113 11.532 104.081 11.74H102.569C102.601 11.204 102.817 10.764 103.217 10.42C103.625 10.068 104.249 9.892 105.089 9.892C105.889 9.892 106.489 10.076 106.889 10.444C107.289 10.812 107.489 11.304 107.489 11.92V16H106.397L106.253 15.172C106.045 15.476 105.773 15.708 105.437 15.868C105.109 16.028 104.733 16.108 104.309 16.108ZM104.549 14.956C104.773 14.956 104.977 14.92 105.161 14.848C105.353 14.768 105.517 14.664 105.653 14.536C105.789 14.4 105.897 14.248 105.977 14.08C106.057 13.912 106.097 13.732 106.097 13.54V13.36H105.089C104.609 13.36 104.273 13.44 104.081 13.6C103.889 13.76 103.793 13.976 103.793 14.248C103.793 14.464 103.857 14.636 103.985 14.764C104.121 14.892 104.309 14.956 104.549 14.956ZM108.575 12.028C108.575 11.708 108.623 11.424 108.719 11.176C108.823 10.92 108.983 10.708 109.199 10.54C109.415 10.364 109.695 10.232 110.039 10.144C110.391 10.048 110.819 10 111.323 10H113.543V16H112.151V14.056H111.323C111.251 14.056 111.183 14.056 111.119 14.056C111.055 14.056 110.991 14.052 110.927 14.044L109.943 16H108.383L109.607 13.78C109.239 13.612 108.975 13.38 108.815 13.084C108.655 12.788 108.575 12.436 108.575 12.028ZM110.039 12.028C110.039 12.324 110.131 12.548 110.315 12.7C110.499 12.852 110.835 12.928 111.323 12.928H112.151V11.128H111.323C110.835 11.128 110.499 11.204 110.315 11.356C110.131 11.508 110.039 11.732 110.039 12.028Z" fill="#0B1739"/>
    <path opacity="0.4" d="M123.36 8.836L125.16 7.6H126V16H125.16V8.548L123.36 9.772V8.836ZM128.455 7.6H132.835V8.368H129.223L128.995 11.152C129.203 10.936 129.455 10.768 129.751 10.648C130.047 10.528 130.375 10.468 130.735 10.468C131.119 10.468 131.471 10.536 131.791 10.672C132.119 10.8 132.399 10.988 132.631 11.236C132.863 11.476 133.043 11.772 133.171 12.124C133.307 12.468 133.375 12.852 133.375 13.276C133.375 13.7 133.307 14.084 133.171 14.428C133.043 14.772 132.855 15.068 132.607 15.316C132.367 15.564 132.075 15.756 131.731 15.892C131.395 16.02 131.023 16.084 130.615 16.084C129.919 16.084 129.323 15.912 128.827 15.568C128.339 15.224 128.015 14.72 127.855 14.056H128.743C128.887 14.472 129.119 14.784 129.439 14.992C129.759 15.192 130.151 15.292 130.615 15.292C131.191 15.292 131.651 15.116 131.995 14.764C132.339 14.404 132.511 13.908 132.511 13.276C132.511 12.636 132.339 12.14 131.995 11.788C131.651 11.436 131.191 11.26 130.615 11.26C130.207 11.26 129.859 11.352 129.571 11.536C129.283 11.72 129.067 11.928 128.923 12.16H128.095L128.455 7.6ZM139.44 12.16L138.792 10.864V16H138V10H139.104L141.072 13.708L143.04 10H144.12V16H143.328V10.864L142.68 12.16L141.456 14.5H140.664L139.44 12.16ZM150.285 10.912L149.541 12.16L147.141 16H146.157V10H146.949V15.1L147.693 13.84L150.093 10H151.077V16H150.285V10.912ZM157.246 13.3H153.91V16H153.118V10H153.91V12.58H157.246V10H158.038V16H157.246V13.3Z" fill="#0B1739"/>
</svg>
