<svg width="32" height="32" viewBox="0 0 32 32" fill="none" xmlns="http://www.w3.org/2000/svg">
    <title>Mouse icon</title>
    <path fill-rule="evenodd" clip-rule="evenodd" d="M16 1.49902C12.4101 1.49902 9.5 4.40917 9.5 7.99902V16.999C9.5 20.5889 12.4101 23.499 16 23.499C19.5899 23.499 22.5 20.5889 22.5 16.999V7.99902C22.5 4.40917 19.5899 1.49902 16 1.49902ZM8.5 7.99902C8.5 3.85689 11.8579 0.499023 16 0.499023C20.1421 0.499023 23.5 3.85689 23.5 7.99902V16.999C23.5 21.1412 20.1421 24.499 16 24.499C11.8579 24.499 8.5 21.1412 8.5 16.999V7.99902Z"/>
    <path d="M17.3996 6.59922C17.3996 5.82602 16.7728 5.19922 15.9996 5.19922C15.2264 5.19922 14.5996 5.82602 14.5996 6.59922V9.39922C14.5996 10.1724 15.2264 10.7992 15.9996 10.7992C16.7728 10.7992 17.3996 10.1724 17.3996 9.39922V6.59922Z"/>
    <path fill-rule="evenodd" clip-rule="evenodd" d="M15.9996 5.69922C15.5026 5.69922 15.0996 6.10216 15.0996 6.59922V9.39922C15.0996 9.89628 15.5026 10.2992 15.9996 10.2992C16.4967 10.2992 16.8996 9.89628 16.8996 9.39922V6.59922C16.8996 6.10216 16.4967 5.69922 15.9996 5.69922ZM14.0996 6.59922C14.0996 5.54988 14.9503 4.69922 15.9996 4.69922C17.049 4.69922 17.8996 5.54988 17.8996 6.59922V9.39922C17.8996 10.4486 17.049 11.2992 15.9996 11.2992C14.9503 11.2992 14.0996 10.4486 14.0996 9.39922V6.59922Z"/>
    <path fill-rule="evenodd" clip-rule="evenodd" d="M12.6464 27.6455C12.8417 27.4502 13.1583 27.4502 13.3536 27.6455L16 30.2919L18.6464 27.6455C18.8417 27.4502 19.1583 27.4502 19.3536 27.6455C19.5488 27.8407 19.5488 28.1573 19.3536 28.3526L16 31.7061L12.6464 28.3526C12.4512 28.1573 12.4512 27.8407 12.6464 27.6455Z"/>
</svg>
