<svg width="56" height="56" fill="none" xmlns="http://www.w3.org/2000/svg"><g opacity=".8" filter="url(#filter0_d)"><path fill-rule="evenodd" clip-rule="evenodd" d="M28 46c11.046 0 20-8.954 20-20S39.046 6 28 6 8 14.954 8 26s8.954 20 20 20z" fill="#fff"/></g><path d="M36.956 16.955l-6.718 6.718m0 0h4.243m-4.243 0V19.43M36.954 34.865l-6.717-6.718m0 0v4.243m0-4.242h4.242M19.044 34.865l6.718-6.718m0 0h-4.243m4.243 0v4.243M19.044 16.955l6.718 6.718m0 0V19.43m0 4.243h-4.243" stroke="#000"/><defs><filter id="filter0_d" x="0" y="0" width="56" height="56" filterUnits="userSpaceOnUse" color-interpolation-filters="sRGB"><feFlood flood-opacity="0" result="BackgroundImageFix"/><feColorMatrix in="SourceAlpha" values="0 0 0 0 0 0 0 0 0 0 0 0 0 0 0 0 0 0 127 0"/><feOffset dy="2"/><feGaussianBlur stdDeviation="4"/><feColorMatrix values="0 0 0 0 0.0431373 0 0 0 0 0.0901961 0 0 0 0 0.223529 0 0 0 0.1 0"/><feBlend in2="BackgroundImageFix" result="effect1_dropShadow"/><feBlend in="SourceGraphic" in2="effect1_dropShadow" result="shape"/></filter></defs></svg>