<svg width="32" height="33" viewBox="0 0 32 33" fill="none" xmlns="http://www.w3.org/2000/svg">
<rect y="0.5" width="32" height="32" rx="16" fill="#4367AF"/>
<path fill-rule="evenodd" clip-rule="evenodd" d="M13.91 20.495C13.91 19.245 13.91 17.995 13.91 16.745C13.91 16.525 13.85 16.465 13.64 16.475H12.48C12.32 16.475 12.26 16.475 12.26 16.275C12.26 15.495 12.26 14.705 12.26 13.925C12.26 13.775 12.31 13.725 12.46 13.735C12.86 13.735 13.26 13.735 13.66 13.735C13.89 13.735 13.94 13.665 13.93 13.455C13.93 12.855 13.93 12.265 13.93 11.665C13.9306 10.9465 14.1581 10.2465 14.58 9.665C14.8307 9.30784 15.1628 9.01545 15.5488 8.81201C15.9348 8.60857 16.3637 8.4999 16.8 8.495C17.72 8.495 18.65 8.495 19.57 8.495C19.7 8.495 19.74 8.495 19.74 8.665C19.74 9.45833 19.74 10.2483 19.74 11.035C19.74 11.175 19.74 11.225 19.55 11.215H18.22C18.0939 11.1976 17.9656 11.2078 17.8439 11.2448C17.7221 11.2818 17.6098 11.3448 17.5148 11.4294C17.4197 11.514 17.3441 11.6182 17.2932 11.7348C17.2424 11.8515 17.2174 11.9778 17.22 12.105C17.22 12.575 17.22 13.045 17.22 13.515C17.22 13.685 17.32 13.675 17.43 13.675C18.1 13.675 18.78 13.675 19.43 13.675C19.63 13.675 19.7 13.725 19.67 13.935C19.59 14.715 19.52 15.505 19.45 16.285C19.45 16.465 19.35 16.505 19.19 16.495H17.59C17.21 16.495 17.25 16.445 17.25 16.835C17.25 19.285 17.25 21.735 17.25 24.185C17.25 24.445 17.19 24.505 16.93 24.505C16.02 24.505 15.1 24.505 14.19 24.505C13.93 24.505 13.89 24.425 13.89 24.195C13.92 22.945 13.91 21.715 13.91 20.495Z" fill="white"/>
</svg>
