<svg width="32" height="33" viewBox="0 0 32 33" fill="none" xmlns="http://www.w3.org/2000/svg">
<rect y="0.5" width="32" height="32" rx="16" fill="url(#paint0_radial)"/>
<rect y="0.5" width="32" height="32" rx="16" fill="url(#paint1_linear)"/>
<path d="M15.975 9.91501C18.115 9.91501 18.365 9.91501 19.205 9.96501C19.7137 9.96679 20.2181 10.0582 20.695 10.235C21.0399 10.3692 21.3531 10.5736 21.6147 10.8353C21.8764 11.0969 22.0808 11.4101 22.215 11.755C22.3918 12.232 22.4832 12.7363 22.485 13.245C22.485 14.085 22.485 14.335 22.485 16.475C22.485 18.615 22.485 18.865 22.485 19.705C22.4832 20.2137 22.3918 20.7181 22.215 21.195C22.0808 21.5399 21.8764 21.8531 21.6147 22.1147C21.3531 22.3764 21.0399 22.5808 20.695 22.715C20.2181 22.8918 19.7137 22.9832 19.205 22.985C18.365 22.985 18.115 22.985 15.975 22.985C13.835 22.985 13.585 22.985 12.745 22.985C12.2363 22.9832 11.732 22.8918 11.255 22.715C10.9101 22.5808 10.5969 22.3764 10.3353 22.1147C10.0736 21.8531 9.8692 21.5399 9.73501 21.195C9.55818 20.7181 9.46679 20.2137 9.46501 19.705C9.46501 18.865 9.41501 18.615 9.41501 16.475C9.41501 14.335 9.41501 14.085 9.46501 13.245C9.46679 12.7363 9.55818 12.232 9.73501 11.755C9.8692 11.4101 10.0736 11.0969 10.3353 10.8353C10.5969 10.5736 10.9101 10.3692 11.255 10.235C11.732 10.0582 12.2363 9.96679 12.745 9.96501C13.585 9.96501 13.835 9.91501 15.975 9.91501ZM15.975 8.47501C13.805 8.47501 13.525 8.47501 12.675 8.52501C12.012 8.5375 11.356 8.66262 10.735 8.89501C10.2006 9.09551 9.71528 9.40806 9.31167 9.81167C8.90806 10.2153 8.59551 10.7006 8.39501 11.235C8.16262 11.856 8.0375 12.512 8.02501 13.175C7.97501 14.025 7.97501 14.305 7.97501 16.475C7.97501 18.645 7.97501 18.925 8.02501 19.775C8.0375 20.438 8.16262 21.094 8.39501 21.715C8.59551 22.2494 8.90806 22.7347 9.31167 23.1383C9.71528 23.542 10.2006 23.8545 10.735 24.055C11.353 24.3045 12.0091 24.4465 12.675 24.475C13.525 24.475 13.805 24.525 15.975 24.525C18.145 24.525 18.425 24.525 19.275 24.475C19.938 24.4625 20.594 24.3374 21.215 24.105C21.7494 23.9045 22.2347 23.5919 22.6383 23.1883C23.042 22.7847 23.3545 22.2994 23.555 21.765C23.8101 21.1313 23.9523 20.4578 23.975 19.775C23.975 18.925 24.025 18.645 24.025 16.475C24.025 14.305 24.025 14.025 23.975 13.175C23.9625 12.512 23.8374 11.856 23.605 11.235C23.4045 10.7006 23.0919 10.2153 22.6883 9.81167C22.2847 9.40806 21.7994 9.09551 21.265 8.89501C20.644 8.66262 19.988 8.5375 19.325 8.52501C18.425 8.47501 18.145 8.47501 15.975 8.47501Z" fill="white"/>
<path d="M15.975 12.365C15.1621 12.365 14.3675 12.6061 13.6916 13.0577C13.0157 13.5093 12.4889 14.1512 12.1778 14.9022C11.8668 15.6532 11.7854 16.4796 11.944 17.2768C12.1025 18.0741 12.494 18.8064 13.0688 19.3812C13.6436 19.956 14.3759 20.3475 15.1732 20.506C15.9704 20.6646 16.7968 20.5832 17.5478 20.2722C18.2988 19.9611 18.9407 19.4343 19.3923 18.7584C19.8439 18.0825 20.085 17.2879 20.085 16.475C20.085 15.385 19.652 14.3396 18.8812 13.5688C18.1104 12.798 17.065 12.365 15.975 12.365ZM15.975 19.145C15.4469 19.145 14.9307 18.9884 14.4916 18.695C14.0525 18.4017 13.7103 17.9847 13.5082 17.4968C13.3061 17.0089 13.2533 16.4721 13.3563 15.9541C13.4593 15.4362 13.7136 14.9605 14.087 14.587C14.4604 14.2136 14.9362 13.9593 15.4541 13.8563C15.972 13.7533 16.5089 13.8062 16.9968 14.0083C17.4846 14.2103 17.9016 14.5526 18.195 14.9916C18.4884 15.4307 18.645 15.9469 18.645 16.475C18.6424 17.1823 18.3602 17.8599 17.8601 18.3601C17.3599 18.8602 16.6823 19.1424 15.975 19.145Z" fill="white"/>
<path d="M20.245 13.165C20.7752 13.165 21.205 12.7352 21.205 12.205C21.205 11.6748 20.7752 11.245 20.245 11.245C19.7148 11.245 19.285 11.6748 19.285 12.205C19.285 12.7352 19.7148 13.165 20.245 13.165Z" fill="white"/>
<defs>
<radialGradient id="paint0_radial" cx="0" cy="0" r="1" gradientUnits="userSpaceOnUse" gradientTransform="translate(8 34.2705) rotate(-54.5994) scale(41.43)">
<stop stop-color="#FFE8A9"/>
<stop offset="0.176012" stop-color="#FEC662"/>
<stop offset="0.361635" stop-color="#F67132"/>
<stop offset="0.558466" stop-color="#DC2D78"/>
<stop offset="1" stop-color="#9339C1"/>
</radialGradient>
<linearGradient id="paint1_linear" x1="11.0164" y1="0.5" x2="19.6721" y2="32.1066" gradientUnits="userSpaceOnUse">
<stop offset="0.0106668" stop-color="#4968D6"/>
<stop offset="0.265625" stop-color="#4968D6" stop-opacity="0"/>
</linearGradient>
</defs>
</svg>
