<svg width="32" height="33" viewBox="0 0 32 33" fill="none" xmlns="http://www.w3.org/2000/svg">
<rect y="0.5" width="32" height="32" rx="16" fill="#EE820A"/>
<path d="M15.21 19.77C14.0165 19.7013 12.8678 19.2918 11.9 18.59C11.78 18.49 11.65 18.4 11.55 18.3C11.3829 18.1348 11.2793 17.9159 11.2575 17.6819C11.2357 17.4479 11.297 17.2137 11.4306 17.0203C11.5643 16.827 11.7618 16.6869 11.9884 16.6247C12.215 16.5625 12.4564 16.5821 12.67 16.68C12.7686 16.7235 12.8624 16.7772 12.95 16.84C13.8335 17.4385 14.8738 17.7634 15.941 17.774C17.0081 17.7847 18.0547 17.4807 18.95 16.9C19.1238 16.7581 19.3245 16.6527 19.54 16.59C19.7382 16.5325 19.95 16.5425 20.1419 16.6185C20.3338 16.6946 20.495 16.8323 20.6 17.01C20.7327 17.182 20.7987 17.3962 20.7859 17.6131C20.773 17.83 20.6821 18.0349 20.53 18.19C20.0383 18.6926 19.4404 19.0787 18.78 19.32C18.1358 19.5565 17.4634 19.7077 16.78 19.77L16.99 20L19.76 22.77C19.9064 22.9037 20.0052 23.0815 20.0413 23.2764C20.0774 23.4714 20.0489 23.6728 19.96 23.85C19.8783 24.0384 19.7446 24.1996 19.5746 24.3148C19.4046 24.4299 19.2052 24.4941 19 24.5C18.7495 24.4757 18.5174 24.3579 18.35 24.17C17.66 23.47 16.95 22.78 16.27 22.07C16.07 21.86 15.97 21.9 15.8 22.07C15.1 22.79 14.39 23.5 13.67 24.21C13.5377 24.3554 13.3609 24.4529 13.1674 24.4873C12.9738 24.5217 12.7743 24.491 12.6 24.4C12.4092 24.3126 12.2479 24.1714 12.1361 23.9938C12.0242 23.8162 11.9665 23.6099 11.97 23.4C11.9894 23.1374 12.1116 22.8931 12.31 22.72L15 19.99L15.21 19.77Z" fill="white"/>
<path d="M16 16.6C15.1977 16.596 14.4147 16.3538 13.7503 15.9041C13.0859 15.4544 12.57 14.8176 12.2681 14.0743C11.9661 13.331 11.8918 12.5148 12.0544 11.7292C12.217 10.9435 12.6093 10.2239 13.1815 9.66155C13.7537 9.09919 14.48 8.71945 15.2683 8.57049C16.0566 8.42153 16.8715 8.51005 17.6094 8.82484C18.3473 9.13962 18.9752 9.66649 19.4132 10.3386C19.8513 11.0107 20.0799 11.7978 20.07 12.6C20.0542 13.6681 19.6181 14.6869 18.8563 15.4357C18.0944 16.1844 17.0682 16.6028 16 16.6ZM18 12.55C18 12.1544 17.8827 11.7678 17.6629 11.4389C17.4432 11.11 17.1308 10.8536 16.7654 10.7023C16.3999 10.5509 15.9978 10.5113 15.6098 10.5884C15.2219 10.6656 14.8655 10.8561 14.5858 11.1358C14.3061 11.4155 14.1156 11.7719 14.0384 12.1598C13.9613 12.5478 14.0009 12.9499 14.1522 13.3154C14.3036 13.6808 14.56 13.9932 14.8889 14.213C15.2178 14.4327 15.6044 14.55 16 14.55C16.5304 14.55 17.0391 14.3393 17.4142 13.9642C17.7893 13.5892 18 13.0804 18 12.55Z" fill="white"/>
</svg>
