<svg width="32" height="33" viewBox="0 0 32 33" fill="none" xmlns="http://www.w3.org/2000/svg">
<rect y="0.5" width="32" height="32" rx="16" fill="#1EA9E1"/>
<path d="M16 21.31C13.33 21.31 12.11 19.96 12.11 18.97C12.1098 18.8527 12.1336 18.7367 12.1799 18.6289C12.2262 18.5212 12.2941 18.4241 12.3793 18.3435C12.4645 18.263 12.5653 18.2007 12.6755 18.1605C12.7857 18.1204 12.9029 18.1032 13.02 18.11C14.16 18.11 13.87 19.81 16.02 19.81C17.11 19.81 17.75 19.16 17.75 18.54C17.75 18.18 17.54 17.77 16.82 17.59L14.44 16.99C12.54 16.5 12.2 15.44 12.2 14.5C12.2 12.5 14.08 11.73 15.86 11.73C17.64 11.73 19.46 12.63 19.46 13.85C19.4568 13.9677 19.4289 14.0834 19.3782 14.1896C19.3274 14.2958 19.2549 14.3901 19.1653 14.4665C19.0757 14.5429 18.9711 14.5995 18.8582 14.6329C18.7453 14.6662 18.6267 14.6755 18.51 14.66C17.51 14.66 17.69 13.3 15.73 13.3C14.73 13.3 14.24 13.75 14.24 14.39C14.24 15.03 14.99 15.24 15.66 15.39L17.42 15.78C19.35 16.21 19.86 17.34 19.86 18.41C19.86 20.06 18.57 21.34 16.03 21.34L16 21.31ZM23.41 17.84C23.4924 17.3982 23.5326 16.9495 23.53 16.5C23.53 14.5029 22.7367 12.5876 21.3245 11.1755C19.9124 9.76334 17.9971 8.97001 16 8.97001C15.5606 8.96932 15.122 9.0095 14.69 9.09001C14.0157 8.69934 13.2493 8.49567 12.47 8.50001C11.2845 8.50001 10.1475 8.97095 9.30924 9.80924C8.47095 10.6475 8.00001 11.7845 8.00001 12.97C7.99567 13.7493 8.19934 14.5157 8.59001 15.19C8.5095 15.622 8.46932 16.0606 8.47001 16.5C8.47001 18.4971 9.26334 20.4124 10.6755 21.8245C12.0876 23.2367 14.0029 24.03 16 24.03C16.4394 24.0307 16.878 23.9905 17.31 23.91C17.9843 24.3007 18.7507 24.5043 19.53 24.5C20.7155 24.5 21.8525 24.0291 22.6908 23.1908C23.5291 22.3525 24 21.2155 24 20.03C24.0043 19.2507 23.8007 18.4843 23.41 17.81" fill="white"/>
</svg>
