<svg width="32" height="33" viewBox="0 0 32 33" fill="none" xmlns="http://www.w3.org/2000/svg">
<g clip-path="url(#clip0)">
<path d="M16 32.5C24.8366 32.5 32 25.3366 32 16.5C32 7.66344 24.8366 0.5 16 0.5C7.16344 0.5 0 7.66344 0 16.5C0 25.3366 7.16344 32.5 16 32.5Z" fill="url(#paint0_linear)"/>
<path fill-rule="evenodd" clip-rule="evenodd" d="M7.24251 16.3311C11.9068 14.2989 15.0171 12.9592 16.5734 12.3119C21.0167 10.4637 21.94 10.1427 22.5418 10.1321C22.6742 10.1298 22.9701 10.1626 23.1618 10.3181C23.3237 10.4495 23.3682 10.6269 23.3895 10.7514C23.4108 10.8759 23.4374 11.1596 23.4163 11.3813C23.1755 13.9113 22.1336 20.0508 21.6036 22.8845C21.3793 24.0835 20.9376 24.4855 20.5101 24.5248C19.581 24.6103 18.8754 23.9108 17.9755 23.3209C16.5673 22.3978 15.7717 21.8231 14.4048 20.9224C12.8251 19.8814 13.8492 19.3092 14.7494 18.3742C14.985 18.1295 19.0789 14.4058 19.1581 14.068C19.168 14.0257 19.1772 13.8683 19.0837 13.7851C18.9901 13.702 18.852 13.7304 18.7524 13.753C18.6112 13.7851 16.3615 15.272 12.0035 18.2138C11.365 18.6522 10.7866 18.8659 10.2684 18.8547C9.69709 18.8423 8.59817 18.5317 7.78124 18.2661C6.77924 17.9404 5.98287 17.7682 6.05221 17.2151C6.08833 16.9269 6.4851 16.6323 7.24251 16.3311Z" fill="white"/>
</g>
<defs>
<linearGradient id="paint0_linear" x1="16" y1="0.5" x2="16" y2="32.2627" gradientUnits="userSpaceOnUse">
<stop stop-color="#2AABEE"/>
<stop offset="1" stop-color="#229ED9"/>
</linearGradient>
<clipPath id="clip0">
<rect width="32" height="32" fill="white" transform="translate(0 0.5)"/>
</clipPath>
</defs>
</svg>
