<svg width="32" height="33" viewBox="0 0 32 33" fill="none" xmlns="http://www.w3.org/2000/svg">
<rect y="0.5" width="32" height="32" rx="16" fill="#675DA6"/>
<path d="M21.87 10.06C21.48 9.69999 19.87 8.49999 16.29 8.49999C16.29 8.49999 12.07 8.24999 10.01 10.13C8.86999 11.28 8.45999 12.96 8.41999 15.03C8.37999 17.1 8.31999 21.03 12.08 22.03V23.64C12.08 23.64 12.08 24.3 12.49 24.43C12.9 24.56 13.31 24.1 13.81 23.56C14.08 23.27 14.45 22.83 14.74 22.51C16.3351 22.6529 17.9429 22.5346 19.5 22.16C20.5654 21.984 21.5378 21.4465 22.2535 20.6379C22.9692 19.8293 23.3847 18.7989 23.43 17.72C23.92 13.75 23.19 11.21 21.87 10.06ZM22.31 17.5C22.2894 18.3851 21.9539 19.2338 21.3637 19.8936C20.7735 20.5535 19.9673 20.9812 19.09 21.1C17.7494 21.4264 16.3665 21.5445 14.99 21.45C14.99 21.45 13.36 23.4 12.86 23.92C12.8296 23.9524 12.7921 23.9773 12.7505 23.9929C12.7089 24.0085 12.6642 24.0144 12.62 24.01C12.53 24.01 12.51 23.89 12.51 23.74C12.51 23.59 12.51 21.06 12.51 21.06C9.33999 20.18 9.50999 16.86 9.55999 15.13C9.44748 13.6356 9.92493 12.1566 10.89 11.01C12.63 9.43999 16.22 9.66999 16.22 9.66999C19.22 9.66999 20.69 10.6 21.03 10.9C22.16 11.83 22.72 14.12 22.31 17.5Z" fill="white"/>
<path d="M16.56 13.5C16.5076 13.4998 16.457 13.5191 16.4181 13.5543C16.3793 13.5894 16.355 13.6378 16.35 13.69C16.3472 13.7441 16.3654 13.7972 16.4008 13.8382C16.4362 13.8792 16.4861 13.9049 16.54 13.91C16.6765 13.9097 16.8116 13.9375 16.9371 13.9914C17.0625 14.0454 17.1755 14.1245 17.2692 14.2238C17.3629 14.3231 17.4352 14.4405 17.4818 14.5689C17.5284 14.6972 17.5482 14.8337 17.54 14.97C17.5448 15.0205 17.5677 15.0675 17.6044 15.1024C17.6412 15.1374 17.6893 15.1578 17.74 15.16C17.7931 15.1552 17.8427 15.1312 17.8795 15.0926C17.9163 15.054 17.9378 15.0033 17.94 14.95C17.951 14.7626 17.9233 14.575 17.8587 14.3988C17.7942 14.2225 17.6941 14.0614 17.5647 13.9255C17.4353 13.7895 17.2794 13.6816 17.1065 13.6084C16.9337 13.5352 16.7477 13.4983 16.56 13.5Z" fill="white"/>
<path d="M18.8 15.5C18.853 15.5 18.9039 15.4789 18.9414 15.4414C18.9789 15.4039 19 15.353 19 15.3C19.0189 14.9363 18.966 14.5725 18.8441 14.2293C18.7223 13.8861 18.534 13.5703 18.29 13.3C17.7634 12.7561 17.0466 12.4371 16.29 12.41C16.2629 12.4072 16.2356 12.41 16.2096 12.4182C16.1837 12.4264 16.1597 12.4398 16.1391 12.4576C16.1185 12.4754 16.1017 12.4972 16.0899 12.5217C16.078 12.5462 16.0712 12.5728 16.07 12.6C16.0686 12.6263 16.0725 12.6525 16.0813 12.6773C16.0901 12.7021 16.1038 12.7249 16.1214 12.7444C16.1391 12.7639 16.1604 12.7797 16.1842 12.791C16.208 12.8023 16.2337 12.8087 16.26 12.81C16.9251 12.8253 17.5574 13.1019 18.02 13.58C18.2309 13.8097 18.3936 14.0794 18.4984 14.3731C18.6032 14.6669 18.6479 14.9786 18.63 15.29C18.6291 15.3394 18.6456 15.3875 18.6767 15.426C18.7078 15.4644 18.7515 15.4906 18.8 15.5Z" fill="white"/>
<path d="M15.89 11.37C15.8369 11.37 15.7861 11.3911 15.7486 11.4286C15.711 11.4661 15.69 11.5169 15.69 11.57C15.69 11.623 15.711 11.6739 15.7486 11.7114C15.7861 11.7489 15.8369 11.77 15.89 11.77C16.3846 11.7606 16.8761 11.8495 17.3362 12.0315C17.7962 12.2134 18.2156 12.4848 18.57 12.83C18.9389 13.2121 19.2258 13.6655 19.4133 14.1625C19.6007 14.6594 19.6847 15.1894 19.66 15.72C19.66 15.773 19.681 15.8239 19.7186 15.8614C19.7561 15.8989 19.8069 15.92 19.86 15.92C19.913 15.92 19.9639 15.8989 20.0014 15.8614C20.0389 15.8239 20.06 15.773 20.06 15.72C20.0897 15.1298 19.9986 14.5398 19.7922 13.9862C19.5859 13.4325 19.2687 12.9267 18.86 12.5C18.4634 12.1258 17.997 11.8333 17.4874 11.6395C16.9778 11.4456 16.435 11.354 15.89 11.37Z" fill="white"/>
<path d="M19.59 18.04C19.59 18.04 19.13 17.65 18.9 17.48C18.67 17.31 18.35 17.12 18.16 17.01C18.0297 16.9288 17.8749 16.8963 17.723 16.9182C17.5711 16.9402 17.4319 17.0152 17.33 17.13L17 17.5C16.9434 17.5586 16.8747 17.6042 16.7987 17.6336C16.7228 17.6629 16.6413 17.6754 16.56 17.67C15.9491 17.4744 15.3958 17.1311 14.9493 16.6706C14.5027 16.2101 14.1767 15.6466 14 15.03C13.9926 14.9494 14.0032 14.8682 14.0308 14.7921C14.0585 14.716 14.1026 14.647 14.16 14.59L14.54 14.3C14.654 14.1951 14.7274 14.0535 14.7475 13.9C14.7676 13.7464 14.7331 13.5906 14.65 13.46C14.5104 13.2029 14.3533 12.9556 14.18 12.72C14.01 12.49 13.63 12.03 13.63 12.03C13.5403 11.9231 13.4151 11.8522 13.2773 11.8301C13.1396 11.8081 12.9985 11.8364 12.88 11.91C12.5926 12.0752 12.3328 12.2844 12.11 12.53C11.9446 12.7033 11.8364 12.9232 11.8 13.16C11.7947 13.1897 11.7947 13.2202 11.8 13.25C11.7805 13.3389 11.7805 13.431 11.8 13.52C12.0034 14.1238 12.2716 14.7039 12.6 15.25C12.8907 15.7645 13.2253 16.253 13.6 16.71C13.77 16.92 13.96 17.14 14.18 17.37C14.3837 17.5773 14.6008 17.7711 14.83 17.95C15.2878 18.3236 15.7762 18.6581 16.29 18.95C16.8425 19.2728 17.4252 19.5408 18.03 19.75C18.1194 19.7645 18.2106 19.7645 18.3 19.75H18.39C18.6286 19.7165 18.8516 19.612 19.03 19.45C19.278 19.2334 19.4876 18.9765 19.65 18.69C19.7064 18.5881 19.7308 18.4717 19.7201 18.3557C19.7094 18.2398 19.6641 18.1298 19.59 18.04Z" fill="white"/>
</svg>
