<svg width="32" height="33" viewBox="0 0 32 33" fill="none" xmlns="http://www.w3.org/2000/svg">
<rect y="0.5" width="32" height="32" rx="16" fill="#4A77A9"/>
<path d="M23.92 20.13C23.9045 20.0942 23.8843 20.0605 23.86 20.03C23.4222 19.3486 22.8864 18.7353 22.27 18.21C21.91 17.87 21.69 17.65 21.59 17.53C21.5093 17.4427 21.456 17.3337 21.4364 17.2164C21.4169 17.0992 21.432 16.9788 21.48 16.87C21.686 16.4814 21.9378 16.1188 22.23 15.79L22.77 15.09C23.77 13.84 24.15 13.03 24.02 12.68L23.97 12.6C23.899 12.5287 23.8086 12.48 23.71 12.46C23.5352 12.4233 23.3547 12.4233 23.18 12.46H20.78H20.61H20.5C20.4651 12.4847 20.4347 12.5152 20.41 12.55C20.3709 12.5902 20.3403 12.6378 20.32 12.69C20.0718 13.3288 19.7742 13.9474 19.43 14.54C19.23 14.88 19.04 15.17 18.86 15.42C18.7359 15.6176 18.5918 15.8019 18.43 15.97C18.3315 16.0753 18.2244 16.1723 18.11 16.26C18.0233 16.3267 17.9533 16.3567 17.9 16.35H17.76C17.6777 16.3043 17.6114 16.2345 17.57 16.15C17.516 16.0509 17.482 15.9422 17.47 15.83C17.47 15.6967 17.47 15.5867 17.47 15.5C17.47 15.41 17.47 15.28 17.47 15.11C17.47 14.94 17.47 14.82 17.47 14.76C17.47 14.7 17.47 14.33 17.47 14.08C17.47 13.83 17.47 13.65 17.47 13.5C17.47 13.35 17.47 13.21 17.47 13.05C17.4829 12.927 17.4829 12.803 17.47 12.68C17.4506 12.59 17.4204 12.5027 17.38 12.42C17.3461 12.3369 17.2866 12.2668 17.21 12.22C17.1234 12.1681 17.0288 12.1309 16.93 12.11C16.5613 12.0356 16.1861 11.9987 15.81 12C15.1367 11.9444 14.4589 12.0122 13.81 12.2C13.6893 12.2594 13.5808 12.3408 13.49 12.44C13.39 12.57 13.38 12.63 13.49 12.64C13.6267 12.6482 13.7602 12.6844 13.8823 12.7463C14.0045 12.8082 14.1126 12.8946 14.2 13V13.09C14.2518 13.2118 14.2888 13.3394 14.31 13.47C14.354 13.6673 14.3807 13.8681 14.39 14.07C14.4184 14.4027 14.4184 14.7373 14.39 15.07C14.39 15.35 14.33 15.57 14.31 15.73C14.2908 15.8643 14.2538 15.9955 14.2 16.12C14.2 16.22 14.11 16.28 14.1 16.3C14.09 16.32 14.1 16.3 14.1 16.3C14.0274 16.3151 13.9525 16.3151 13.88 16.3C13.7784 16.2896 13.6815 16.2515 13.6 16.19C13.4734 16.0948 13.3562 15.9876 13.25 15.87C13.1008 15.6952 12.967 15.5078 12.85 15.31C12.6783 15.0318 12.5214 14.7448 12.38 14.45L12.25 14.22C12.16 14.06 12.05 13.84 11.91 13.55C11.77 13.26 11.63 12.97 11.52 12.7C11.4857 12.59 11.4152 12.4948 11.32 12.43C11.2085 12.4167 11.0958 12.4414 11 12.5C10.937 12.491 10.873 12.491 10.81 12.5H8.52998C8.44458 12.488 8.35755 12.4962 8.2759 12.524C8.19426 12.5518 8.12029 12.5984 8.05998 12.66C8.05186 12.703 8.05186 12.7471 8.05998 12.79C8.06531 12.8655 8.08217 12.9397 8.10998 13.01C8.43998 13.78 8.80998 14.53 9.19998 15.24C9.58998 15.95 9.92998 16.54 10.2 16.98C10.47 17.42 10.78 17.83 11.08 18.22C11.38 18.61 11.58 18.85 11.68 18.96C11.7494 19.0497 11.8264 19.1333 11.91 19.21L12.11 19.41C12.2951 19.5806 12.4923 19.7377 12.7 19.88C12.96 20.06 13.25 20.24 13.56 20.42C13.9026 20.6136 14.269 20.7615 14.65 20.86C15.0475 20.9658 15.4591 21.0097 15.87 20.99H16.87C16.9516 20.9904 17.0324 20.9747 17.1079 20.9439C17.1834 20.913 17.2521 20.8675 17.31 20.81C17.345 20.7663 17.369 20.7149 17.38 20.66C17.3911 20.5837 17.3911 20.5063 17.38 20.43C17.3701 20.2187 17.3869 20.0071 17.43 19.8C17.4584 19.6514 17.5054 19.5069 17.57 19.37C17.6134 19.2788 17.6746 19.1973 17.75 19.13C17.7894 19.0823 17.8368 19.0417 17.89 19.01H17.96C18.043 18.9941 18.1287 18.9975 18.2102 19.0201C18.2917 19.0426 18.3669 19.0837 18.43 19.14C18.6166 19.2777 18.7876 19.4353 18.94 19.61C19.1 19.8 19.29 20.01 19.51 20.25C19.684 20.4467 19.8784 20.6244 20.09 20.78L20.26 20.87C20.3953 20.95 20.5397 21.0138 20.69 21.06C20.8449 21.0933 21.0051 21.0933 21.16 21.06H23.29C23.4591 21.0687 23.6278 21.0343 23.78 20.96C23.8292 20.9387 23.8734 20.9072 23.9096 20.8675C23.9458 20.8279 23.9732 20.781 23.99 20.73C24.0101 20.6411 24.0101 20.5489 23.99 20.46C24 20.24 23.93 20.17 23.92 20.13Z" fill="white"/>
</svg>
