<svg width="32" height="33" viewBox="0 0 32 33" fill="none" xmlns="http://www.w3.org/2000/svg">
<path fill-rule="evenodd" clip-rule="evenodd" d="M27.326 5.15289C24.3246 2.1498 20.3227 0.5 16.0611 0.5C7.28592 0.5 0.13747 7.61618 0.129833 16.3517C0.129833 19.1496 0.863007 21.8713 2.25298 24.2814L0 32.5L8.44678 30.2952C10.7761 31.5573 13.3957 32.2263 16.0611 32.2263H16.0687C24.8439 32.2263 31.9924 25.1101 32 16.367C31.9924 12.1322 30.3351 8.14837 27.326 5.15289ZM16.0611 29.5425C13.6783 29.5425 11.3489 28.9039 9.31742 27.7027L8.83628 27.4138L3.82625 28.7214L5.16277 23.8557L4.84964 23.3539C3.52076 21.2555 2.82578 18.8302 2.82578 16.3441C2.82578 9.09111 8.76754 3.17617 16.0687 3.17617C19.6048 3.17617 22.927 4.55227 25.432 7.03837C27.9294 9.53207 29.3041 12.8393 29.3041 16.3594C29.2964 23.6352 23.3547 29.5425 16.0611 29.5425ZM23.3241 19.6742C22.927 19.4765 20.9718 18.5185 20.6053 18.3817C20.2387 18.2524 19.9714 18.184 19.7117 18.5794C19.4444 18.9747 18.6807 19.8718 18.4516 20.1303C18.2224 20.3964 17.9857 20.4268 17.5885 20.2292C17.1914 20.0315 15.9084 19.6133 14.3885 18.26C13.2048 17.2109 12.4105 15.9108 12.1737 15.5154C11.9446 15.1201 12.1508 14.9072 12.3494 14.7096C12.5251 14.5347 12.7465 14.2458 12.9451 14.0177C13.1437 13.7896 13.2124 13.6224 13.3422 13.3563C13.4721 13.0902 13.411 12.8621 13.3117 12.6644C13.2124 12.4667 12.4181 10.5128 12.0821 9.72214C11.7613 8.94666 11.4329 9.0531 11.1885 9.0455C10.9594 9.03029 10.6921 9.03029 10.4248 9.03029C10.1575 9.03029 9.72983 9.12913 9.36325 9.52447C8.99666 9.91982 7.97327 10.8778 7.97327 12.8317C7.97327 14.7856 9.40143 16.6635 9.6 16.9296C9.79857 17.1957 12.4029 21.1947 16.3971 22.9129C17.3442 23.3235 18.085 23.5668 18.6654 23.7492C19.62 24.0533 20.4831 24.0077 21.1704 23.9089C21.9341 23.7948 23.5227 22.9509 23.8587 22.0234C24.1871 21.0959 24.1871 20.3052 24.0878 20.1379C23.9885 19.9707 23.7212 19.8718 23.3241 19.6742Z" fill="#455A64"/>
</svg>
