<svg width="32" height="23" viewBox="0 0 32 23" fill="none" xmlns="http://www.w3.org/2000/svg">
<path d="M31.33 3.75001C31.1514 3.06762 30.7956 2.44458 30.2986 1.94407C29.8016 1.44355 29.1811 1.08336 28.5 0.900011C26 0.230011 16 0.230011 16 0.230011C16 0.230011 5.99999 0.230011 3.49999 0.900011C2.81888 1.08336 2.19836 1.44355 1.70136 1.94407C1.20435 2.44458 0.848538 3.06762 0.669993 3.75001C0.207792 6.30711 -0.0164998 8.90153 -7.11763e-06 11.5C-0.0164998 14.0985 0.207792 16.6929 0.669993 19.25C0.848538 19.9324 1.20435 20.5554 1.70136 21.056C2.19836 21.5565 2.81888 21.9167 3.49999 22.1C5.98999 22.77 16 22.77 16 22.77C16 22.77 26 22.77 28.5 22.1C29.1811 21.9167 29.8016 21.5565 30.2986 21.056C30.7956 20.5554 31.1514 19.9324 31.33 19.25C31.7922 16.6929 32.0165 14.0985 32 11.5C32.0165 8.90153 31.7922 6.30711 31.33 3.75001Z" fill="#E52521"/>
<path d="M12.73 16.26L21.09 11.5L12.73 6.74002V16.26Z" fill="white"/>
</svg>
