<svg width="102" height="30" viewBox="0 0 102 30" fill="none" xmlns="http://www.w3.org/2000/svg">
    <mask id="mask0_8747_55215" style="mask-type:alpha" maskUnits="userSpaceOnUse" x="0" y="0" width="102" height="30">
        <path fill-rule="evenodd" clip-rule="evenodd" d="M50.625 30H101.25V0H50.625H0V30H50.625Z" fill="white"/>
    </mask>
    <g mask="url(#mask0_8747_55215)">
        <path d="M97.6478 30H3.54675C1.5915 30 0 28.404 0 26.4503V3.5445C0 1.59 1.5915 0 3.54675 0H97.6478C99.6015 0 101.25 1.59 101.25 3.5445V26.4503C101.25 28.404 99.6015 30 97.6478 30Z" fill="#4B4B4B"/>
    </g>
    <path fill-rule="evenodd" clip-rule="evenodd" d="M20.196 7.72984C20.8515 6.91009 21.3 5.79484 21.1755 4.66309C20.2268 4.70509 19.0403 5.31934 18.357 6.12109C17.7525 6.82759 17.2125 7.98559 17.352 9.07459C18.4178 9.15409 19.512 8.53684 20.196 7.72984ZM22.5958 14.8383C22.5742 12.4392 24.5453 11.2627 24.6642 11.1918L24.6666 11.1903C23.5333 9.53809 21.7768 9.31234 21.1596 9.29434C20.257 9.19936 19.371 9.551 18.6471 9.83833C18.1877 10.0207 17.7936 10.1771 17.5018 10.1771C17.1697 10.1771 16.7641 10.0141 16.3097 9.83154C15.7155 9.59276 15.0376 9.32039 14.3308 9.33484C12.7258 9.35959 11.2243 10.2888 10.4008 11.7318C8.70132 14.6741 9.96882 18.9978 11.5971 21.3761C12.4116 22.5408 13.3633 23.8413 14.6091 23.7948C15.1744 23.7719 15.5755 23.6032 15.9898 23.4289C16.4687 23.2275 16.9653 23.0186 17.7538 23.0186C18.4981 23.0186 18.9737 23.2211 19.4303 23.4154C19.8676 23.6016 20.2874 23.7803 20.9091 23.7663C22.2171 23.7453 23.0406 22.5963 23.8266 21.4203C24.7678 20.0861 25.1458 18.7713 25.1608 18.7038C25.1301 18.6933 22.6206 17.7356 22.5958 14.8383ZM36.4723 12.8603L37.3161 15.4665H34.6363L35.4651 12.8603C35.6826 12.0315 35.8408 11.4045 35.9391 10.98H35.9691C36.2158 11.967 36.3831 12.594 36.4723 12.8603ZM40.2336 19.6283H38.5303L37.5973 16.6965H34.3543L33.4656 19.6283H31.8073L35.0203 9.64726H37.0048L40.2336 19.6283ZM46.3935 14.2672C46.71 14.7217 46.8675 15.2992 46.8675 15.9997C46.8675 16.7602 46.6995 17.3722 46.3635 17.8364C46.0283 18.2999 45.5595 18.5324 44.9573 18.5324C44.4443 18.5324 44.0273 18.3524 43.7063 17.9917C43.3853 17.6309 43.2248 17.1892 43.2248 16.6657V15.4657C43.2248 15.3382 43.2495 15.1762 43.299 14.9782C43.3973 14.5537 43.6073 14.2109 43.9283 13.9484C44.2485 13.6882 44.607 13.5562 45.0015 13.5562C45.5835 13.5562 46.0478 13.7932 46.3935 14.2672ZM48.4965 15.9412C48.4965 17.1652 48.1658 18.1327 47.5043 18.8429C46.9118 19.4752 46.176 19.7909 45.2978 19.7909C44.3498 19.7909 43.6688 19.4504 43.254 18.7694H43.224V22.5607H41.625V14.8004C41.625 14.0309 41.6048 13.2412 41.5658 12.4312H42.972L43.0613 13.5719H43.0913C43.6245 12.7124 44.4338 12.2834 45.5198 12.2834C46.3688 12.2834 47.0775 12.6187 47.6445 13.2899C48.213 13.9619 48.4965 14.8454 48.4965 15.9412ZM54.6699 14.2672C54.9871 14.7217 55.1454 15.2992 55.1454 15.9997C55.1454 16.7602 54.9766 17.3722 54.6414 17.8364C54.3061 18.2999 53.8374 18.5324 53.2351 18.5324C52.7206 18.5324 52.3036 18.3517 51.9819 17.9917C51.6624 17.6309 51.5026 17.1892 51.5026 16.6657V15.4657C51.5026 15.3382 51.5281 15.1762 51.5761 14.9782C51.6751 14.5537 51.8836 14.2109 52.2054 13.9484C52.5264 13.6882 52.8834 13.5562 53.2794 13.5562C53.8621 13.5562 54.3241 13.7932 54.6699 14.2672ZM56.7744 15.9412C56.7744 17.1652 56.4429 18.1327 55.7814 18.8429C55.1896 19.4752 54.4539 19.7909 53.5749 19.7909C52.6276 19.7909 51.9459 19.4504 51.5326 18.7694H51.5026V22.5607H49.9036V14.8004C49.9036 14.0309 49.8834 13.2412 49.8444 12.4312H51.2506L51.3399 13.5719H51.3699C51.9024 12.7124 52.7116 12.2834 53.7984 12.2834C54.6466 12.2834 55.3546 12.6187 55.9239 13.2899C56.4901 13.9619 56.7744 14.8454 56.7744 15.9412ZM65.1427 18.9026C65.7345 18.3693 66.0292 17.6786 66.0292 16.8296C66.0292 16.1388 65.8267 15.5613 65.4232 15.0986C65.0175 14.6351 64.3867 14.2308 63.528 13.8851C62.826 13.6083 62.3422 13.3518 62.076 13.1156C61.77 12.8583 61.6177 12.5328 61.6177 12.1376C61.6177 11.7821 61.7512 11.4813 62.0175 11.2346C62.3325 10.9578 62.772 10.8191 63.3345 10.8191C64.0455 10.8191 64.6822 10.9721 65.2447 11.2788L65.6445 9.97456C65.0422 9.65881 64.2877 9.50131 63.3795 9.50131C62.361 9.50131 61.5457 9.76306 60.936 10.2866C60.3232 10.8108 60.0172 11.4836 60.0172 12.3041C60.0172 13.5596 60.8895 14.5136 62.6377 15.1653C63.2797 15.4038 63.7395 15.6603 64.014 15.9378C64.2915 16.2146 64.4295 16.5558 64.4295 16.9608C64.4295 17.4146 64.2622 17.7798 63.927 18.0513C63.5902 18.3221 63.1215 18.4593 62.5192 18.4593C61.68 18.4593 60.9097 18.2463 60.2077 17.8211L59.8372 19.1546C60.489 19.5686 61.35 19.7763 62.424 19.7763C63.5872 19.7763 64.4925 19.4853 65.1427 18.9026ZM71.3158 13.631H69.5533V17.1253C69.5533 18.014 69.8638 18.4588 70.4871 18.4588C70.7721 18.4588 71.0091 18.4333 71.1966 18.3838L71.2408 19.598C70.9258 19.7158 70.5111 19.775 69.9973 19.775C69.3658 19.775 68.8723 19.583 68.5168 19.1975C68.1613 18.812 67.9828 18.1655 67.9828 17.2573V13.6295H66.9328V12.4295H67.9828V11.1118L69.5533 10.6378V12.4295H71.3158V13.631ZM77.1805 14.3147C77.4678 14.7887 77.6088 15.3579 77.6088 16.0224C77.6088 16.6854 77.461 17.2599 77.1655 17.7444C76.8198 18.3272 76.3413 18.6204 75.73 18.6204C75.1068 18.6204 74.6245 18.3339 74.2788 17.7587C73.9915 17.2854 73.849 16.7162 73.849 16.0524C73.849 15.3684 73.9915 14.7894 74.2788 14.3147C74.614 13.7409 75.1015 13.4537 75.745 13.4537C76.366 13.4537 76.8445 13.7402 77.1805 14.3147ZM79.2685 15.9707C79.2685 17.0762 78.9513 17.9852 78.3198 18.6947C77.6575 19.4267 76.7793 19.7904 75.6835 19.7904C74.6268 19.7904 73.786 19.4409 73.159 18.7404C72.532 18.0392 72.2185 17.1557 72.2185 16.0899C72.2185 14.9747 72.541 14.0612 73.1883 13.3502C73.8348 12.6392 74.7063 12.2844 75.802 12.2844C76.8573 12.2844 77.7078 12.6339 78.3483 13.3359C78.9625 14.0162 79.2685 14.8944 79.2685 15.9707ZM83.9617 13.7926C84.138 13.7926 84.3075 13.8083 84.4657 13.8376V12.3128C84.3472 12.2933 84.2137 12.2836 84.066 12.2836C83.6512 12.2836 83.2665 12.4118 82.9102 12.6683C82.545 12.9548 82.2795 13.3358 82.1107 13.8091H82.0665L82.008 12.4321H80.6152C80.655 13.1131 80.6752 13.8683 80.6752 14.6971L80.6602 19.6283H82.2585V15.8521C82.2585 15.2798 82.392 14.8058 82.6582 14.4308C82.9642 14.0056 83.3992 13.7926 83.9617 13.7926ZM90.0921 15.2746C90.1026 14.8006 89.9984 14.3911 89.7816 14.0446C89.5049 13.6006 89.0797 13.3786 88.5074 13.3786C87.9846 13.3786 87.5594 13.5953 87.2346 14.0303C86.9684 14.3761 86.8102 14.7901 86.7614 15.2738H90.0921V15.2746ZM91.5584 16.4146C91.5981 16.2173 91.6169 15.9758 91.6169 15.6893C91.6169 14.7908 91.4046 14.0356 90.9824 13.4243C90.4491 12.6548 89.6639 12.2701 88.6266 12.2701C87.5706 12.2701 86.7314 12.6548 86.1104 13.4243C85.5171 14.1451 85.2209 15.0488 85.2209 16.1341C85.2209 17.2396 85.5396 18.1208 86.1756 18.7771C86.8131 19.4333 87.6891 19.7611 88.8051 19.7611C89.7329 19.7611 90.5369 19.6141 91.2179 19.3171L90.9674 18.2071C90.3846 18.4343 89.7366 18.5476 89.0264 18.5476C88.3844 18.5476 87.8616 18.3796 87.4574 18.0436C87.0119 17.6686 86.7801 17.1256 86.7614 16.4146H91.5584Z" fill="white"/>
</svg>
