<svg width="102" height="30" viewBox="0 0 102 30" fill="none" xmlns="http://www.w3.org/2000/svg">
    <path d="M97.5 0H3.75C1.6875 0 0 1.6875 0 3.75V26.25C0 28.3125 1.6875 30 3.75 30H97.5C99.5625 30 101.25 28.3125 101.25 26.25V3.75C101.25 1.6875 99.5625 0 97.5 0Z" fill="#4B4B4B"/>
    <path fill-rule="evenodd" clip-rule="evenodd" d="M35.8078 15.6457V14.2927H40.3625C40.4113 14.5342 40.4353 14.8244 40.4353 15.1379C40.4353 16.1534 40.157 17.4097 39.263 18.3037C38.393 19.2097 37.2815 19.6934 35.8078 19.6934C33.077 19.6934 30.7812 17.4697 30.7812 14.7397C30.7812 12.0089 33.077 9.78516 35.8078 9.78516C37.3183 9.78516 38.393 10.3777 39.203 11.1509L38.2483 12.1057C37.6685 11.5619 36.8833 11.1389 35.8078 11.1389C33.8135 11.1389 32.255 12.7462 32.255 14.7397C32.255 16.7332 33.8135 18.3404 35.8078 18.3404C37.1 18.3404 37.8373 17.8207 38.309 17.3489C38.6953 16.9627 38.9495 16.4069 39.0463 15.6457H35.8078ZM73.001 10.1242H76.3542C77.9053 10.1242 79.43 11.2469 79.43 13.0357C79.43 14.8252 77.9053 15.9479 76.3542 15.9479H74.3997V19.4999H73.001V10.1242ZM81.6012 19.4999H80.2025V10.1242H81.6012V19.4999ZM91.2028 17.5664L92.807 13.5014H94.3633L90.515 22.3432H89.0555L90.4798 19.1827L87.983 13.5014H89.4897L91.1548 17.5664H91.2028ZM84.8698 18.4349C84.4123 18.4349 83.7725 18.2054 83.7725 17.6392C83.7725 16.9154 84.569 16.6379 85.2567 16.6379C85.871 16.6379 86.1612 16.7707 86.5347 16.9514C86.426 17.8199 85.6782 18.4349 84.8698 18.4349ZM82.5425 14.7322C82.9767 13.7429 84.026 13.2967 85.0392 13.2967C86.6427 13.2967 87.8862 14.2252 87.8862 15.8902V19.4842H86.5348V18.7604H86.486C86.1613 19.2554 85.6415 19.6777 84.7018 19.6777C83.471 19.6777 82.373 18.8692 82.373 17.6144C82.373 16.2397 83.7358 15.5039 85.0753 15.5039C85.7383 15.5039 86.2812 15.7207 86.5348 15.8654V15.7687C86.5228 14.9969 85.787 14.5627 85.0633 14.5627C84.545 14.5627 84.05 14.7322 83.7845 15.2504L82.5425 14.7322ZM76.3903 14.6429H74.3997V11.4292H76.3903C77.4365 11.4292 78.0305 12.2954 78.0305 13.0357C78.0305 13.7624 77.4365 14.6429 76.3903 14.6429ZM58.0685 18.4372C57.1017 18.4372 56.2925 17.6272 56.2925 16.5157C56.2925 15.3914 57.1017 14.5702 58.0685 14.5702C59.0225 14.5702 59.7717 15.3914 59.7717 16.5157C59.7717 17.6272 59.0225 18.4372 58.0685 18.4372ZM59.627 14.0264H59.675V13.5067H61.0048V19.2344C61.0048 21.5902 59.615 22.5569 57.9718 22.5569C56.4245 22.5569 55.4945 21.5174 55.1443 20.6722L56.3645 20.1644C56.582 20.6842 57.1138 21.2999 57.9718 21.2999C59.0225 21.2999 59.675 20.6482 59.675 19.4272V18.9689H59.627C59.3128 19.3552 58.7083 19.6934 57.9478 19.6934C56.3525 19.6934 54.8908 18.3037 54.8908 16.5157C54.8908 14.7157 56.3525 13.3132 57.9478 13.3132C58.7083 13.3132 59.3128 13.6522 59.627 14.0264ZM61.9715 19.4999H63.3725V10.1242H61.9715V19.4999ZM67.1068 14.5462C66.3935 14.5462 65.4028 15.1739 65.4388 16.4069L68.291 15.2227C68.1335 14.8244 67.6625 14.5462 67.1068 14.5462ZM69.7887 15.3434C69.5225 14.6309 68.7132 13.3132 67.058 13.3132C65.4147 13.3132 64.049 14.6069 64.049 16.5037C64.049 18.2917 65.4027 19.6934 67.2147 19.6934C68.6765 19.6934 69.5225 18.7994 69.8735 18.2797L68.786 17.5544C68.423 18.0862 67.928 18.4372 67.2147 18.4372C66.5023 18.4372 65.9945 18.1102 65.669 17.4697L69.9335 15.7057L69.7887 15.3434ZM44.1163 18.4372C43.1502 18.4372 42.3162 17.6392 42.3162 16.5037C42.3162 15.3554 43.1502 14.5702 44.1163 14.5702C45.083 14.5702 45.917 15.3554 45.917 16.5037C45.917 17.6392 45.083 18.4372 44.1163 18.4372ZM40.9145 16.5037C40.9145 14.6549 42.3523 13.3132 44.1163 13.3132C45.881 13.3132 47.3188 14.6549 47.3188 16.5037C47.3188 18.3404 45.881 19.6934 44.1163 19.6934C42.3523 19.6934 40.9145 18.3404 40.9145 16.5037ZM51.1018 18.4372C50.135 18.4372 49.301 17.6392 49.301 16.5037C49.301 15.3554 50.135 14.5702 51.1018 14.5702C52.0685 14.5702 52.9018 15.3554 52.9018 16.5037C52.9018 17.6392 52.0685 18.4372 51.1018 18.4372ZM47.9 16.5037C47.9 14.6549 49.3377 13.3132 51.1017 13.3132C52.8657 13.3132 54.3035 14.6549 54.3035 16.5037C54.3035 18.3404 52.8657 19.6934 51.1017 19.6934C49.3377 19.6934 47.9 18.3404 47.9 16.5037Z" fill="white"/>
    <path d="M7.82697 5.66045C7.60872 5.89145 7.48047 6.2492 7.48047 6.71345V23.2862C7.48047 23.7504 7.60872 24.1089 7.82697 24.3392L7.88247 24.3939L17.1667 15.1097V15.0002V14.8907L7.88247 5.60645L7.82697 5.66045Z" fill="white"/>
    <path d="M17.166 14.8899V14.9994V15.1089L20.2598 18.2042L20.331 18.1644L23.9978 16.0809C25.0448 15.4862 25.0448 14.5119 23.9978 13.9179L20.331 11.8344L20.2605 11.7939L17.166 14.8899Z" fill="white"/>
    <path fill-rule="evenodd" clip-rule="evenodd" d="M20.3309 11.8348L17.1659 14.9998L7.82617 5.66005C8.00992 5.46655 8.25592 5.3623 8.54317 5.3623C8.79667 5.3623 9.08242 5.4433 9.38392 5.61505L20.3309 11.8348ZM17.1659 14.9998L7.82617 24.3396C8.17117 24.7048 8.74117 24.7498 9.38392 24.3853L20.3309 18.1648L17.1659 14.9998Z" fill="white"/>
    <path d="M20.3309 11.8348L20.6845 12.1884L21.1485 11.7243L20.5779 11.4001L20.3309 11.8348ZM7.82617 5.66005L7.4636 5.31575L7.12808 5.66907L7.47262 6.01361L7.82617 5.66005ZM9.38392 5.61505L9.13643 6.04951L9.13692 6.04979L9.38392 5.61505ZM7.82617 24.3396L7.47262 23.986L7.129 24.3296L7.46269 24.6829L7.82617 24.3396ZM9.38392 24.3853L9.63057 24.8202L9.63094 24.82L9.38392 24.3853ZM20.3309 18.1648L20.5779 18.5995L21.1485 18.2753L20.6845 17.8113L20.3309 18.1648ZM17.5195 15.3534L20.6845 12.1884L19.9774 11.4813L16.8124 14.6463L17.5195 15.3534ZM7.47262 6.01361L16.8124 15.3534L17.5195 14.6463L8.17973 5.3065L7.47262 6.01361ZM8.54317 4.8623C8.12629 4.8623 7.74677 5.01756 7.4636 5.31575L8.18874 6.00436C8.27307 5.91555 8.38555 5.8623 8.54317 5.8623V4.8623ZM9.63141 5.1806C9.27291 4.97638 8.90244 4.8623 8.54317 4.8623V5.8623C8.6909 5.8623 8.89193 5.91023 9.13643 6.04951L9.63141 5.1806ZM20.5779 11.4001L9.63092 5.18032L9.13692 6.04979L20.0839 12.2695L20.5779 11.4001ZM16.8124 14.6463L7.47262 23.986L8.17973 24.6931L17.5195 15.3534L16.8124 14.6463ZM7.46269 24.6829C8.02331 25.2764 8.87116 25.2509 9.63057 24.8202L9.13727 23.9504C8.61118 24.2487 8.31903 24.1332 8.18966 23.9962L7.46269 24.6829ZM9.63094 24.82L20.5779 18.5995L20.0839 17.7301L9.1369 23.9506L9.63094 24.82ZM20.6845 17.8113L17.5195 14.6463L16.8124 15.3534L19.9774 18.5184L20.6845 17.8113Z" fill="#4B4B4B"/>
</svg>
