<svg width="72" height="20" fill="none" xmlns="http://www.w3.org/2000/svg"><path fill-rule="evenodd" clip-rule="evenodd" d="M3.175 19.604c.103 0 .188-.08.188-.183V.498a.188.188 0 00-.188-.186L.52.318a.186.186 0 00-.187.185v18.919c0 .104.084.182.187.182h2.655zm8.362-14.076C9.808 7.475 8.114 9.382 7.6 9.958c.537.585 2.735 2.992 4.772 5.223l.002.002c1.932 2.116 3.718 4.073 3.806 4.167.078.084-.013.255-.112.255H12.6c-.092 0-.18-.068-.26-.165l-7.26-8.234V8.715L12.34.48c.08-.097.168-.164.26-.164h3.226c.103 0 .192.166.118.256-.1.109-2.28 2.562-4.407 4.956zm16.098 1.475c-1.165-1.287-2.7-1.892-4.724-1.892-2.083 0-3.634.616-4.81 1.938-1.182 1.327-1.784 3.158-1.784 5.487 0 2.354.602 4.207 1.762 5.552C19.254 19.434 20.786 20 22.836 20c1.625 0 2.989-.338 4.149-1.24 1.137-.878 1.843-2.02 2.136-3.435l.004.004v-.011-.003c.012-.122-.114-.122-.114-.122h-2.63c-.187.725-.56 1.391-1.112 1.8-.557.403-1.439.649-2.246.649-1.14 0-2.162-.395-2.788-1.104-.628-.705-1.096-1.817-1.067-3.137h9.858c.204 0 .29-.122.302-.286.033-.44.035-.563.035-.756 0-2.27-.576-4.057-1.728-5.356zm-7.358 1.432c-.588.629-1.007 1.616-1.103 2.789h7.336c-.007-1.15-.376-2.129-.959-2.771-.59-.628-1.642-.989-2.715-.989-1.024 0-1.975.361-2.559.971zm14.46 10.986a.185.185 0 01-.189.183h-2.471a.184.184 0 01-.19-.183V.498c0-.097.082-.18.19-.18h2.471c.103 0 .188.083.188.18v18.923zm26.744.183c.104 0 .186-.08.186-.183V.509a.187.187 0 00-.186-.191h-2.474a.187.187 0 00-.187.191v18.912c0 .103.082.183.187.183h2.474zm3.95-7.245c.818-.954 2.42-2.862 3.7-4.387a283.155 283.155 0 011.892-2.244c.078-.081-.014-.257-.114-.257h-2.752c-.09 0-.178.069-.261.165l-4.51 5.475v2.495l4.75 5.828c.08.1.168.166.257.166h2.99c.102 0 .193-.17.114-.254-.177-.193-2.405-2.628-6.066-6.987zm-9.608 7.245c.104 0 .186-.08.186-.183V5.67a.186.186 0 00-.186-.188h-2.474a.189.189 0 00-.188.188v13.75c0 .104.085.184.188.184h2.474zm.186-16.592a.184.184 0 01-.186.184h-2.474a.186.186 0 01-.188-.184V.509c0-.107.085-.19.188-.19h2.474c.104 0 .186.083.186.19v2.503zM37.546 11.53c0-6.421 4.758-6.421 6.48-6.421 1.755 0 6.325 0 6.325 6.42v7.892a.185.185 0 01-.188.183H47.68a.184.184 0 01-.185-.183V11.22c0-3.642-2.587-3.666-3.545-3.666h-.022c-.998 0-3.525 0-3.525 3.668l.004 8.199a.184.184 0 01-.187.183h-2.488a.184.184 0 01-.186-.183V11.53z" fill="#0B1739"/></svg>