<svg width="171" height="18" fill="none" xmlns="http://www.w3.org/2000/svg"><path fill-rule="evenodd" clip-rule="evenodd" d="M78.899 15.563c1.126.625 2.387.937 3.783.937 1.133 0 2.17-.201 3.112-.604a6.316 6.316 0 002.38-1.752l-1.659-1.611c-1.001 1.114-2.233 1.671-3.694 1.671-.949 0-1.798-.211-2.549-.634a4.524 4.524 0 01-1.758-1.762c-.422-.752-.632-1.605-.632-2.558 0-.953.21-1.806.632-2.558a4.525 4.525 0 011.758-1.762c.75-.423 1.6-.634 2.549-.634 1.462 0 2.693.55 3.694 1.651l1.66-1.59a6.334 6.334 0 00-2.371-1.753C84.869 2.201 83.834 2 82.702 2c-1.396 0-2.657.312-3.783.936a6.902 6.902 0 00-2.657 2.588c-.646 1.101-.969 2.343-.969 3.726s.32 2.625.959 3.726a6.832 6.832 0 002.647 2.587zm-6.43.736V2.2h-2.55v9.546l-7.625-9.546H60.18V16.3h2.549V6.753l7.626 9.546h2.113zm33.269-7.21h2.43v5.619a7.68 7.68 0 01-2.49 1.329 9.384 9.384 0 01-2.924.463c-1.409 0-2.68-.312-3.813-.937a6.884 6.884 0 01-2.667-2.587c-.645-1.101-.968-2.343-.968-3.726s.323-2.625.968-3.726a6.865 6.865 0 012.677-2.588c1.14-.624 2.421-.936 3.843-.936 1.159 0 2.213.195 3.161.584.948.39 1.745.96 2.39 1.712l-1.62 1.61c-1.053-1.073-2.324-1.61-3.813-1.61-.974 0-1.84.208-2.597.624-.758.416-1.35 1-1.778 1.752-.428.752-.643 1.611-.643 2.578 0 .94.215 1.786.642 2.537a4.644 4.644 0 001.779 1.773c.757.43 1.616.644 2.578.644 1.08 0 2.028-.242 2.845-.725V9.09zm12.13 3.081l2.825 4.129h2.766l-3.181-4.632c.948-.376 1.676-.947 2.183-1.712.507-.765.761-1.678.761-2.739 0-1.034-.237-1.927-.712-2.679-.474-.751-1.155-1.329-2.044-1.731-.889-.403-1.933-.605-3.132-.605h-5.689V16.3h2.568V12.19h3.121c.237 0 .415-.006.534-.02zm2.766-4.954c0-.9-.29-1.591-.87-2.074-.579-.484-1.429-.725-2.548-.725h-3.003v5.618h3.003c1.119 0 1.969-.245 2.548-.735.58-.49.87-1.184.87-2.084zm8.198 8.348c1.133.624 2.404.936 3.813.936 1.41 0 2.681-.312 3.813-.937a6.879 6.879 0 002.667-2.587c.646-1.101.968-2.343.968-3.726s-.322-2.625-.968-3.726a6.878 6.878 0 00-2.667-2.588c-1.132-.624-2.403-.936-3.813-.936-1.409 0-2.68.312-3.813.936a6.87 6.87 0 00-2.667 2.598c-.645 1.108-.968 2.347-.968 3.716 0 1.37.323 2.608.968 3.716a6.87 6.87 0 002.667 2.598zm3.813-1.36c.922 0 1.752-.211 2.49-.634a4.545 4.545 0 001.738-1.772c.422-.759.632-1.608.632-2.548s-.21-1.789-.632-2.548a4.545 4.545 0 00-1.738-1.772c-.738-.423-1.568-.634-2.49-.634-.922 0-1.751.211-2.489.634a4.538 4.538 0 00-1.738 1.772c-.422.759-.633 1.608-.633 2.548s.211 1.789.633 2.548c.421.758 1 1.349 1.738 1.772.738.423 1.567.634 2.489.634zm11.755.655c1.067 1.094 2.555 1.641 4.465 1.641 1.91 0 3.395-.547 4.455-1.641 1.06-1.095 1.59-2.662 1.59-4.703V2.201h-2.528v7.855c0 2.765-1.166 4.148-3.497 4.148-2.345 0-3.517-1.383-3.517-4.148V2.2H142.8v7.955c0 2.041.533 3.608 1.6 4.703zM164.294 2.2c1.199 0 2.243.202 3.132.605.889.402 1.57.98 2.045 1.731.474.752.711 1.645.711 2.679 0 1.02-.237 1.91-.711 2.668-.475.759-1.156 1.34-2.045 1.742-.889.403-1.933.605-3.132.605h-3.121v4.068h-2.568V2.2h5.689zm2.43 7.09c-.579.483-1.429.724-2.548.724h-3.003V4.417h3.003c1.119 0 1.969.241 2.548.725.58.483.87 1.174.87 2.074 0 .9-.29 1.591-.87 2.074z" fill="#0B1739"/><path fill-rule="evenodd" clip-rule="evenodd" d="M27.186 17.5c-1.718 0-3.266-.36-4.643-1.08-1.378-.72-2.457-1.726-3.24-3.019a8.033 8.033 0 01-1.075-3.03h5.597c.168.62.46 1.15.877 1.59.696.736 1.617 1.103 2.762 1.103 1.362 0 2.546-.635 3.552-1.904l3.46 3.089a7.841 7.841 0 01-3.065 2.415c-1.238.557-2.647.836-4.225.836zm-3.452-9.452c.137-.803.46-1.473.968-2.01.696-.735 1.617-1.102 2.762-1.102 1.362 0 2.546.635 3.552 1.904l3.46-3.089a7.843 7.843 0 00-3.065-2.415C30.173.78 28.764.5 27.186.5c-1.718 0-3.266.36-4.643 1.08-1.378.72-2.457 1.726-3.24 3.019a8.107 8.107 0 00-1.126 3.449h5.557zm-7.715 0V.872h-5.34v7.176h5.34zm0 2.322H5.759l5.756 6.758h4.504V10.37zm-10.794 0v6.758H0V.872h4.504l6 7.176h-5.28v2.322h.001zm35.55-2.322c.139-.815.47-1.488.99-2.02.712-.728 1.672-1.092 2.879-1.092 1.408 0 2.623.596 3.645 1.788l3.505-3.089a8.046 8.046 0 00-3.145-2.334C47.387.767 45.959.5 44.365.5c-1.764 0-3.346.36-4.747 1.08-1.4.72-2.492 1.726-3.274 3.019a8.107 8.107 0 00-1.126 3.449h5.556zm.096 2.322H35.27a8.033 8.033 0 001.075 3.031c.782 1.293 1.861 2.3 3.239 3.02 1.377.719 2.933 1.079 4.666 1.079 1.223 0 2.469-.178 3.738-.534 1.27-.356 2.384-.867 3.343-1.533V10.37h-4.76v2.3a5.16 5.16 0 01-1.996.394c-1.176 0-2.116-.371-2.82-1.114a3.695 3.695 0 01-.883-1.58z" fill="#3EB57C"/></svg>