<svg width="24" height="24" viewBox="0 0 24 24" fill="none" xmlns="http://www.w3.org/2000/svg">
<rect x="3" y="3" width="18" height="18" rx="2" stroke="#3EB57C" stroke-width="2" stroke-linecap="round" stroke-linejoin="round"/>
<path d="M9 7H12.2941C13.5843 7 14.5222 7.28571 15.1078 7.85714C15.7026 8.41905 16 9.23333 16 10.3C16 11.3 15.6889 12.1 15.0667 12.7C14.4444 13.3 13.5203 13.6 12.2941 13.6H10.6471V17H9V7ZM10.6471 8.51429V12.0857H12.2941C12.9529 12.0857 13.4471 11.9238 13.7765 11.6C14.1059 11.2762 14.2706 10.8429 14.2706 10.3C14.2706 9.72857 14.1105 9.29048 13.7902 8.98571C13.4791 8.67143 12.9804 8.51429 12.2941 8.51429H10.6471Z" fill="#3EB57C"/>
</svg>
