<svg width="56" height="56" viewBox="0 0 56 56" fill="none" xmlns="http://www.w3.org/2000/svg">
<g opacity="0.8" filter="url(#filter0_d)">
<path fill-rule="evenodd" clip-rule="evenodd" d="M28 46C39.0457 46 48 37.0457 48 26C48 14.9543 39.0457 6 28 6C16.9543 6 8 14.9543 8 26C8 37.0457 16.9543 46 28 46Z" fill="white"/>
</g>
<path d="M36.9556 16.9551L30.2381 23.6726M30.2381 23.6726H34.4807M30.2381 23.6726V19.43" stroke="black"/>
<path d="M36.9541 34.865L30.2366 28.1475M30.2366 28.1475L30.2366 32.3901M30.2366 28.1475L34.4792 28.1475" stroke="black"/>
<path d="M19.0444 34.865L25.7619 28.1474M25.7619 28.1474L21.5193 28.1474M25.7619 28.1474L25.7619 32.3901" stroke="black"/>
<path d="M19.044 16.9551L25.7615 23.6726M25.7615 23.6726L25.7615 19.4299M25.7615 23.6726L21.5189 23.6726" stroke="black"/>
<defs>
<filter id="filter0_d" x="0" y="0" width="56" height="56" filterUnits="userSpaceOnUse" color-interpolation-filters="sRGB">
<feFlood flood-opacity="0" result="BackgroundImageFix"/>
<feColorMatrix in="SourceAlpha" type="matrix" values="0 0 0 0 0 0 0 0 0 0 0 0 0 0 0 0 0 0 127 0"/>
<feOffset dy="2"/>
<feGaussianBlur stdDeviation="4"/>
<feColorMatrix type="matrix" values="0 0 0 0 0.0431373 0 0 0 0 0.0901961 0 0 0 0 0.223529 0 0 0 0.1 0"/>
<feBlend mode="normal" in2="BackgroundImageFix" result="effect1_dropShadow"/>
<feBlend mode="normal" in="SourceGraphic" in2="effect1_dropShadow" result="shape"/>
</filter>
</defs>
</svg>
