<svg width="171" height="18" viewBox="0 0 171 18" fill="none" xmlns="http://www.w3.org/2000/svg">
    <path fill-rule="evenodd" clip-rule="evenodd" d="M78.899 15.5635C80.0251 16.1878 81.2862 16.5 82.6823 16.5C83.815 16.5 84.8522 16.2986 85.7939 15.8958C86.7356 15.4931 87.5291 14.909 88.1745 14.1438L86.515 12.5326C85.514 13.647 84.2825 14.2042 82.8206 14.2042C81.8723 14.2042 81.0228 13.9927 80.2721 13.5698C79.5213 13.1469 78.9352 12.5595 78.5138 11.8076C78.0923 11.0558 77.8816 10.2032 77.8816 9.25C77.8816 8.29675 78.0923 7.44422 78.5138 6.69236C78.9352 5.94051 79.5213 5.35313 80.2721 4.93021C81.0228 4.50729 81.8723 4.29583 82.8206 4.29583C84.2825 4.29583 85.514 4.84629 86.515 5.94722L88.1745 4.35625C87.5291 3.59097 86.7389 3.00695 85.8038 2.60417C84.8686 2.20139 83.8347 2 82.7021 2C81.306 2 80.0449 2.31215 78.9188 2.93646C77.7927 3.56077 76.9069 4.42337 76.2616 5.52431C75.6162 6.62524 75.2935 7.86712 75.2935 9.25C75.2935 10.6329 75.6129 11.8748 76.2517 12.9757C76.8905 14.0766 77.7729 14.9392 78.899 15.5635ZM72.4684 16.2986V2.20139H69.9199V11.7472L62.2941 2.20139H60.1802V16.2986H62.7287V6.75278L70.3545 16.2986H72.4684ZM105.738 9.08889H108.168V14.7076C107.456 15.285 106.627 15.728 105.678 16.0368C104.73 16.3456 103.755 16.5 102.754 16.5C101.345 16.5 100.074 16.1878 98.9415 15.5635C97.8088 14.9392 96.9198 14.0766 96.2744 12.9757C95.6291 11.8748 95.3064 10.6329 95.3064 9.25C95.3064 7.86712 95.6291 6.62524 96.2744 5.52431C96.9198 4.42337 97.8121 3.56077 98.9514 2.93646C100.091 2.31215 101.372 2 102.794 2C103.953 2 105.007 2.19467 105.955 2.58403C106.903 2.97338 107.7 3.54398 108.345 4.29583L106.725 5.90694C105.672 4.83287 104.401 4.29583 102.912 4.29583C101.938 4.29583 101.072 4.50393 100.315 4.92014C99.5572 5.33634 98.9646 5.92037 98.5365 6.67222C98.1085 7.42408 97.8944 8.28333 97.8944 9.25C97.8944 10.1898 98.1085 11.0356 98.5365 11.7875C98.9646 12.5394 99.5572 13.1301 100.315 13.5597C101.072 13.9894 101.931 14.2042 102.893 14.2042C103.973 14.2042 104.921 13.9625 105.738 13.4792V9.08889ZM117.868 12.1701L120.693 16.2986H123.459L120.278 11.6667C121.226 11.2907 121.954 10.7201 122.461 9.95486C122.968 9.18958 123.222 8.27663 123.222 7.21598C123.222 6.18217 122.985 5.28936 122.51 4.5375C122.036 3.78565 121.355 3.20834 120.466 2.80556C119.577 2.40278 118.533 2.20139 117.334 2.20139H111.645V16.2986H114.213V12.1903H117.334C117.571 12.1903 117.749 12.1836 117.868 12.1701ZM120.634 7.21598C120.634 6.31644 120.344 5.62501 119.764 5.14168C119.185 4.65834 118.335 4.41668 117.216 4.41668H114.213V10.0354H117.216C118.335 10.0354 119.185 9.79041 119.764 9.30036C120.344 8.81031 120.634 8.11552 120.634 7.21598ZM128.832 15.5635C129.965 16.1878 131.236 16.5 132.645 16.5C134.055 16.5 135.326 16.1878 136.458 15.5635C137.591 14.9392 138.48 14.0766 139.125 12.9757C139.771 11.8748 140.093 10.6329 140.093 9.25C140.093 7.86712 139.771 6.62524 139.125 5.52431C138.48 4.42337 137.591 3.56077 136.458 2.93646C135.326 2.31215 134.055 2 132.645 2C131.236 2 129.965 2.31215 128.832 2.93646C127.7 3.56077 126.811 4.42673 126.165 5.53437C125.52 6.64202 125.197 7.88055 125.197 9.25C125.197 10.6195 125.52 11.858 126.165 12.9656C126.811 14.0733 127.7 14.9392 128.832 15.5635ZM132.645 14.2042C133.567 14.2042 134.397 13.9927 135.135 13.5698C135.872 13.1469 136.452 12.5561 136.873 11.7976C137.295 11.039 137.505 10.1898 137.505 9.25C137.505 8.31018 137.295 7.46099 136.873 6.70243C136.452 5.94386 135.872 5.35312 135.135 4.9302C134.397 4.50729 133.567 4.29583 132.645 4.29583C131.723 4.29583 130.894 4.50729 130.156 4.9302C129.418 5.35312 128.839 5.94386 128.418 6.70243C127.996 7.46099 127.785 8.31018 127.785 9.25C127.785 10.1898 127.996 11.039 128.418 11.7976C128.839 12.5561 129.418 13.1469 130.156 13.5698C130.894 13.9927 131.723 14.2042 132.645 14.2042ZM144.4 14.8587C145.467 15.9529 146.955 16.5 148.865 16.5C150.775 16.5 152.26 15.9529 153.32 14.8587C154.38 13.7645 154.91 12.197 154.91 10.1563V2.20139H152.382V10.0556C152.382 12.8213 151.216 14.2042 148.885 14.2042C146.54 14.2042 145.368 12.8213 145.368 10.0556V2.20139H142.8V10.1563C142.8 12.197 143.333 13.7645 144.4 14.8587ZM164.294 2.20139C165.493 2.20139 166.537 2.40278 167.426 2.80556C168.315 3.20834 168.996 3.78565 169.471 4.5375C169.945 5.28936 170.182 6.18217 170.182 7.21598C170.182 8.23635 169.945 9.12581 169.471 9.88438C168.996 10.6429 168.315 11.2236 167.426 11.6264C166.537 12.0292 165.493 12.2306 164.294 12.2306H161.173V16.2986H158.605V2.20139H164.294ZM166.724 9.29029C166.145 9.77362 165.295 10.0153 164.176 10.0153H161.173V4.41668H164.176C165.295 4.41668 166.145 4.65834 166.724 5.14168C167.304 5.62501 167.594 6.31644 167.594 7.21598C167.594 8.11552 167.304 8.80695 166.724 9.29029Z" fill="#0B1739"/>
    <path fill-rule="evenodd" clip-rule="evenodd" d="M27.1857 17.5C25.4677 17.5 23.92 17.14 22.5425 16.4201C21.1651 15.7001 20.0855 14.6938 19.3039 13.401C18.7467 12.4792 18.3881 11.469 18.2281 10.3702H23.8253C23.9927 10.9906 24.2848 11.5209 24.7016 11.9611C25.3981 12.6965 26.319 13.0642 27.4643 13.0642C28.8263 13.0642 30.0103 12.4294 31.0163 11.1598L34.4755 14.2486C33.6707 15.3015 32.6492 16.1066 31.411 16.6639C30.1728 17.2213 28.7644 17.5 27.1857 17.5ZM23.7337 8.04781C23.8714 7.24454 24.194 6.57492 24.7016 6.03893C25.3981 5.3035 26.319 4.93579 27.4643 4.93579C28.8263 4.93579 30.0103 5.57058 31.0163 6.84016L34.4755 3.75137C33.6707 2.69854 32.6492 1.89345 31.411 1.33607C30.1728 0.778686 28.7644 0.5 27.1857 0.5C25.4677 0.5 23.92 0.859969 22.5425 1.57992C21.1651 2.29987 20.0855 3.30623 19.3039 4.59904C18.6767 5.63648 18.3012 6.78606 18.1773 8.04781H23.7337ZM16.0189 8.04781V0.871587H10.6793V8.04781H16.0189ZM16.0189 10.3702H5.75946L11.515 17.1284H16.0189V10.3702ZM5.22545 10.3702V17.1284H0V0.871587H4.50387L10.5045 8.04781H5.22356V10.3702H5.22545ZM40.7741 8.04781C40.9138 7.23335 41.2442 6.55986 41.7652 6.02732C42.4772 5.29963 43.4368 4.93579 44.644 4.93579C46.0524 4.93579 47.2674 5.53187 48.2889 6.72404L51.7945 3.63525C50.9587 2.61338 49.9101 1.83539 48.6487 1.30123C47.3873 0.767074 45.9596 0.5 44.3654 0.5C42.601 0.5 41.0185 0.859969 39.6178 1.57992C38.2171 2.29987 37.1259 3.30623 36.3443 4.59904C35.7171 5.63648 35.3416 6.78606 35.2177 8.04781H40.7741ZM40.8712 10.3702H35.2685C35.4285 11.469 35.7871 12.4792 36.3443 13.401C37.1259 14.6938 38.2055 15.7001 39.5829 16.4201C40.9604 17.14 42.5159 17.5 44.2493 17.5C45.472 17.5 46.7179 17.322 47.9871 16.9658C49.2562 16.6097 50.3706 16.0988 51.3301 15.4331V10.3702H46.5709V12.6694C45.9363 12.9326 45.2708 13.0642 44.5743 13.0642C43.3981 13.0642 42.4578 12.6926 41.7536 11.9495C41.3351 11.5078 41.041 10.9814 40.8712 10.3702Z" fill="#3EB57C"/>
</svg>
