<svg width="12" height="17" viewBox="0 0 12 17" fill="none" xmlns="http://www.w3.org/2000/svg">
    <path fill-rule="evenodd" clip-rule="evenodd" d="M0 6.58C0 3.22736 2.69147 0.5 6 0.5C9.30853 0.5 12 3.22736 12 6.58C12 10.5328 7.25288 15.3573 6.36824 16.2563C6.29809 16.3276 6.25223 16.3742 6.23495 16.3938C6.17526 16.4613 6.08968 16.5 6 16.5C5.91032 16.5 5.82474 16.4613 5.76505 16.3938C5.74782 16.3743 5.70228 16.328 5.63266 16.2573C4.75028 15.3608 0 10.5342 0 6.58ZM3 6.5C3 4.846 4.346 3.5 6 3.5C7.65433 3.5 9 4.846 9 6.5C9 8.154 7.65433 9.5 6 9.5C4.346 9.5 3 8.154 3 6.5Z"/>
</svg>
