<svg width="32" height="33" fill="none" xmlns="http://www.w3.org/2000/svg"><rect y=".5" width="32" height="32" rx="16" fill="#4367AF"/><path fill-rule="evenodd" clip-rule="evenodd" d="M13.91 20.495v-3.75c0-.22-.06-.28-.27-.27h-1.16c-.16 0-.22 0-.22-.2v-2.35c0-.15.05-.2.2-.19h1.2c.23 0 .28-.07.27-.28v-1.79c0-.718.228-1.418.65-2a2.75 2.75 0 012.22-1.17h2.77c.13 0 .17 0 .17.17v2.37c0 .14 0 .19-.19.18h-1.33a.88.88 0 00-1 .89v1.41c0 .17.1.16.21.16h2c.2 0 .27.05.24.26-.08.78-.15 1.57-.22 2.35 0 .18-.1.22-.26.21h-1.6c-.38 0-.34-.05-.34.34v7.35c0 .26-.06.32-.32.32h-2.74c-.26 0-.3-.08-.3-.31.03-1.25.02-2.48.02-3.7z" fill="#fff"/></svg>