<svg width="32" height="33" fill="none" xmlns="http://www.w3.org/2000/svg"><rect y=".5" width="32" height="32" rx="16" fill="url(#paint0_radial)"/><rect y=".5" width="32" height="32" rx="16" fill="url(#paint1_linear)"/><path d="M15.975 9.915c2.14 0 2.39 0 3.23.05a4.33 4.33 0 011.49.27 2.669 2.669 0 011.52 1.52c.177.477.268.981.27 1.49v6.46a4.33 4.33 0 01-.27 1.49 2.669 2.669 0 01-1.52 1.52 4.33 4.33 0 01-1.49.27h-6.46a4.331 4.331 0 01-1.49-.27 2.669 2.669 0 01-1.52-1.52 4.33 4.33 0 01-.27-1.49c0-.84-.05-1.09-.05-3.23 0-2.14 0-2.39.05-3.23a4.33 4.33 0 01.27-1.49 2.668 2.668 0 011.52-1.52 4.33 4.33 0 011.49-.27c.84 0 1.09-.05 3.23-.05zm0-1.44c-2.17 0-2.45 0-3.3.05a5.85 5.85 0 00-1.94.37 4 4 0 00-2.34 2.34 5.85 5.85 0 00-.37 1.94c-.05.85-.05 1.13-.05 3.3s0 2.45.05 3.3a5.85 5.85 0 00.37 1.94 4 4 0 002.34 2.34 5.85 5.85 0 001.94.42c.85 0 1.13.05 3.3.05s2.45 0 3.3-.05a5.85 5.85 0 001.94-.37 4 4 0 002.34-2.34 5.85 5.85 0 00.42-1.99c0-.85.05-1.13.05-3.3s0-2.45-.05-3.3a5.85 5.85 0 00-.37-1.94 4 4 0 00-2.34-2.34 5.85 5.85 0 00-1.94-.37c-.9-.05-1.18-.05-3.35-.05z" fill="#fff"/><path d="M15.975 12.365a4.11 4.11 0 100 8.22 4.11 4.11 0 000-8.22zm0 6.78a2.67 2.67 0 112.67-2.67 2.68 2.68 0 01-2.67 2.67zM20.245 13.165a.96.96 0 100-1.92.96.96 0 000 1.92z" fill="#fff"/><defs><radialGradient id="paint0_radial" cx="0" cy="0" r="1" gradientUnits="userSpaceOnUse" gradientTransform="rotate(-54.599 37.2 9.385) scale(41.43)"><stop stop-color="#FFE8A9"/><stop offset=".176" stop-color="#FEC662"/><stop offset=".362" stop-color="#F67132"/><stop offset=".558" stop-color="#DC2D78"/><stop offset="1" stop-color="#9339C1"/></radialGradient><linearGradient id="paint1_linear" x1="11.016" y1=".5" x2="19.672" y2="32.107" gradientUnits="userSpaceOnUse"><stop offset=".011" stop-color="#4968D6"/><stop offset=".266" stop-color="#4968D6" stop-opacity="0"/></linearGradient></defs></svg>