<svg width="32" height="33" fill="none" xmlns="http://www.w3.org/2000/svg"><rect y=".5" width="32" height="32" rx="16" fill="#EE820A"/><path d="M15.21 19.77a6.25 6.25 0 01-3.31-1.18c-.12-.1-.25-.19-.35-.29a1 1 0 011.12-1.62c.099.044.192.097.28.16a5.43 5.43 0 006 .06c.174-.142.375-.247.59-.31a.93.93 0 011.06.42.9.9 0 01-.07 1.18 4.709 4.709 0 01-1.75 1.13 7.879 7.879 0 01-2 .45l.21.23 2.77 2.77a.91.91 0 01.2 1.08 1.081 1.081 0 01-.96.65 1 1 0 01-.65-.33c-.69-.7-1.4-1.39-2.08-2.1-.2-.21-.3-.17-.47 0-.7.72-1.41 1.43-2.13 2.14a.89.89 0 01-1.07.19 1.08 1.08 0 01-.63-1 1 1 0 01.34-.68L15 19.99l.21-.22z" fill="#fff"/><path d="M16 16.6a4.05 4.05 0 114.07-4 4.06 4.06 0 01-4.07 4zm2-4.05a2 2 0 10-4 0 2 2 0 004 0z" fill="#fff"/></svg>