<svg width="32" height="33" fill="none" xmlns="http://www.w3.org/2000/svg"><rect y=".5" width="32" height="32" rx="16" fill="#1EA9E1"/><path d="M16 21.31c-2.67 0-3.89-1.35-3.89-2.34a.86.86 0 01.91-.86c1.14 0 .85 1.7 3 1.7 1.09 0 1.73-.65 1.73-1.27 0-.36-.21-.77-.93-.95l-2.38-.6c-1.9-.49-2.24-1.55-2.24-2.49 0-2 1.88-2.77 3.66-2.77 1.78 0 3.6.9 3.6 2.12a.841.841 0 01-.95.81c-1 0-.82-1.36-2.78-1.36-1 0-1.49.45-1.49 1.09 0 .64.75.85 1.42 1l1.76.39c1.93.43 2.44 1.56 2.44 2.63 0 1.65-1.29 2.93-3.83 2.93l-.03-.03zm7.41-3.47A7.53 7.53 0 0016 8.97c-.44 0-.878.04-1.31.12a4.38 4.38 0 00-2.22-.59A4.47 4.47 0 008 12.97c-.004.78.2 1.546.59 2.22-.08.432-.12.87-.12 1.31A7.53 7.53 0 0016 24.03c.44 0 .878-.04 1.31-.12a4.38 4.38 0 002.22.59A4.47 4.47 0 0024 20.03a4.38 4.38 0 00-.59-2.22" fill="#fff"/></svg>