<svg width="32" height="33" fill="none" xmlns="http://www.w3.org/2000/svg"><g clip-path="url(#clip0)"><path d="M16 32.5c8.837 0 16-7.163 16-16S24.837.5 16 .5 0 7.663 0 16.5s7.163 16 16 16z" fill="url(#paint0_linear)"/><path fill-rule="evenodd" clip-rule="evenodd" d="M7.243 16.331c4.664-2.032 7.774-3.372 9.33-4.02 4.444-1.847 5.367-2.168 5.969-2.179.132-.002.428.03.62.186a.674.674 0 01.228.433c.02.125.047.409.026.63-.24 2.53-1.282 8.67-1.812 11.503-.225 1.2-.666 1.601-1.094 1.64-.929.086-1.635-.613-2.535-1.203-1.408-.923-2.203-1.498-3.57-2.399-1.58-1.04-.556-1.613.344-2.548.236-.244 4.33-3.968 4.41-4.306.009-.042.018-.2-.075-.283-.094-.083-.232-.055-.332-.032-.14.032-2.39 1.519-6.748 4.46-.639.44-1.217.653-1.736.642-.57-.013-1.67-.323-2.487-.589-1.002-.326-1.798-.498-1.729-1.05.036-.29.433-.584 1.19-.885z" fill="#fff"/></g><defs><linearGradient id="paint0_linear" x1="16" y1=".5" x2="16" y2="32.263" gradientUnits="userSpaceOnUse"><stop stop-color="#2AABEE"/><stop offset="1" stop-color="#229ED9"/></linearGradient><clipPath id="clip0"><path fill="#fff" transform="translate(0 .5)" d="M0 0h32v32H0z"/></clipPath></defs></svg>