<svg width="32" height="33" fill="none" xmlns="http://www.w3.org/2000/svg"><rect y=".5" width="32" height="32" rx="16" fill="#675DA6"/><path d="M21.87 10.06c-.39-.36-2-1.56-5.58-1.56 0 0-4.22-.25-6.28 1.63-1.14 1.15-1.55 2.83-1.59 4.9-.04 2.07-.1 6 3.66 7v1.61s0 .66.41.79.82-.33 1.32-.87c.27-.29.64-.73.93-1.05 1.595.143 3.203.025 4.76-.35a4.7 4.7 0 003.93-4.44c.49-3.97-.24-6.51-1.56-7.66zm.44 7.44a3.72 3.72 0 01-3.22 3.6 13.44 13.44 0 01-4.1.35s-1.63 1.95-2.13 2.47a.29.29 0 01-.24.09c-.09 0-.11-.12-.11-.27v-2.68c-3.17-.88-3-4.2-2.95-5.93a5.73 5.73 0 011.33-4.12c1.74-1.57 5.33-1.34 5.33-1.34 3 0 4.47.93 4.81 1.23 1.13.93 1.69 3.22 1.28 6.6z" fill="#fff"/><path d="M16.56 13.5a.21.21 0 00-.21.19.21.21 0 00.19.22 1 1 0 011 1.06.21.21 0 00.2.19.22.22 0 00.2-.21 1.368 1.368 0 00-1.38-1.45z" fill="#fff"/><path d="M18.8 15.5a.2.2 0 00.2-.2 2.77 2.77 0 00-.71-2 2.93 2.93 0 00-2-.89.199.199 0 00-.22.19.2.2 0 00.19.21 2.53 2.53 0 011.76.77 2.331 2.331 0 01.61 1.71.21.21 0 00.17.21z" fill="#fff"/><path d="M15.89 11.37a.2.2 0 100 .4 3.738 3.738 0 012.68 1.06 3.9 3.9 0 011.09 2.89.2.2 0 10.4 0 4.339 4.339 0 00-1.2-3.22 4.15 4.15 0 00-2.97-1.13zM19.59 18.04s-.46-.39-.69-.56a8.75 8.75 0 00-.74-.47.65.65 0 00-.83.12l-.33.37a.562.562 0 01-.44.17A3.9 3.9 0 0114 15.03a.55.55 0 01.16-.44l.38-.29a.66.66 0 00.11-.84 6.416 6.416 0 00-.47-.74c-.17-.23-.55-.69-.55-.69a.58.58 0 00-.75-.12 3.178 3.178 0 00-.77.62 1.17 1.17 0 00-.31.63.257.257 0 000 .09.63.63 0 000 .27c.203.604.472 1.184.8 1.73.29.514.625 1.003 1 1.46.17.21.36.43.58.66.204.207.42.401.65.58.458.374.946.708 1.46 1 .553.323 1.135.59 1.74.8.09.015.18.015.27 0h.09a1.2 1.2 0 00.64-.3c.248-.217.458-.473.62-.76a.58.58 0 00-.06-.65z" fill="#fff"/></svg>