<svg width="32" height="33" fill="none" xmlns="http://www.w3.org/2000/svg"><rect y=".5" width="32" height="32" rx="16" fill="#4A77A9"/><path d="M23.92 20.13a.443.443 0 00-.06-.1 8.252 8.252 0 00-1.59-1.82c-.36-.34-.58-.56-.68-.68a.61.61 0 01-.11-.66c.206-.389.458-.751.75-1.08l.54-.7c1-1.25 1.38-2.06 1.25-2.41l-.05-.08a.51.51 0 00-.26-.14 1.29 1.29 0 00-.53 0H20.5a.379.379 0 00-.09.09.418.418 0 00-.09.14 13.206 13.206 0 01-.89 1.85c-.2.34-.39.63-.57.88a3.403 3.403 0 01-.75.84c-.087.067-.157.097-.21.09h-.14a.46.46 0 01-.19-.2.86.86 0 01-.1-.32v-.33-.39-.35-.68-.58-.45a1.774 1.774 0 000-.37 1.14 1.14 0 00-.09-.26.42.42 0 00-.17-.2.912.912 0 00-.28-.11 5.565 5.565 0 00-1.12-.11 5.551 5.551 0 00-2 .2c-.12.06-.23.14-.32.24-.1.13-.11.19 0 .2a1 1 0 01.71.36v.09c.052.122.089.25.11.38.044.197.07.398.08.6a5.88 5.88 0 010 1c0 .28-.06.5-.08.66-.02.134-.056.265-.11.39 0 .1-.09.16-.1.18-.01.02 0 0 0 0a.54.54 0 01-.22 0 .56.56 0 01-.28-.11 2.48 2.48 0 01-.35-.32 3.997 3.997 0 01-.4-.56 9.273 9.273 0 01-.47-.86l-.13-.23c-.09-.16-.2-.38-.34-.67-.14-.29-.28-.58-.39-.85a.51.51 0 00-.2-.27.5.5 0 00-.32.07.672.672 0 00-.19 0H8.53a.55.55 0 00-.47.16.35.35 0 000 .13.74.74 0 00.05.22c.33.77.7 1.52 1.09 2.23.39.71.73 1.3 1 1.74.27.44.58.85.88 1.24.3.39.5.63.6.74.07.09.146.173.23.25l.2.2c.185.17.382.328.59.47.26.18.55.36.86.54a4.51 4.51 0 001.09.44 4 4 0 001.22.13h1a.622.622 0 00.44-.18.35.35 0 00.07-.15.798.798 0 000-.23c-.01-.211.007-.423.05-.63.028-.149.075-.293.14-.43a.759.759 0 01.18-.24.54.54 0 01.14-.12h.07a.55.55 0 01.47.13c.187.138.358.295.51.47.16.19.35.4.57.64.174.197.368.374.58.53l.17.09a2 2 0 00.43.19c.155.033.315.033.47 0h2.13a1 1 0 00.49-.1.38.38 0 00.21-.23.612.612 0 000-.27c.01-.22-.06-.29-.07-.33z" fill="#fff"/></svg>