<svg width="32" height="33" fill="none" xmlns="http://www.w3.org/2000/svg"><path fill-rule="evenodd" clip-rule="evenodd" d="M27.326 5.153C24.325 2.15 20.323.5 16.061.5 7.286.5.137 7.616.13 16.352c0 2.798.733 5.52 2.123 7.93L0 32.5l8.447-2.205a15.995 15.995 0 007.614 1.931h.008c8.775 0 15.923-7.116 15.931-15.859a15.76 15.76 0 00-4.674-11.214zm-11.265 24.39a13.25 13.25 0 01-6.744-1.84l-.48-.29-5.01 1.308 1.336-4.865-.313-.502a13.078 13.078 0 01-2.024-7.01c0-7.253 5.942-13.168 13.243-13.168a13.21 13.21 0 019.363 3.862 13.083 13.083 0 013.872 9.321c-.008 7.276-5.95 13.183-13.243 13.183zm7.263-9.869c-.397-.197-2.352-1.155-2.719-1.292-.366-.13-.634-.198-.893.197-.268.396-1.031 1.293-1.26 1.551-.23.266-.466.297-.864.1-.397-.198-1.68-.617-3.2-1.97-1.183-1.05-1.977-2.35-2.214-2.745-.23-.395-.023-.608.175-.805.176-.175.397-.464.596-.692.199-.228.267-.396.397-.662s.069-.494-.03-.692c-.1-.197-.894-2.151-1.23-2.942-.32-.775-.65-.669-.894-.676-.229-.016-.496-.016-.763-.016-.268 0-.695.1-1.062.494-.366.396-1.39 1.354-1.39 3.308 0 1.954 1.428 3.831 1.627 4.098.199.266 2.803 4.265 6.797 5.983.947.41 1.688.654 2.268.836.955.304 1.818.259 2.505.16.764-.114 2.353-.958 2.689-1.886.328-.927.328-1.718.229-1.885-.1-.167-.367-.266-.764-.464z" fill="#455A64"/></svg>