<svg width="16" height="16" viewBox="0 0 16 16" fill="none" xmlns="http://www.w3.org/2000/svg">
<path d="M9.945 2L10.918 4H13.64C14.394 4 15.001 4.624 15.001 5.4V12.6C15.001 13.376 14.394 14 13.64 14H2.361C1.607 14 1 13.376 1 12.6V5.4C1 4.624 1.607 4 2.361 4H5.083L6.056 2L9.945 2ZM8.001 5.4C6.075 5.4 4.501 7.019 4.501 9C4.501 10.981 6.075 12.6 8.001 12.6C9.927 12.6 11.501 10.981 11.501 9C11.501 7.019 9.927 5.4 8.001 5.4ZM7.996 6.6C9.289 6.6 10.324 7.667 10.324 9C10.324 10.333 9.289 11.4 7.996 11.4C6.703 11.4 5.668 10.333 5.668 9C5.668 7.667 6.703 6.6 7.996 6.6Z"/>
</svg>
