<svg width="16" height="16" viewBox="0 0 16 16" fill="none" xmlns="http://www.w3.org/2000/svg">
    <path d="M11 3H2C1.44772 3 1 3.44772 1 4V10C1 10.5523 1.44772 11 2 11H11C11.5523 11 12 10.5523 12 10V4C12 3.44772 11.5523 3 11 3Z"/>
    <path d="M14.1463 3.85356L11.3535 6.64646C11.1582 6.84172 11.1582 7.1583 11.3535 7.35356L14.1463 10.1464C14.4613 10.4614 14.9999 10.2383 14.9999 9.7929V4.20712C14.9999 3.76166 14.4613 3.53858 14.1463 3.85356Z"/>
    <path fill-rule="evenodd" clip-rule="evenodd" d="M7 8C7.55228 8 8 8.44772 8 9V14C8 14.5523 7.55228 15 7 15H2.5C1.94772 15 1.5 14.5523 1.5 14C1.5 13.4477 1.94772 13 2.5 13H6V9C6 8.44772 6.44772 8 7 8Z"/>
</svg>
