<svg width="28" height="28" viewBox="0 0 28 28" fill="none" xmlns="http://www.w3.org/2000/svg">
    <path d="M0 14C0 6.26801 6.26801 0 14 0C21.732 0 28 6.26801 28 14C28 21.732 21.732 28 14 28C6.26801 28 0 21.732 0 14Z" fill="#0B1739"/>
    <path d="M20.501 7.63641C19.9109 7.62708 19.201 7.99048 18.6091 8.58234C17.6402 9.4543 16.6885 10.4319 15.7713 11.4202L8.20378 9.90666L7.63623 11.0418L13.3118 13.8796L10.0957 17.6633C9.35817 17.4207 8.2038 17.1448 8.2038 18.0417C8.20379 18.219 8.24814 18.4016 8.39298 18.6093L10.6632 20.8795C10.8709 21.0243 11.0535 21.0687 11.2308 21.0687C12.1277 21.0687 11.8517 19.9143 11.6091 19.1768L15.3929 15.9606L18.2307 21.6362L19.3658 21.0687L17.8523 13.5012C18.8405 12.584 19.8182 11.6322 20.6901 10.6634C21.282 10.0715 21.6454 9.36154 21.6361 8.77151C21.631 8.45364 21.5308 8.15099 21.3273 7.94521C21.1215 7.74169 20.8188 7.64144 20.501 7.63641Z" fill="white"/>
</svg>
