<svg width="28" height="28" viewBox="0 0 28 28" fill="none" xmlns="http://www.w3.org/2000/svg">
    <path d="M0 14C0 6.26801 6.26801 0 14 0C21.732 0 28 6.26801 28 14C28 21.732 21.732 28 14 28C6.26801 28 0 21.732 0 14Z" fill="#FFD349"/>
    <path fill-rule="evenodd" clip-rule="evenodd" d="M12.6223 6.36426H16.0819C18.1945 6.36426 20.3658 7.94898 20.3658 10.6348C20.3658 13.3207 18.1945 14.9054 16.0819 14.9054H13.6346V16.783H16.8629C17.435 16.783 17.8898 17.2109 17.8898 17.7493C17.8898 18.2877 17.435 18.7156 16.8629 18.7156H13.6346V20.6857C13.6346 21.224 13.1798 21.652 12.6077 21.652C12.0355 21.652 11.5807 21.224 11.5807 20.6857V18.7156H9.93322C9.36105 18.7156 8.90625 18.2877 8.90625 17.7493C8.90625 17.2109 9.36105 16.783 9.93322 16.783H11.5807V14.9054H9.93322C9.36105 14.9054 8.90625 14.4775 8.90625 13.9391C8.90625 13.4008 9.36105 12.9728 9.93322 12.9728H11.5807V7.41339C11.5807 7.31676 11.5954 7.22013 11.6247 7.1235C11.7274 6.68176 12.1382 6.36426 12.6223 6.36426ZM13.6346 12.9728H16.0819C17.0648 12.9728 18.3119 12.1732 18.3119 10.6348C18.3409 9.20899 17.0648 8.29687 16.0819 8.29687H13.6346V12.9728Z" fill="white"/>
</svg>
