<svg width="28" height="28" viewBox="0 0 28 28" fill="none" xmlns="http://www.w3.org/2000/svg">
    <path d="M0 14C0 6.26801 6.26801 0 14 0C21.732 0 28 6.26801 28 14C28 21.732 21.732 28 14 28C6.26801 28 0 21.732 0 14Z" fill="#FE93AF"/>
    <path d="M22.513 13.8443C19.8403 12.4585 16.5736 8.30091 13.9999 11.1716C11.4262 8.30091 8.06052 12.4585 5.48678 13.8443C5.18981 13.9433 5.09082 14.1413 5.09082 14.4383C5.09082 14.6363 5.18981 14.9332 5.38779 15.0322C8.65446 17.012 9.94133 20.0807 13.9999 20.0807C18.0585 20.0807 19.3454 17.012 22.612 15.0322C22.81 14.9332 22.909 14.7353 22.909 14.4383C22.909 14.1413 22.81 13.9433 22.513 13.8443ZM17.3656 14.8342C16.3757 15.1312 15.2868 15.6262 13.9999 15.6262C12.713 15.6262 11.6242 15.1312 10.6343 14.8342C10.4363 14.7353 10.4363 14.4383 10.6343 14.3393C11.7231 14.1413 12.713 13.7454 13.9999 13.7454C15.2868 13.7454 16.3757 14.1413 17.3656 14.3393C17.6625 14.4383 17.6625 14.7353 17.3656 14.8342Z" fill="white"/>
    <path d="M21.9191 11.1717C22.4658 11.1717 22.909 10.7285 22.909 10.1818C22.909 9.63509 22.4658 9.19189 21.9191 9.19189C21.3724 9.19189 20.9292 9.63509 20.9292 10.1818C20.9292 10.7285 21.3724 11.1717 21.9191 11.1717Z" fill="white"/>
</svg>
