<svg width="28" height="28" viewBox="0 0 28 28" fill="none" xmlns="http://www.w3.org/2000/svg">
    <path d="M0 14C0 6.26801 6.26801 0 14 0C21.732 0 28 6.26801 28 14C28 21.732 21.732 28 14 28C6.26801 28 0 21.732 0 14Z" fill="#3002B9"/>
    <path d="M19.091 16.0046V19.4978C19.091 20.0942 18.5798 20.6053 17.9834 20.6053H9.88956C9.29317 20.6053 8.78198 20.0942 8.78198 19.4978V16.0046C8.78198 15.1526 9.37837 14.3858 10.1452 14.2154L10.7415 14.0451L12.1899 18.4754L13.4679 15.749H13.3827C13.2123 15.749 12.8715 15.6638 12.8715 15.323V14.5562C12.8715 14.3006 13.2123 14.2154 13.3827 14.2154H14.2347C14.4051 14.2154 14.7459 14.3006 14.7459 14.5562V15.323C14.7459 15.5786 14.4051 15.749 14.2347 15.749H14.1495L15.4275 18.4754L16.8758 14.0451L17.4722 14.2154C18.4946 14.3858 19.091 15.1526 19.091 16.0046ZM13.9791 12.9375C12.1047 12.9375 10.5712 11.4039 10.5712 9.52953C10.5712 7.65516 12.1047 6.12158 13.9791 6.12158C15.8535 6.12158 17.387 7.65516 17.387 9.52953C17.387 11.4039 15.8535 12.9375 13.9791 12.9375Z" fill="white"/>
</svg>
