<svg width="28" height="28" viewBox="0 0 28 28" fill="none" xmlns="http://www.w3.org/2000/svg">
    <path d="M0 14C0 6.26801 6.26801 0 14 0C21.732 0 28 6.26801 28 14C28 21.732 21.732 28 14 28C6.26801 28 0 21.732 0 14Z" fill="#0B1739"/>
    <path d="M15.0499 13.4275H15.3363C15.6226 13.4275 15.909 13.1412 15.909 12.8548C15.909 12.5684 15.6226 12.2821 15.3363 12.2821H15.0499V10.373C15.0499 9.80027 14.4772 9.22754 13.809 9.22754H8.46353C7.79534 9.22754 7.22262 9.80027 7.22262 10.373V12.1866H6.93625C6.64989 12.1866 6.36353 12.473 6.36353 12.8548C6.36353 13.1412 6.64989 13.4275 6.93625 13.4275H7.22262V16.3866C7.22262 16.7684 7.41353 17.2457 7.79534 17.4366V18.2003C7.79534 18.4866 8.08171 18.773 8.36807 18.773H8.9408C9.22716 18.773 9.51353 18.4866 9.51353 18.2003V17.6275H12.1863V18.2003C12.1863 18.4866 12.4726 18.773 12.759 18.773H13.3317C13.6181 18.773 13.9044 18.4866 13.9044 18.2003V17.5321C14.4772 17.4366 14.7635 16.9594 14.7635 16.3866V13.4275H15.0499ZM9.03625 16.1003C8.74989 16.1003 8.46353 15.8139 8.46353 15.5275C8.46353 15.2412 8.74989 14.9548 9.03625 14.9548C9.32262 14.9548 9.60898 15.2412 9.60898 15.5275C9.60898 15.8139 9.41807 16.1003 9.03625 16.1003ZM13.2363 16.1003C12.9499 16.1003 12.6635 15.8139 12.6635 15.5275C12.6635 15.2412 12.9499 14.9548 13.2363 14.9548C13.5226 14.9548 13.809 15.2412 13.809 15.5275C13.809 15.8139 13.5226 16.1003 13.2363 16.1003ZM13.809 13.1412H8.46353V10.373H13.809V13.1412Z" fill="white"/>
    <path d="M19.2499 11.1365C20.5678 11.1365 21.6363 10.0681 21.6363 8.75013C21.6363 7.43218 20.5678 6.36377 19.2499 6.36377C17.9319 6.36377 16.8635 7.43218 16.8635 8.75013C16.8635 10.0681 17.9319 11.1365 19.2499 11.1365Z" fill="white"/>
    <path d="M19.2497 18.8682C18.9634 18.8682 18.677 18.5818 18.677 18.2954V8.74997C18.677 8.46361 18.9634 8.17725 19.2497 8.17725C19.5361 8.17725 19.8225 8.46361 19.8225 8.74997V18.2954C19.8225 18.5818 19.5361 18.8682 19.2497 18.8682Z" fill="white"/>
</svg>
