<svg width="28" height="28" viewBox="0 0 28 28" fill="none" xmlns="http://www.w3.org/2000/svg">
    <path d="M0 14C0 6.26801 6.26801 0 14 0C21.732 0 28 6.26801 28 14C28 21.732 21.732 28 14 28C6.26801 28 0 21.732 0 14Z" fill="#0B1739"/>
    <path d="M7.23933 13.0242C6.93886 13.0242 6.63839 12.924 6.53823 12.6235C6.23776 12.2229 6.33792 11.622 6.73854 11.3215L13.5492 6.514C13.8497 6.31369 14.2503 6.31369 14.5508 6.514L21.2612 11.3215C21.6619 11.622 21.762 12.2229 21.4615 12.6235C21.1611 13.0242 20.5601 13.1243 20.1595 12.8239L13.9498 8.41698L7.74011 12.8239C7.5398 13.0242 7.33948 13.0242 7.23933 13.0242Z" fill="white"/>
    <path d="M18.0563 16.3585H18.3567C18.6572 16.3585 18.9577 16.058 18.9577 15.7575C18.9577 15.4571 18.6572 15.1566 18.3567 15.1566H18.0563V13.2536C18.0563 12.5525 17.4553 12.0518 16.8544 12.0518H11.2456C10.5445 12.0518 10.0437 12.6527 10.0437 13.2536V15.1566H9.74327C9.4428 15.1566 9.14233 15.4571 9.14233 15.7575C9.14233 16.058 9.4428 16.3585 9.74327 16.3585H10.0437V19.4633C10.0437 19.864 10.2441 20.3647 10.6447 20.5651V21.3663C10.6447 21.6668 10.9452 21.9672 11.2456 21.9672H11.8466C12.147 21.9672 12.4475 21.6668 12.4475 21.3663V20.7654H15.2519V21.3663C15.2519 21.6668 15.5523 21.9672 15.8528 21.9672H16.4538C16.7542 21.9672 17.0547 21.6668 17.0547 21.3663V20.6652C17.6556 20.5651 17.9561 20.0643 17.9561 19.4633V16.3585H18.0563ZM11.7464 19.1629C11.4459 19.1629 11.1455 18.8624 11.1455 18.5619C11.1455 18.2615 11.4459 17.961 11.7464 17.961C12.0469 17.961 12.3473 18.2615 12.3473 18.5619C12.3473 18.8624 12.147 19.1629 11.7464 19.1629ZM16.1533 19.1629C15.8528 19.1629 15.5524 18.8624 15.5524 18.5619C15.5524 18.2615 15.8528 17.961 16.1533 17.961C16.4538 17.961 16.7542 18.2615 16.7542 18.5619C16.7542 18.8624 16.4538 19.1629 16.1533 19.1629ZM16.7542 16.058H11.1455V13.2536H16.7542V16.058Z" fill="white"/>
</svg>
