<svg width="28" height="28" viewBox="0 0 28 28" fill="none" xmlns="http://www.w3.org/2000/svg">
    <path d="M0 14C0 6.26801 6.26801 0 14 0C21.732 0 28 6.26801 28 14C28 21.732 21.732 28 14 28C6.26801 28 0 21.732 0 14Z" fill="#9BABFB"/>
    <path fill-rule="evenodd" clip-rule="evenodd" d="M10.1819 9.29948C10.1819 9.78646 9.89682 10.1817 9.54555 10.1817C9.19428 10.1817 8.90919 9.78646 8.90919 9.29948V8.51844C8.90919 8.03146 9.19428 7.63623 9.54555 7.63623C9.89682 7.63623 10.1819 8.03146 10.1819 8.51844V9.29948ZM17.785 16.7281C18.4685 16.5287 19.3746 15.8842 19.824 15.0835C20.1195 14.556 20.1538 14.0918 19.926 13.7015L19.9258 13.7011C19.834 13.5457 19.5548 13.0727 18.4154 13.0727L18.2937 13.0717C18.2324 14.0158 18.093 15.4717 17.785 16.7281ZM18.4155 11.4903C20.0914 11.4903 20.8914 12.253 21.2669 12.8934C21.7881 13.7827 21.7569 14.8387 21.1806 15.8652C20.3899 17.2746 18.7265 18.3791 17.3949 18.3791C17.3552 18.3791 17.317 18.3748 17.2787 18.3704C17.2488 18.367 17.2189 18.3636 17.1879 18.3623C16.3869 19.9415 15.6514 20.3635 15.1427 20.3635H12.9903H10.8369C10.2991 20.3635 9.50741 19.9078 8.6502 18.088C7.80365 16.2875 7.666 12.8379 7.63988 12.1835L7.63904 12.1623C7.61407 11.5673 7.76907 11.4544 8.21016 11.4544H12.9903H17.7694C17.887 11.4544 17.9806 11.4639 18.0597 11.4871L18.4155 11.4903ZM12.7274 10.1817C13.0786 10.1817 13.3637 9.78646 13.3637 9.29948V8.51844C13.3637 8.03146 13.0786 7.63623 12.7274 7.63623C12.3761 7.63623 12.091 8.03146 12.091 8.51844V9.29948C12.091 9.78646 12.3761 10.1817 12.7274 10.1817ZM16.5456 9.29948C16.5456 9.78646 16.2605 10.1817 15.9092 10.1817C15.5579 10.1817 15.2728 9.78646 15.2728 9.29948V8.51844C15.2728 8.03146 15.5579 7.63623 15.9092 7.63623C16.2605 7.63623 16.5456 8.03146 16.5456 8.51844V9.29948Z" fill="white"/>
</svg>
