<svg width="28" height="28" viewBox="0 0 28 28" fill="none" xmlns="http://www.w3.org/2000/svg">
    <path d="M0 14C0 6.26801 6.26801 0 14 0C21.732 0 28 6.26801 28 14C28 21.732 21.732 28 14 28C6.26801 28 0 21.732 0 14Z" fill="#D6A72E"/>
    <path d="M13.9795 21.6365C13.4622 21.6365 13.1173 21.2916 13.1173 20.7743V17.6705L11.1343 16.7221C10.7032 16.5497 10.5308 16.0324 10.7032 15.6013C10.8756 15.1702 11.3929 14.9978 11.824 15.1702L13.0311 15.7737V11.8077H9.58239C9.06508 11.8077 8.72021 11.4629 8.72021 10.9456C8.72021 10.4283 9.06508 10.0834 9.58239 10.0834H13.0311V8.87635H12.1689C11.6516 8.87635 11.3067 8.53148 11.3067 8.01418C11.3067 7.49687 11.6516 7.152 12.1689 7.152H13.0311V6.46227C13.0311 5.94497 13.3759 5.6001 13.8932 5.6001C14.4105 5.6001 14.7554 5.94497 14.7554 6.46227V7.152H15.79C16.3073 7.152 16.6522 7.49687 16.6522 8.01418C16.6522 8.53148 16.3073 8.87635 15.79 8.87635H14.8416V10.0834H18.2903C18.8076 10.0834 19.1525 10.4283 19.1525 10.9456C19.1525 11.4629 18.8076 11.8077 18.2903 11.8077H14.8416V16.6359L16.9971 17.6705C17.4281 17.8429 17.6006 18.3602 17.4281 18.7913C17.2557 19.2224 16.7384 19.3948 16.3073 19.2224L14.8416 18.4464V20.7743C14.8416 21.2916 14.4968 21.6365 13.9795 21.6365Z" fill="white"/>
</svg>
