<svg width="28" height="28" viewBox="0 0 28 28" fill="none" xmlns="http://www.w3.org/2000/svg">
    <path d="M0 14C0 6.26801 6.26801 0 14 0C21.732 0 28 6.26801 28 14C28 21.732 21.732 28 14 28C6.26801 28 0 21.732 0 14Z" fill="#D73D3B"/>
    <path d="M7.7875 20.2524C7.35 20.2524 7 19.9024 7 19.4649V10.7149C7 10.4524 7.0875 10.2774 7.35 10.1024L13.5625 5.72743C13.825 5.55243 14.175 5.55243 14.4375 5.72743L20.65 10.1024C20.825 10.2774 21 10.4524 21 10.7149V19.4649C21 19.9024 20.65 20.2524 20.2125 20.2524H7.7875ZM8.575 18.6774H19.425V11.0649L14 7.21493L8.575 11.0649V18.6774ZM16.975 13.3399C17.4125 13.3399 17.85 13.6899 17.85 14.1274C17.85 14.5649 17.5 14.9149 16.975 14.9149H14.7875V17.1024C14.7875 17.5399 14.4375 17.8899 13.9125 17.8899C13.475 17.8899 13.0375 17.5399 13.0375 17.1024V14.9149H10.85C10.4125 14.9149 9.975 14.5649 9.975 14.1274C9.975 13.6899 10.325 13.3399 10.85 13.3399H13.125V11.1524C13.125 10.7149 13.475 10.3649 14 10.3649C14.4375 10.3649 14.875 10.7149 14.875 11.1524V13.3399H16.975Z" fill="white"/>
</svg>
