<svg width="28" height="28" viewBox="0 0 28 28" fill="none" xmlns="http://www.w3.org/2000/svg">
    <path d="M0 14C0 6.26801 6.26801 0 14 0C21.732 0 28 6.26801 28 14C28 21.732 21.732 28 14 28C6.26801 28 0 21.732 0 14Z" fill="#F66897"/>
    <path fill-rule="evenodd" clip-rule="evenodd" d="M11.4228 18.9049C10.2116 18.9049 9.22736 17.9118 9.22736 16.6919C9.22736 15.471 10.2116 14.4778 11.4228 14.4778C12.634 14.4778 13.6183 15.471 13.6183 16.6919C13.6183 17.9118 12.634 18.9049 11.4228 18.9049ZM20.928 10.364C20.928 10.364 20.9216 9.40501 20.089 8.48452C19.1727 7.64208 18.2234 7.6378 18.2234 7.6378C18.2234 7.6378 17.1416 7.57152 16.2401 8.30064C15.3397 9.02976 15.2347 10.1053 15.2347 10.1053C15.1859 10.6184 14.5569 12.3675 14.2419 12.7983L11.8937 10.4313C11.583 10.1181 11.0803 10.1181 10.7695 10.4313C10.4587 10.7446 10.4587 11.2524 10.7695 11.5656L12.1409 12.948C11.9075 12.9031 11.6689 12.8742 11.4228 12.8742C9.3345 12.8742 7.63647 14.5869 7.63647 16.6919C7.63647 18.7959 9.3345 20.5086 11.4228 20.5086C13.5112 20.5086 15.2092 18.7959 15.2092 16.6919C15.2092 16.4439 15.1816 16.2034 15.1371 15.9682L16.4172 17.2585C16.5721 17.4146 16.7757 17.4937 16.9794 17.4937C17.183 17.4937 17.3866 17.4146 17.5425 17.2585C17.8522 16.9453 17.8522 16.4375 17.5425 16.1242L15.9484 14.5185C16.3727 14.1005 17.9594 13.4248 18.4791 13.3735C18.4791 13.3735 19.545 13.2698 20.2683 12.361C20.9906 11.4534 20.928 10.364 20.928 10.364Z" fill="white"/>
</svg>
