<svg width="28" height="28" viewBox="0 0 28 28" fill="none" xmlns="http://www.w3.org/2000/svg">
    <path d="M0 14C0 6.26801 6.26801 0 14 0C21.732 0 28 6.26801 28 14C28 21.732 21.732 28 14 28C6.26801 28 0 21.732 0 14Z" fill="#F95F5C"/>
    <path fill-rule="evenodd" clip-rule="evenodd" d="M10.5288 8.56189C10.5288 10.5057 12.0561 12.033 13.9999 12.033C15.9437 12.033 17.471 10.5057 17.471 8.56189C17.471 6.61809 15.9437 5.09082 13.9999 5.09082C12.0561 5.09082 10.5288 6.61809 10.5288 8.56189ZM21.6363 20.3636C21.6363 17.309 19.9007 14.671 17.4015 13.4214C16.4296 14.1156 15.2495 14.5321 13.9999 14.5321C12.6809 14.5321 11.5701 14.1156 10.5982 13.4214C8.09906 14.671 6.36353 17.309 6.36353 20.3636H21.6363Z" fill="white"/>
</svg>
