<svg width="28" height="28" viewBox="0 0 28 28" fill="none" xmlns="http://www.w3.org/2000/svg">
    <path d="M0 14C0 6.26801 6.26801 0 14 0C21.732 0 28 6.26801 28 14C28 21.732 21.732 28 14 28C6.26801 28 0 21.732 0 14Z" fill="#3EB57C"/>
    <path fill-rule="evenodd" clip-rule="evenodd" d="M18.3063 10.3559C18.3063 8.12253 16.3312 6.36377 13.8936 6.36377C11.4537 6.36377 9.47742 8.34007 9.47742 10.7799C9.47742 11.8061 10.2453 12.1751 10.2453 12.1751C10.2453 12.1751 8.90918 12.7316 8.90918 14.221C8.90918 15.8363 10.2202 17.1462 11.8355 17.1462C12.3415 17.1462 12.5003 17.0066 12.9159 16.7797V20.6466C12.9159 21.0982 13.3806 21.6365 14.0441 21.6365C14.7076 21.6365 15.0676 21.0982 15.0676 20.6466V16.7797C15.4602 16.951 15.6845 17.0295 16.1393 17.0295C17.904 17.0295 19.336 15.5985 19.336 13.8327C19.336 12.0272 17.6936 11.7848 17.6936 11.7848C17.6936 11.7848 18.3063 11.2536 18.3063 10.3559Z" fill="white"/>
</svg>
