<svg width="28" height="28" viewBox="0 0 28 28" fill="none" xmlns="http://www.w3.org/2000/svg">
    <path d="M0 14C0 6.26801 6.26801 0 14 0C21.732 0 28 6.26801 28 14C28 21.732 21.732 28 14 28C6.26801 28 0 21.732 0 14Z" fill="#0B1739"/>
    <path fill-rule="evenodd" clip-rule="evenodd" d="M14.934 8.90918C15.9064 8.90918 16.7506 9.06979 17.4669 9.391C18.1831 9.71222 18.7346 10.1681 19.1215 10.7588C19.5083 11.3494 19.7018 12.0488 19.7018 12.857C19.7018 13.6549 19.5083 14.3517 19.1215 14.9475C18.7346 15.5433 18.1831 15.9992 17.4669 16.3153C16.7506 16.6313 15.9064 16.7893 14.934 16.7893H12.7226V19.789H10.1819V8.90918H14.934ZM14.7928 14.7377C15.5561 14.7377 16.1364 14.5745 16.5337 14.2481C16.931 13.9217 17.1297 13.458 17.1297 12.857C17.1297 12.2457 16.931 11.7768 16.5337 11.4504C16.1364 11.124 15.5561 10.9608 14.7928 10.9608H12.7226V14.7377H14.7928Z" fill="white"/>
</svg>
