<svg width="28" height="28" viewBox="0 0 28 28" fill="none" xmlns="http://www.w3.org/2000/svg">
    <path d="M0 14C0 6.26801 6.26801 0 14 0C21.732 0 28 6.26801 28 14C28 21.732 21.732 28 14 28C6.26801 28 0 21.732 0 14Z" fill="#3EB57C"/>
    <path d="M21.9995 10.1982C21.9656 10.1069 21.8951 10.0336 21.805 9.9958L20.3023 9.37985C20.2051 8.89581 19.8337 8.49986 19.3565 8.37665L19.2769 7.44381C19.4036 7.30234 19.3911 7.08535 19.2489 6.95924C19.1068 6.83313 18.8888 6.84569 18.7621 6.98717C18.6998 7.05678 18.6687 7.14851 18.6758 7.24143L18.2956 7.66381L18.0569 6.82786C18.1239 6.6504 18.0338 6.45254 17.8556 6.38583C17.6774 6.31912 17.4785 6.40881 17.4115 6.58617C17.3855 6.65513 17.3824 6.73065 17.4028 6.80144L15.6171 11.7558L9.01374 12.0638C7.65025 12.1444 6.36749 11.4162 5.74297 10.207C5.65745 10.0376 5.45026 9.96937 5.28009 10.0545C5.2782 10.0554 5.27632 10.0564 5.27443 10.0574C5.10426 10.1503 5.04113 10.3624 5.13301 10.5326C5.6861 11.5923 6.67233 12.3624 7.83802 12.6446C7.71425 12.7942 7.46676 13.1374 7.30764 13.683C7.08562 14.6076 7.22132 15.5815 7.68775 16.411L6.71539 17.7309C6.66327 17.8085 6.64417 17.9035 6.66235 17.995L7.08665 20.327C7.11319 20.4941 7.26346 20.6173 7.42257 20.6173H7.86456C7.96179 20.6173 8.05901 20.5645 8.12975 20.4853C8.19293 20.4059 8.21866 20.3033 8.20048 20.2038L7.9353 18.7078L10.7817 16.5519C11.0558 16.3231 11.2591 16.0679 11.4005 15.8039L16.227 16.6399L16.8016 20.3183C16.8282 20.4942 16.9784 20.6174 17.1375 20.6174H17.4912C17.6865 20.6174 17.8448 20.4598 17.8448 20.2654V16.5255C18.163 16.3055 18.2868 15.9358 18.3574 15.5663L19.1265 11.9935C20.3115 12.169 21.4719 11.5504 21.9818 10.4711C22.0244 10.3863 22.0308 10.2879 21.9995 10.1983V10.1982H21.9995Z" fill="white"/>
</svg>
