<svg width="28" height="28" viewBox="0 0 28 28" fill="none" xmlns="http://www.w3.org/2000/svg">
    <path d="M0 14C0 6.26801 6.26801 0 14 0C21.732 0 28 6.26801 28 14C28 21.732 21.732 28 14 28C6.26801 28 0 21.732 0 14Z" fill="#F97270"/>
    <path d="M16.8074 13.8577C18.5593 14.247 19.0459 15.3175 19.0459 16.1935C19.0459 16.9721 18.754 17.4587 18.462 17.6534C17.7807 18.3347 16.6128 18.432 15.2502 18.432C14.9582 18.432 14.6663 18.432 14.277 18.432C13.985 18.432 13.7903 18.432 13.4984 18.432C12.4278 18.432 12.4278 19.0159 12.4278 19.2106C12.4278 19.6972 12.7197 19.8919 13.3037 20.0865C14.0823 20.3785 14.4716 20.3785 14.8609 20.7678C15.2502 21.0598 15.4449 21.3518 15.3476 21.9357C15.3476 22.4223 15.0556 22.8117 14.1796 22.909C14.7636 22.617 14.6663 22.033 14.0823 22.033C13.8877 22.033 13.7903 22.033 13.5957 21.9357C11.3572 21.3518 10.6759 20.7678 10.6759 19.3079C10.6759 18.2373 11.1625 16.9721 12.8171 16.6801C12.9144 16.6801 13.1091 16.6801 13.2064 16.6801H14.277C15.0556 16.6801 15.8342 16.6801 16.3208 16.6801C17.0021 16.5828 17.0994 16.5828 17.1967 16.4855C17.1967 16.4855 17.1967 16.4855 17.1967 16.2908C17.1967 16.0962 17.1967 15.9015 16.4181 15.7069C15.6395 15.5122 14.3743 15.5122 13.1091 15.5122C11.7465 15.5122 10.5786 15.1229 9.60531 14.247C8.63205 13.4684 8.14542 12.3004 8.0481 11.1325V11.0352C8.0481 9.47798 8.8267 8.11541 9.99462 7.23948C11.0652 6.46087 12.4278 5.87692 15.4449 6.9475C15.9315 7.14215 16.5155 7.53146 16.3208 8.50472C16.2235 8.99135 15.3476 8.7967 14.8609 8.60205C13.0117 7.92076 12.0385 7.92076 11.0652 8.60205C10.2866 9.08868 9.89729 9.96461 9.89729 10.9379C9.89729 12.3978 11.3572 13.4683 13.1091 13.4683C14.7636 13.663 15.9315 13.663 16.8074 13.8577ZM11.8438 9.86729H19.8246C19.8246 11.5218 18.0727 12.7871 15.8342 12.7871C13.5957 12.7871 11.8438 11.4245 11.8438 9.86729Z" fill="white"/>
</svg>
