<svg width="28" height="28" viewBox="0 0 28 28" fill="none" xmlns="http://www.w3.org/2000/svg">
    <path d="M0 14C0 6.26801 6.26801 0 14 0C21.732 0 28 6.26801 28 14C28 21.732 21.732 28 14 28C6.26801 28 0 21.732 0 14Z" fill="#F66897"/>
    <path fill-rule="evenodd" clip-rule="evenodd" d="M14.5294 21.3236C20.0189 21.3236 22.5078 17.8727 22.5078 17.8727L22.5079 17.8819C22.7247 17.6616 22.7421 17.2945 22.5513 17.0559C22.3606 16.8172 22.031 16.7989 21.8142 17.0099L20.7562 17.8451C19.6721 16.8756 18.8418 15.6272 18.3453 14.2199C18.0679 13.5224 18.2239 12.9901 18.4841 12.7515C18.6403 12.6139 19.1606 12.3753 19.6115 13.0177C20.0712 13.6601 20.2793 15.0735 20.2793 15.0735C20.2793 15.0735 20.9384 15.2938 21.5454 14.945C22.3606 14.4769 22.1524 13.5224 22.1524 13.5224C22.1524 13.5224 21.7795 12.9625 21.1725 12.3293L21.1616 12.3182C20.5503 11.6989 19.2776 10.4096 17.0966 11.6868C14.4727 13.2353 13.8117 11.1969 13.29 9.58805C13.1685 9.21342 13.0546 8.86208 12.9252 8.58474C12.162 6.91442 10.9046 6.90523 10.9046 6.90523C10.7661 6.75578 10.67 6.56812 10.6271 6.36377C10.6271 6.36377 10.5924 6.37296 10.4103 6.49227C10.2282 6.61159 10.0721 6.9236 10.0721 6.9236C10.0721 6.9236 9.90725 6.9236 9.491 7.19898C9.08343 7.48344 9.04003 8.08002 9.04003 8.08002C9.04003 8.08002 7.05405 10.0625 7.83457 10.9251C8.29184 11.4362 8.70953 11.0905 9.15257 10.7237C9.45736 10.4714 9.77414 10.2092 10.1241 10.2092C10.9739 10.2092 11.2687 11.4942 10.627 13.7519C10.0331 15.817 8.64237 17.5044 8.41993 17.7743C8.41499 17.7803 8.41063 17.7856 8.40687 17.7901L7.21877 16.8907C7.00197 16.6887 6.67242 16.7163 6.48166 16.9641C6.30063 17.2141 6.3307 17.5692 6.551 17.7809C6.551 17.7809 9.02256 21.3236 14.5294 21.3236ZM14.4252 16.2206C16.8709 16.2206 18.8482 17.2761 19.1256 18.6528H19.1255C17.9202 19.1576 16.1857 19.7358 14.4079 19.7358C12.5607 19.7358 10.8696 19.1025 9.74221 18.5519C10.0978 17.2302 12.0491 16.2206 14.4252 16.2206Z" fill="white"/>
</svg>
