<svg width="28" height="28" viewBox="0 0 28 28" fill="none" xmlns="http://www.w3.org/2000/svg">
    <path d="M0 14C0 6.26801 6.26801 0 14 0C21.732 0 28 6.26801 28 14C28 21.732 21.732 28 14 28C6.26801 28 0 21.732 0 14Z" fill="#310177"/>
    <path d="M7.63647 17.0547V12.6002L13.6365 16.1456C13.7274 16.2365 13.9092 16.2365 14.0001 16.2365C14.091 16.2365 14.2728 16.2365 14.3637 16.1456L20.3637 12.6002V17.0547C20.3637 18.0547 19.5456 18.8729 18.4547 18.8729H9.45466C8.45466 18.8729 7.63647 18.0547 7.63647 17.0547ZM20.2728 10.9638L14.0001 14.6911L7.72738 10.9638C7.9092 10.1456 8.63647 9.50928 9.54557 9.50928H18.5456C19.3637 9.50928 20.091 10.1456 20.2728 10.9638Z" fill="white"/>
</svg>
