<svg width="28" height="28" viewBox="0 0 28 28" fill="none" xmlns="http://www.w3.org/2000/svg">
    <path d="M0 14C0 6.26801 6.26801 0 14 0C21.732 0 28 6.26801 28 14C28 21.732 21.732 28 14 28C6.26801 28 0 21.732 0 14Z" fill="#0B1739"/>
    <path fill-rule="evenodd" clip-rule="evenodd" d="M17.0404 21.1971C17.1492 21.4509 17.4431 21.5685 17.697 21.4597C17.9508 21.3509 18.0683 21.057 17.9596 20.8032L17.8297 20.5001H18.5C18.7761 20.5001 19 20.2763 19 20.0001C19 19.724 18.7761 19.5001 18.5 19.5001H17.4011L16.9725 18.5001H17.5C17.7761 18.5001 18 18.2763 18 18.0001C18 17.724 17.7761 17.5001 17.5 17.5001H16.544L16.4596 17.3032C16.3508 17.0494 16.0568 16.9318 15.803 17.0406C15.6135 17.1218 15.5 17.3062 15.4999 17.5001H12.5001C12.5 17.3062 12.3865 17.1218 12.197 17.0406C11.9431 16.9318 11.6492 17.0494 11.5404 17.3032L11.456 17.5001H10.5C10.2239 17.5001 10 17.724 10 18.0001C10 18.2763 10.2239 18.5001 10.5 18.5001H11.0274L10.5989 19.5001H9.5C9.22386 19.5001 9 19.724 9 20.0001C9 20.2763 9.22386 20.5001 9.5 20.5001H10.1703L10.0404 20.8032C9.93164 21.057 10.0492 21.3509 10.303 21.4597C10.5568 21.5685 10.8508 21.4509 10.9596 21.1971L11.2583 20.5001H16.7417L17.0404 21.1971ZM16.3131 19.5001L15.8846 18.5001H12.1154L11.6868 19.5001H16.3131Z" fill="white"/>
    <path d="M18.1944 13.7198V7.56565C18.1944 6.86455 17.5935 6.36377 16.9925 6.36377H11.3838C10.6827 6.36377 10.1819 6.96471 10.1819 7.56565V13.7753C10.1819 14.176 10.3822 14.6768 10.7828 14.8771V15.6783C10.7828 15.9788 11.0833 16.2793 11.3838 16.2793H11.9847C12.2852 16.2793 12.5856 15.9788 12.5856 15.6783V15.0774H15.39V15.6783C15.39 15.9788 15.6905 16.2793 15.991 16.2793H16.5919C16.8924 16.2793 17.1928 15.9788 17.1928 15.6783V14.9772C17.7938 14.8771 18.1944 14.3207 18.1944 13.7198ZM11.8845 13.4749C11.5841 13.4749 11.2836 13.1744 11.2836 12.8739C11.2836 12.5735 11.5841 12.273 11.8845 12.273C12.185 12.273 12.4855 12.5735 12.4855 12.8739C12.4855 13.1744 12.2852 13.4749 11.8845 13.4749ZM16.2914 13.4749C15.991 13.4749 15.6905 13.1744 15.6905 12.8739C15.6905 12.5735 15.991 12.273 16.2914 12.273C16.5919 12.273 16.8924 12.5735 16.8924 12.8739C16.8924 13.1744 16.5919 13.4749 16.2914 13.4749ZM16.8924 10.37H11.2836V7.56565H16.8924V10.37Z" fill="white"/>
</svg>
