<svg width="28" height="28" viewBox="0 0 28 28" fill="none" xmlns="http://www.w3.org/2000/svg">
    <path d="M0 14C0 6.26801 6.26801 0 14 0C21.732 0 28 6.26801 28 14C28 21.732 21.732 28 14 28C6.26801 28 0 21.732 0 14Z" fill="#A47FEB"/>
    <path fill-rule="evenodd" clip-rule="evenodd" d="M6.36353 14.0007C6.36353 9.78226 9.78175 6.36377 13.9987 6.36377C18.2169 6.36377 21.6363 9.78226 21.6363 14.0007C21.6363 18.218 18.2169 21.6365 13.9987 21.6365C9.78175 21.6365 6.36353 18.218 6.36353 14.0007ZM12.313 11.9637C12.313 12.7195 11.7014 13.3323 10.9445 13.3323C10.19 13.3323 9.57608 12.7195 9.57608 11.9637C9.57608 11.2091 10.19 10.5951 10.9445 10.5951C11.7014 10.5951 12.313 11.2091 12.313 11.9637ZM18.4227 11.9637C18.4227 12.7195 17.8099 13.3323 17.0542 13.3323C16.2985 13.3323 15.6857 12.7195 15.6857 11.9637C15.6857 11.2091 16.2985 10.5951 17.0542 10.5951C17.8099 10.5951 18.4227 11.2091 18.4227 11.9637ZM14.0332 19.2206C10.644 19.2206 9.34182 16.6242 9.28833 16.5138C9.14765 16.2254 9.26741 15.8766 9.55575 15.737C9.84292 15.5998 10.1906 15.7138 10.3312 16.0022C10.3743 16.087 11.3904 18.0579 14.0332 18.0579C16.6666 18.0579 17.6223 16.0975 17.6618 16.0138C17.7967 15.7254 18.1455 15.601 18.4327 15.7336C18.7233 15.8684 18.8512 16.2103 18.7164 16.501C18.6664 16.6126 17.4316 19.2206 14.0332 19.2206Z" fill="white"/>
</svg>
