<svg width="28" height="28" viewBox="0 0 28 28" fill="none" xmlns="http://www.w3.org/2000/svg">
    <path d="M0 14C0 6.26801 6.26801 0 14 0C21.732 0 28 6.26801 28 14C28 21.732 21.732 28 14 28C6.26801 28 0 21.732 0 14Z" fill="#FFB549"/>
    <path fill-rule="evenodd" clip-rule="evenodd" d="M13.9999 6.36377L22.909 10.6202L21.2384 11.4997V17.0001C21.2384 17.2772 21.018 17.5026 20.7445 17.5026H20.1816C19.9092 17.5026 19.6865 17.2772 19.6865 17.0001V12.316L13.9999 15.3112L5.09082 10.5052L13.9999 6.36377ZM14.0301 20.3638C13.021 20.3638 9.93014 18.6288 9.93014 18.6288V14.7944C9.93014 14.7944 13.5068 16.5537 14.0301 16.5537C14.4195 16.5537 18.1539 14.7944 18.1539 14.7944V18.6288C18.1539 18.6288 15.0403 20.3638 14.0301 20.3638Z" fill="white"/>
</svg>
