<svg width="28" height="28" viewBox="0 0 28 28" fill="none" xmlns="http://www.w3.org/2000/svg">
    <path d="M0 14C0 6.26801 6.26801 0 14 0C21.732 0 28 6.26801 28 14C28 21.732 21.732 28 14 28C6.26801 28 0 21.732 0 14Z" fill="#910030"/>
    <path fill-rule="evenodd" clip-rule="evenodd" d="M17.9039 19.3433C19.2943 19.3433 20.3638 18.1669 20.3638 16.7765C20.3638 15.3861 19.1873 14.2096 17.9039 14.2096C16.5135 14.2096 15.444 15.3861 15.444 16.7765C15.444 18.2738 16.5135 19.3433 17.9039 19.3433ZM10.0964 19.3433C11.4868 19.3433 12.5563 18.1669 12.5563 16.7765C12.5563 15.3861 11.3798 14.2096 10.0964 14.2096C8.81295 14.2096 7.63647 15.3861 7.63647 16.7765C7.63647 18.2738 8.706 19.3433 10.0964 19.3433ZM13.9467 12.7123C15.337 12.7123 16.4066 11.5358 16.4066 10.1455C16.4066 8.75509 15.2301 7.57861 13.9467 7.57861C12.6632 7.57861 11.4868 8.75509 11.4868 10.1455C11.4868 11.5358 12.5563 12.7123 13.9467 12.7123Z" fill="white"/>
</svg>
