<svg width="28" height="28" viewBox="0 0 28 28" fill="none" xmlns="http://www.w3.org/2000/svg">
    <path d="M0 14C0 6.26801 6.26801 0 14 0C21.732 0 28 6.26801 28 14C28 21.732 21.732 28 14 28C6.26801 28 0 21.732 0 14Z" fill="#72D7E6"/>
    <path d="M12.3688 8.30546C12.186 8.21407 12.186 8.03128 12.3688 7.93989L12.8257 7.66571C13.0085 7.57432 13.0999 7.57432 13.1913 7.66571C14.0138 8.30546 14.3794 9.03661 14.4708 10.0419C14.1966 10.1333 13.9224 10.1333 13.6483 10.1333C13.3741 9.40218 13.0085 8.76243 12.3688 8.30546ZM14.5622 10.4989C17.9437 8.48825 21.5995 11.23 20.1372 15.4341C19.3146 17.7189 17.4868 21.5575 14.288 20.0038C14.1966 19.9124 14.0138 19.9124 13.831 20.0038C10.6323 21.5575 8.80443 17.7189 7.98189 15.4341C6.42821 11.23 10.0839 8.48825 13.5569 10.4989C13.831 10.5903 14.1966 10.5903 14.5622 10.4989Z" fill="white"/>
</svg>
