<svg width="28" height="28" viewBox="0 0 28 28" fill="none" xmlns="http://www.w3.org/2000/svg">
    <path d="M0 14C0 6.26801 6.26801 0 14 0C21.732 0 28 6.26801 28 14C28 21.732 21.732 28 14 28C6.26801 28 0 21.732 0 14Z" fill="#4BB6DE"/>
    <path fill-rule="evenodd" clip-rule="evenodd" d="M9.79683 11.6781L20.3635 11.7208L19.3165 16.2321L19.1218 16.2617C19.0504 16.5804 18.7962 16.8389 18.4577 16.8915L12.5799 17.8038C12.4826 17.8126 12.3755 17.818 12.2619 17.818C11.4561 17.818 10.3095 17.5388 9.80549 16.4917C8.70869 14.2125 7.92232 11.0418 7.64758 9.84356L5.67031 9.24446C5.24089 9.11413 4.99644 8.65632 5.12515 8.2226C5.25495 7.78779 5.70492 7.54136 6.13542 7.6706L9.02886 8.54789L9.12945 9.02432C9.13378 9.04623 9.3804 10.205 9.79683 11.6781ZM11.4544 19.0908C10.7513 19.0908 10.1817 19.6604 10.1817 20.3635C10.1817 21.0657 10.7513 21.6362 11.4544 21.6362C12.1576 21.6362 12.7272 21.0657 12.7272 20.3635C12.7272 19.6604 12.1576 19.0908 11.4544 19.0908ZM17.8176 19.0908C17.1145 19.0908 16.5454 19.6598 16.5454 20.3626C16.5454 21.0654 17.1145 21.6362 17.8176 21.6362C18.5207 21.6362 19.0908 21.0654 19.0908 20.3626C19.0908 19.6598 18.5207 19.0908 17.8176 19.0908Z" fill="white"/>
</svg>
