<svg width="28" height="28" viewBox="0 0 28 28" fill="none" xmlns="http://www.w3.org/2000/svg">
    <path d="M0 14C0 6.26801 6.26801 0 14 0C21.732 0 28 6.26801 28 14C28 21.732 21.732 28 14 28C6.26801 28 0 21.732 0 14Z" fill="#CF7FEB"/>
    <path d="M21.0908 11.3409H19.4545V9.44865C19.4545 9.14989 19.2027 8.90918 18.909 8.90918H17.8181C17.516 8.90918 17.2726 9.1582 17.2726 9.44865V13.4987H10.7272V9.44865C10.7272 9.14989 10.4754 8.90918 10.1817 8.90918H9.09077C8.78869 8.90918 8.5453 9.1582 8.5453 9.44865V11.3409H6.90899C6.60691 11.3409 6.36353 11.5816 6.36353 11.8804V17.0011C6.36353 17.2999 6.61531 17.5406 6.90899 17.5406H8.5453V19.1589C8.5453 19.4577 8.79709 19.6984 9.09077 19.6984H10.1817C10.4838 19.6984 10.7272 19.4494 10.7272 19.1589V15.1088H17.2726V19.1589C17.2726 19.4577 17.5244 19.6984 17.8181 19.6984H18.909C19.2111 19.6984 19.4545 19.4494 19.4545 19.1589V17.5406H21.0908C21.3929 17.5406 21.6363 17.2916 21.6363 17.0011V11.8804C21.6363 11.5816 21.3845 11.3409 21.0908 11.3409Z" fill="white"/>
</svg>
