<svg width="28" height="28" viewBox="0 0 28 28" fill="none" xmlns="http://www.w3.org/2000/svg">
    <path d="M0 14C0 6.26801 6.26801 0 14 0C21.732 0 28 6.26801 28 14C28 21.732 21.732 28 14 28C6.26801 28 0 21.732 0 14Z" fill="#802BBE"/>
    <path fill-rule="evenodd" clip-rule="evenodd" d="M20.9699 10.8706C20.9699 10.7731 20.8724 10.6756 20.7749 10.6756C20.6774 10.6756 20.5799 10.6756 20.4824 10.6756C19.6049 11.1631 18.1424 11.5531 16.5823 11.7481C16.2898 11.7481 15.8998 11.8456 15.6073 11.8456C15.5098 12.6256 15.3148 13.5031 15.0223 14.2831C15.4123 14.2831 15.8023 14.1856 15.8023 14.4781C15.8998 15.1606 15.1198 15.7456 14.4373 15.4531C14.0473 16.2332 13.4623 16.8182 12.7798 17.3057C13.8523 19.5482 15.7048 21.0107 17.6549 20.7182C20.2874 20.3282 22.0424 17.0132 21.5549 13.1131C21.4574 12.3331 21.2624 11.5531 20.9699 10.8706ZM14.7298 9.70056C14.6323 8.92055 14.4373 8.14054 14.1448 7.36053C14.1448 7.26303 14.0473 7.16553 13.9498 7.16553C13.8523 7.16553 13.8523 7.16553 13.7548 7.16553H13.6573C12.7798 7.65303 11.4148 8.04304 9.75725 8.23804C8.19723 8.43305 6.63721 8.43305 5.6622 8.23804H5.56469C5.46719 8.23804 5.46719 8.23804 5.36969 8.33554C5.27219 8.43304 5.17469 8.53055 5.17469 8.62805C5.07719 9.40806 5.07719 10.1881 5.17469 11.0656C5.6622 14.8681 8.19723 17.6957 10.9273 17.4032C13.5598 17.0132 15.3148 13.6006 14.7298 9.70056ZM7.22222 11.6506C7.12472 10.7731 8.87974 10.5781 9.07474 11.7481C9.17224 12.2356 7.31972 12.4306 7.22222 11.6506ZM10.7323 16.0382C9.46475 16.2332 8.39223 15.1606 8.48973 13.8931C8.48973 13.7956 8.58724 13.7956 8.68474 13.7956C9.65975 14.3806 11.4148 14.1856 12.1948 13.3081C12.1948 13.2106 12.2923 13.3081 12.3898 13.3081C12.3898 13.4056 12.4873 13.6006 12.4873 13.6981C12.5848 14.8681 11.8048 15.8431 10.7323 16.0382ZM11.1223 11.4556C10.9273 10.2856 12.7798 9.99307 12.8773 10.8706C13.0723 11.6506 11.2198 11.9431 11.1223 11.4556ZM19.3124 18.4757C19.3124 18.5732 19.3124 18.5732 19.3124 18.4757C19.2149 18.5732 19.2149 18.5732 19.1174 18.5732C18.7274 18.2807 18.0449 18.1832 17.3624 18.2807C16.5823 18.3782 15.9973 18.6707 15.7048 19.0607H15.6073C15.6073 19.0607 15.5098 19.0607 15.5098 18.9632C15.5098 18.8657 15.4123 18.6707 15.4123 18.5732C15.3148 17.5007 16.0948 16.4282 17.0699 16.3307C18.1424 16.1357 19.1174 16.9157 19.3124 18.0857C19.3124 18.2807 19.3124 18.3782 19.3124 18.4757ZM17.8499 14.2831C17.7524 13.7956 19.6049 13.5031 19.7024 14.2831C19.7999 15.0631 18.0449 15.4531 17.8499 14.2831Z" fill="white"/>
</svg>
