<svg width="28" height="28" viewBox="0 0 28 28" fill="none" xmlns="http://www.w3.org/2000/svg">
    <path d="M0 14C0 6.26801 6.26801 0 14 0C21.732 0 28 6.26801 28 14C28 21.732 21.732 28 14 28C6.26801 28 0 21.732 0 14Z" fill="#D8005A"/>
    <path d="M20.8657 11.3409C20.6667 11.3409 20.4676 11.2469 20.3681 11.1529L14.0994 7.01754L7.83064 11.1529C7.43263 11.4349 6.83561 11.3409 6.53709 10.965C6.23858 10.589 6.33809 10.0251 6.7361 9.74314L13.5024 5.2318C13.8009 5.04383 14.1989 5.04383 14.4974 5.2318L21.2637 9.74314C21.6617 10.0251 21.7612 10.495 21.4627 10.965C21.4627 11.2469 21.1642 11.3409 20.8657 11.3409Z" fill="white"/>
    <path d="M18.0795 17.0743C17.582 17.0743 17.1839 16.6983 17.1839 16.2284V12.4689C17.1839 11.999 17.582 11.623 18.0795 11.623C18.577 11.623 18.975 11.999 18.975 12.4689V16.2284C18.975 16.6983 18.577 17.0743 18.0795 17.0743ZM14.0993 17.0743C13.6018 17.0743 13.2038 16.6983 13.2038 16.2284V12.4689C13.2038 11.999 13.6018 11.623 14.0993 11.623C14.5968 11.623 14.9949 11.999 14.9949 12.4689V16.2284C14.9949 16.6983 14.5968 17.0743 14.0993 17.0743ZM10.1192 17.0743C9.62165 17.0743 9.22363 16.6983 9.22363 16.2284V12.4689C9.22363 11.999 9.62165 11.623 10.1192 11.623C10.6167 11.623 11.0147 11.999 11.0147 12.4689V16.2284C11.0147 16.6983 10.6167 17.0743 10.1192 17.0743Z" fill="white"/>
    <path d="M20.0694 20.3636H8.12893C7.63141 20.3636 7.2334 19.9877 7.2334 19.5177C7.2334 19.0478 7.63141 18.6719 8.12893 18.6719H20.0694C20.5669 18.6719 20.9649 19.0478 20.9649 19.5177C20.9649 19.9877 20.5669 20.3636 20.0694 20.3636Z" fill="white"/>
</svg>
