
<svg width="16" height="16" viewBox="0 0 16 16" fill="none" xmlns="http://www.w3.org/2000/svg">
    <g opacity="0.8">
        <path opacity="0.8" fill-rule="evenodd" clip-rule="evenodd" d="M7.35355 4.64645C7.54882 4.84171 7.54882 5.15829 7.35355 5.35355L5.20711 7.5H12.5C12.7761 7.5 13 7.72386 13 8C13 8.27614 12.7761 8.5 12.5 8.5H5.20711L7.35355 10.6464C7.54882 10.8417 7.54882 11.1583 7.35355 11.3536C7.15829 11.5488 6.84171 11.5488 6.64645 11.3536L3.64665 8.35375C3.64658 8.35369 3.64651 8.35362 3.64645 8.35355C3.64574 8.35285 3.64503 8.35214 3.64433 8.35143C3.59744 8.30398 3.56198 8.24949 3.53794 8.19139C3.51349 8.13244 3.5 8.06779 3.5 8C3.5 7.86301 3.55509 7.73888 3.64433 7.64857C3.64503 7.64786 3.64574 7.64715 3.64645 7.64645C3.64651 7.64638 3.64658 7.64631 3.64665 7.64625L6.64645 4.64645C6.84171 4.45118 7.15829 4.45118 7.35355 4.64645Z" fill="white"/>
    </g>
</svg>
