<svg width="24" height="24" fill="none" xmlns="http://www.w3.org/2000/svg"><rect x="3" y="3" width="18" height="18" rx="2" stroke="#3EB57C" stroke-width="2" stroke-linecap="round" stroke-linejoin="round"/><path d="M9 7h3.294c1.29 0 2.228.286 2.814.857.595.562.892 1.376.892 2.443 0 1-.311 1.8-.933 2.4-.623.6-1.547.9-2.773.9h-1.647V17H9V7zm1.647 1.514v3.572h1.647c.659 0 1.153-.162 1.482-.486.33-.324.495-.757.495-1.3 0-.571-.16-1.01-.48-1.314-.312-.315-.81-.472-1.497-.472h-1.647z" fill="#3EB57C"/></svg>