<svg width="24" height="24" viewBox="0 0 24 24" fill="none" xmlns="http://www.w3.org/2000/svg">
<path d="M6.5 16H4C3.44772 16 3 15.5523 3 15V7C3 6.44772 3.44772 6 4 6H20C20.5523 6 21 6.44772 21 7V15C21 15.5523 20.5523 16 20 16H17.5" stroke-width="1.5"/>
<path d="M7 4C7 2.89543 7.89543 2 9 2H15C16.1046 2 17 2.89543 17 4V6H7V4Z" stroke-width="1.5"/>
<path d="M17 21.5C17 21.7761 16.7761 22 16.5 22L7.5 22C7.22386 22 7 21.7761 7 21.5L7 12.5C7 12.2239 7.22386 12 7.5 12L16.5 12C16.7761 12 17 12.2239 17 12.5L17 21.5Z" stroke-width="1.5"/>
<circle r="1" transform="matrix(-1 0 0 1 16 9)"/>
</svg>
