<svg xmlns="http://www.w3.org/2000/svg" width="48" height="48" viewBox="0 0 48 48" fill="none">
    <path d="M4.5 14C4.5 8.34315 4.5 5.51472 6.25736 3.75736C8.01472 2 10.8431 2 16.5 2H30.5C36.1569 2 38.9853 2 40.7426 3.75736C42.5 5.51472 42.5 8.34315 42.5 14V38C42.5 38.9428 42.5 39.4142 42.2071 39.7071C41.9142 40 41.4428 40 40.5 40H40.375L40.3316 42.0833C40.2931 43.9329 40.2738 44.8577 39.6906 45.4289C39.1075 46 38.1825 46 36.3325 46H35C33.1144 46 32.1716 46 31.5858 45.4142C31 44.8284 31 43.8856 31 42V40H16.5V42C16.5 43.8856 16.5 44.8284 15.9142 45.4142C15.3284 46 14.3856 46 12.5 46H11.5C9.61438 46 8.67157 46 8.08579 45.4142C7.5 44.8284 7.5 43.8856 7.5 42V40H6.5C5.55719 40 5.08579 40 4.79289 39.7071C4.5 39.4142 4.5 38.9428 4.5 38V14Z" stroke="#95D0A1" stroke-width="2"/>
    <path d="M9 10C9 8.34315 10.3431 7 12 7H35C36.6569 7 38 8.34315 38 10V23C38 24.6569 36.6569 26 35 26H12C10.3431 26 9 24.6569 9 23V10Z" stroke="#95D0A1" stroke-width="2"/>
    <circle cx="14" cy="33" r="3" stroke="#95D0A1" stroke-width="2"/>
    <circle cx="33" cy="33" r="3" stroke="#95D0A1" stroke-width="2"/>
</svg>
