<svg width="48" height="48" viewBox="0 0 48 48" fill="none" xmlns="http://www.w3.org/2000/svg">
    <path fill-rule="evenodd" clip-rule="evenodd" d="M23.7401 2C30.4782 2.07729 36.5826 6.0382 39.5027 12.2191C42.4208 18.3958 41.6564 25.725 37.505 31.1674L25.048 45.6039C24.7281 45.9755 24.229 46.2574 23.5627 46.2574C22.8917 46.2574 22.423 45.9849 22.0937 45.6023L9.75741 31.1759C5.60913 25.7655 4.83035 18.4243 7.74731 12.2349C10.6663 6.04119 16.7813 2.07236 23.5298 2H23.7401ZM22.72 42.3128C23.2664 42.7835 24.0909 42.7222 24.5615 42.1759L35.4055 29.5908C40.2111 23.3284 39.4988 14.3472 33.7701 8.95594C28.0481 3.57103 19.2372 3.57103 13.5152 8.95594C7.78647 14.3472 7.07415 23.3284 11.86 29.5662L22.5776 42.1695C22.6213 42.2209 22.6689 42.2688 22.72 42.3128ZM17.4368 19.9829C17.4368 16.4582 20.2422 13.5957 23.7093 13.5957C25.3756 13.5957 26.9728 14.2707 28.1492 15.471C29.3231 16.6688 29.9819 18.2916 29.9819 19.9829C29.9819 23.5077 27.1765 26.3702 23.7093 26.3702C20.2422 26.3702 17.4368 23.5077 17.4368 19.9829ZM23.7093 23.6825C25.7021 23.6825 27.3227 22.0289 27.3227 19.9829C27.3227 17.9369 25.7021 16.2834 23.7093 16.2834C21.7166 16.2834 20.096 17.9369 20.096 19.9829C20.096 22.0289 21.7166 23.6825 23.7093 23.6825Z" fill="#95D0A1"/>
</svg>
