
<svg width="48" height="48" viewBox="0 0 48 48" fill="none" xmlns="http://www.w3.org/2000/svg">
    <path fill-rule="evenodd" clip-rule="evenodd" d="M35.1078 13.4305C36.991 14.1905 38.5359 15.3199 39.7134 16.8092C40.0345 17.2111 40.2842 17.5487 40.8444 18.3346C41.2493 18.9026 41.4102 19.1246 41.6155 19.3976C43.1495 20.0078 44.0397 20.6366 44.6431 21.6012C44.8328 21.9053 44.9385 22.1572 45.1383 22.7554C45.1923 22.9168 45.2135 22.9802 45.2348 23.0461C45.2627 23.1328 45.2809 23.1915 45.3014 23.2597L45.3245 23.4195C45.3176 24.889 45.3159 26.0475 45.3159 28.949L45.3083 29.0399C45.2972 29.1055 45.2972 29.1055 45.2892 29.1489C45.0655 30.1644 44.8966 30.5877 44.4974 31.0688C43.8103 31.8964 42.8888 32.3356 41.7709 32.38C41.3251 32.3951 40.9792 32.3973 40.1107 32.3918C39.7345 33.2177 39.2906 33.9306 38.6916 34.5259C35.8402 37.3596 30.8994 36.1406 29.6913 32.3809C25.4698 32.3889 21.2561 32.3889 17.0359 32.3808C16.3301 34.5029 14.3088 36.0145 12.0521 36.083C9.61615 36.1492 7.43309 34.6189 6.70144 32.3722C6.64979 32.3724 6.58684 32.3728 6.49711 32.3733C6.23706 32.3749 6.13085 32.3751 5.99565 32.3743C5.43675 32.3711 5.02444 32.3455 4.6211 32.2854C3.1793 32.0574 2.2756 31.1268 2.00853 29.6338L2 29.5362C2.00967 25.8351 2.0312 24.2117 2.08883 23.9863C2.26464 23.2978 2.36151 23.0202 2.55444 22.6907C3.22461 21.5363 4.31778 20.7771 5.90869 20.2924C6.50832 20.1084 6.99453 19.985 8.15846 19.7184C8.26956 19.693 8.26956 19.693 8.33596 19.6778C8.40273 19.6624 8.40273 19.6624 8.51352 19.6369C8.94075 19.5383 9.23746 19.4668 9.52329 19.3932C9.7087 19.3457 9.87498 19.2644 9.95568 19.1912C11.8897 17.4431 13.6617 15.8227 15.3457 14.2618C16.2276 13.4492 17.0367 13.1237 19.0527 12.7057C21.6768 12.1683 24.3266 11.9366 26.9663 12.0148C30.4765 12.1154 32.8659 12.518 35.1078 13.4305ZM34.8433 33.7956C36.5578 33.7956 37.9926 32.3684 37.9926 30.6593C37.9926 28.9618 36.5357 27.5162 34.8347 27.5231C33.1197 27.5231 31.7025 28.9422 31.7025 30.6679C31.7025 32.3947 33.1122 33.7956 34.8433 33.7956ZM11.8159 33.7956C13.5494 33.7956 15.0083 32.3752 15.0083 30.6936C15.0083 28.9562 13.5707 27.5145 11.8503 27.5145C10.1373 27.5145 8.70957 28.9575 8.70957 30.7052C8.70271 32.3533 10.1543 33.7956 11.8159 33.7956ZM11.7946 25.244C13.0153 25.2241 14.1577 25.6027 15.1427 26.3519C16.3629 27.2859 17.0733 28.5407 17.2691 30.0756H29.4033C29.7918 27.2246 32.0001 25.2712 34.7532 25.2355C35.9901 25.2153 37.1375 25.5867 38.106 26.3232C39.3475 27.261 40.0681 28.534 40.2691 30.1098H41.2417H41.4073C41.4688 30.1098 41.4688 30.1098 41.5674 30.1098C42.4496 30.104 42.9349 29.6325 42.9406 28.7791C42.9485 27.9968 42.9498 27.3816 42.9476 25.8409C42.946 24.6818 42.9463 24.2175 42.9492 23.6299C42.9492 23.2543 42.8393 22.9749 42.6185 22.7652C42.2641 22.4214 41.9151 22.1447 41.5769 21.9389C41.4679 21.8731 41.3526 21.8193 41.0912 21.7131C40.4844 21.467 40.2387 21.3363 39.9661 21.0942C39.6618 20.8233 39.4861 20.5703 39.1484 19.9507C39.0321 19.7373 38.97 19.6267 38.9546 19.5893C38.9156 19.5402 38.9156 19.5402 38.9032 19.5245C37.2365 17.1209 35.2425 15.6725 32.8055 15.1022C31.3633 14.7606 29.8795 14.5275 28.4066 14.411C25.3982 14.1772 22.4086 14.3694 19.4561 14.9863C18.4595 15.1993 17.8439 15.3986 17.3235 15.679C16.8861 15.917 16.5089 16.2103 15.7697 16.8849C15.5975 17.0424 15.5975 17.0424 15.5058 17.126C14.8522 17.7283 14.2866 18.2614 13.1037 19.3892L12.9912 19.4965L12.8787 19.6038C12.1089 20.3377 11.7263 20.7006 11.2911 21.1094C11.0418 21.3406 10.7647 21.5014 10.4753 21.5619C10.2271 21.6159 10.0324 21.6523 9.55863 21.7339C9.052 21.8212 8.83307 21.8631 8.5855 21.9203C7.03042 22.2661 6.12084 22.5929 5.29646 23.1089C4.62425 23.5378 4.33812 23.92 4.32017 24.3478C4.25591 25.7598 4.24997 27.1767 4.29489 29.409C4.30288 29.7228 4.53058 29.9821 4.80738 30.0211C5.19601 30.0668 5.50825 30.0841 6.30516 30.1055C6.34728 30.1067 6.3868 30.1077 6.42404 30.1088C6.57059 28.86 7.06118 27.7943 7.90199 26.9182C8.93306 25.8354 10.2675 25.2641 11.7946 25.244Z" fill="#95D0A1"/>
</svg>
