<svg width="28" height="28" fill="none" xmlns="http://www.w3.org/2000/svg"><path d="M0 14C0 6.268 6.268 0 14 0s14 6.268 14 14-6.268 14-14 14S0 21.732 0 14z" fill="#0B1739"/><path d="M20.501 7.636c-.59-.009-1.3.354-1.892.946-.969.872-1.92 1.85-2.838 2.838L8.204 9.907l-.568 1.135 5.676 2.838-3.216 3.783c-.738-.242-1.892-.518-1.892.379 0 .177.044.36.189.567l2.27 2.27a.95.95 0 00.568.19c.897 0 .62-1.155.378-1.892l3.784-3.216 2.838 5.675 1.135-.567-1.514-7.568c.988-.917 1.966-1.869 2.838-2.838.592-.591.955-1.301.946-1.891-.005-.318-.105-.621-.309-.827-.206-.203-.508-.304-.826-.309z" fill="#fff"/></svg>