<svg width="28" height="28" fill="none" xmlns="http://www.w3.org/2000/svg"><path d="M0 14C0 6.268 6.268 0 14 0s14 6.268 14 14-6.268 14-14 14S0 21.732 0 14z" fill="#FFD349"/><path fill-rule="evenodd" clip-rule="evenodd" d="M12.622 6.364h3.46c2.113 0 4.284 1.585 4.284 4.27 0 2.687-2.171 4.271-4.284 4.271h-2.447v1.878h3.228c.572 0 1.027.428 1.027.966 0 .539-.455.967-1.027.967h-3.228v1.97c0 .538-.455.966-1.027.966-.572 0-1.027-.428-1.027-.966v-1.97H9.933c-.572 0-1.027-.428-1.027-.967 0-.538.455-.966 1.027-.966h1.648v-1.878H9.933c-.572 0-1.027-.428-1.027-.966s.455-.966 1.027-.966h1.648v-5.56c0-.096.014-.193.044-.29.102-.441.513-.759.997-.759zm1.013 6.609h2.447c.983 0 2.23-.8 2.23-2.338.029-1.426-1.247-2.338-2.23-2.338h-2.447v4.676z" fill="#fff"/></svg>