<svg width="28" height="28" fill="none" xmlns="http://www.w3.org/2000/svg"><path d="M0 14C0 6.268 6.268 0 14 0s14 6.268 14 14-6.268 14-14 14S0 21.732 0 14z" fill="#FE93AF"/><path d="M22.513 13.844C19.84 12.46 16.573 8.301 14 11.172c-2.574-2.871-5.94 1.287-8.513 2.672-.297.1-.396.297-.396.594 0 .198.099.495.297.594 3.266 1.98 4.553 5.049 8.612 5.049 4.058 0 5.345-3.069 8.612-5.049.198-.099.297-.297.297-.594s-.099-.495-.396-.594zm-5.147.99c-.99.297-2.08.792-3.366.792-1.287 0-2.376-.495-3.366-.792-.198-.099-.198-.396 0-.495 1.09-.198 2.079-.594 3.366-.594s2.376.396 3.366.594c.297.1.297.396 0 .495zM21.92 11.172a.99.99 0 100-1.98.99.99 0 000 1.98z" fill="#fff"/></svg>