<svg width="28" height="28" fill="none" xmlns="http://www.w3.org/2000/svg"><path d="M0 14C0 6.268 6.268 0 14 0s14 6.268 14 14-6.268 14-14 14S0 21.732 0 14z" fill="#3002B9"/><path d="M19.091 16.005v3.493c0 .596-.511 1.107-1.108 1.107H9.89a1.128 1.128 0 01-1.108-1.107v-3.493c0-.852.596-1.62 1.363-1.79l.597-.17 1.448 4.43 1.278-2.726h-.085c-.17 0-.511-.085-.511-.426v-.767c0-.255.34-.34.51-.34h.853c.17 0 .51.085.51.34v.767c0 .256-.34.426-.51.426h-.085l1.277 2.726 1.449-4.43.596.17c1.023.17 1.619.938 1.619 1.79zm-5.112-3.067a3.418 3.418 0 01-3.408-3.408 3.418 3.418 0 013.408-3.408 3.418 3.418 0 013.408 3.408 3.418 3.418 0 01-3.408 3.408z" fill="#fff"/></svg>