<svg width="28" height="28" fill="none" xmlns="http://www.w3.org/2000/svg"><path d="M0 14C0 6.268 6.268 0 14 0s14 6.268 14 14-6.268 14-14 14S0 21.732 0 14z" fill="#0B1739"/><path d="M15.05 13.428h.286c.287 0 .573-.287.573-.573 0-.287-.286-.573-.573-.573h-.286v-1.909c0-.573-.573-1.145-1.241-1.145H8.464c-.669 0-1.241.572-1.241 1.145v1.814h-.287c-.286 0-.572.286-.572.668 0 .286.286.572.572.572h.287v2.96c0 .381.19.859.572 1.05v.763c0 .287.287.573.573.573h.573c.286 0 .573-.286.573-.573v-.572h2.672v.572c0 .287.287.573.573.573h.573c.286 0 .572-.286.572-.573v-.668c.573-.095.86-.573.86-1.145v-2.96h.286zM9.036 16.1c-.286 0-.572-.286-.572-.573 0-.286.286-.572.572-.572.287 0 .573.286.573.572 0 .287-.19.573-.573.573zm4.2 0c-.286 0-.572-.286-.572-.573 0-.286.286-.572.572-.572.287 0 .573.286.573.572 0 .287-.286.573-.573.573zm.573-2.959H8.464v-2.768h5.345v2.768zM19.25 11.136a2.386 2.386 0 100-4.772 2.386 2.386 0 000 4.772z" fill="#fff"/><path d="M19.25 18.868c-.287 0-.573-.286-.573-.573V8.75c0-.286.286-.573.573-.573.286 0 .573.287.573.573v9.545c0 .287-.287.573-.573.573z" fill="#fff"/></svg>