<svg width="28" height="28" fill="none" xmlns="http://www.w3.org/2000/svg"><path d="M0 14C0 6.268 6.268 0 14 0s14 6.268 14 14-6.268 14-14 14S0 21.732 0 14z" fill="#0B1739"/><path d="M7.24 13.024c-.301 0-.602-.1-.702-.4-.3-.401-.2-1.002.2-1.303l6.811-4.807c.3-.2.701-.2 1.002 0l6.71 4.808c.4.3.501.9.2 1.302-.3.4-.9.5-1.301.2l-6.21-4.407-6.21 4.407c-.2.2-.4.2-.5.2z" fill="#fff"/><path d="M18.056 16.358h.3c.301 0 .602-.3.602-.6s-.3-.601-.601-.601h-.3v-1.903c0-.701-.602-1.202-1.203-1.202h-5.608c-.702 0-1.202.6-1.202 1.202v1.903h-.3c-.301 0-.602.3-.602.6 0 .301.3.601.601.601h.3v3.105c0 .401.201.902.602 1.102v.801c0 .3.3.601.6.601h.602c.3 0 .6-.3.6-.6v-.602h2.805v.601c0 .3.3.601.6.601h.602c.3 0 .6-.3.6-.6v-.702c.602-.1.902-.6.902-1.202v-3.105h.1zm-6.31 2.805c-.3 0-.6-.3-.6-.601 0-.3.3-.601.6-.601s.601.3.601.6c0 .301-.2.602-.6.602zm4.407 0c-.3 0-.6-.3-.6-.601 0-.3.3-.601.6-.601s.601.3.601.6c0 .301-.3.602-.6.602zm.601-3.105h-5.609v-2.804h5.61v2.804z" fill="#fff"/></svg>