<svg width="28" height="28" fill="none" xmlns="http://www.w3.org/2000/svg"><path d="M0 14C0 6.268 6.268 0 14 0s14 6.268 14 14-6.268 14-14 14S0 21.732 0 14z" fill="#9BABFB"/><path fill-rule="evenodd" clip-rule="evenodd" d="M10.182 9.3c0 .486-.285.882-.636.882-.352 0-.637-.396-.637-.883v-.78c0-.488.285-.883.637-.883.35 0 .636.395.636.882V9.3zm7.603 7.428c.683-.2 1.59-.844 2.039-1.645.295-.527.33-.991.102-1.382-.092-.155-.371-.628-1.51-.628l-.122-.001c-.062.944-.201 2.4-.509 3.656zm.63-5.238c1.676 0 2.476.763 2.852 1.403.521.89.49 1.946-.086 2.972-.791 1.41-2.454 2.514-3.786 2.514-.04 0-.078-.004-.116-.009l-.091-.008c-.801 1.58-1.537 2.002-2.045 2.002h-4.306c-.538 0-1.33-.456-2.187-2.276-.846-1.8-.984-5.25-1.01-5.905l-.001-.02c-.025-.596.13-.709.571-.709h9.56c.117 0 .21.01.29.033l.356.003zm-5.688-1.308c.352 0 .637-.396.637-.883v-.78c0-.488-.285-.883-.637-.883-.35 0-.636.395-.636.882V9.3c0 .487.285.883.636.883zm3.819-.883c0 .487-.285.883-.637.883-.351 0-.636-.396-.636-.883v-.78c0-.488.285-.883.636-.883.351 0 .637.395.637.882V9.3z" fill="#fff"/></svg>