<svg width="28" height="28" fill="none" xmlns="http://www.w3.org/2000/svg"><path d="M0 14C0 6.268 6.268 0 14 0s14 6.268 14 14-6.268 14-14 14S0 21.732 0 14z" fill="#D6A72E"/><path d="M13.98 21.637c-.518 0-.863-.345-.863-.863V17.67l-1.983-.948c-.43-.172-.603-.69-.43-1.12.172-.432.689-.604 1.12-.432l1.207.604v-3.966H9.582c-.517 0-.862-.345-.862-.862 0-.518.345-.863.862-.863h3.45V8.876h-.863c-.517 0-.862-.345-.862-.862s.345-.862.862-.862h.862v-.69c0-.517.345-.862.862-.862.518 0 .862.345.862.862v.69h1.035c.517 0 .862.345.862.862s-.345.862-.862.862h-.948v1.207h3.448c.518 0 .863.345.863.863 0 .517-.345.862-.863.862h-3.448v4.828l2.155 1.035c.431.172.604.69.431 1.12-.172.431-.69.604-1.12.431l-1.466-.776v2.328c0 .518-.345.863-.863.863z" fill="#fff"/></svg>