<svg width="28" height="28" fill="none" xmlns="http://www.w3.org/2000/svg"><path d="M0 14C0 6.268 6.268 0 14 0s14 6.268 14 14-6.268 14-14 14S0 21.732 0 14z" fill="#D73D3B"/><path d="M7.787 20.252A.784.784 0 017 19.465v-8.75c0-.263.088-.438.35-.613l6.213-4.375a.795.795 0 01.874 0l6.213 4.375c.175.175.35.35.35.613v8.75c0 .437-.35.787-.788.787H7.787zm.788-1.575h10.85v-7.612L14 7.215l-5.425 3.85v7.612zm8.4-5.337c.438 0 .875.35.875.787 0 .438-.35.788-.875.788h-2.188v2.187c0 .438-.35.788-.875.788-.437 0-.875-.35-.875-.788v-2.187H10.85c-.438 0-.875-.35-.875-.788 0-.437.35-.787.875-.787h2.275v-2.188c0-.437.35-.787.875-.787.438 0 .875.35.875.787v2.188h2.1z" fill="#fff"/></svg>