<svg width="28" height="28" fill="none" xmlns="http://www.w3.org/2000/svg"><path d="M0 14C0 6.268 6.268 0 14 0s14 6.268 14 14-6.268 14-14 14S0 21.732 0 14z" fill="#F66897"/><path fill-rule="evenodd" clip-rule="evenodd" d="M11.423 18.905a2.207 2.207 0 01-2.196-2.213c0-1.221.985-2.214 2.196-2.214 1.211 0 2.195.993 2.195 2.214 0 1.22-.984 2.213-2.195 2.213zm9.505-8.541s-.006-.959-.839-1.88c-.916-.842-1.866-.846-1.866-.846s-1.081-.066-1.983.663c-.9.729-1.005 1.804-1.005 1.804-.05.513-.678 2.262-.993 2.693l-2.348-2.367a.79.79 0 00-1.124 0 .807.807 0 000 1.135l1.37 1.382a3.788 3.788 0 00-.717-.074c-2.088 0-3.787 1.713-3.787 3.818 0 2.104 1.699 3.817 3.787 3.817s3.786-1.713 3.786-3.817c0-.248-.027-.489-.072-.724l1.28 1.29a.79.79 0 001.125 0 .809.809 0 000-1.134l-1.594-1.605c.425-.418 2.011-1.094 2.531-1.146 0 0 1.066-.103 1.79-1.012.722-.908.659-1.997.659-1.997z" fill="#fff"/></svg>