<svg width="28" height="28" fill="none" xmlns="http://www.w3.org/2000/svg"><path d="M0 14C0 6.268 6.268 0 14 0s14 6.268 14 14-6.268 14-14 14S0 21.732 0 14z" fill="#F95F5C"/><path fill-rule="evenodd" clip-rule="evenodd" d="M10.529 8.562a3.437 3.437 0 003.47 3.471 3.437 3.437 0 003.472-3.471A3.437 3.437 0 0014 5.09a3.437 3.437 0 00-3.471 3.47zm11.107 11.802c0-3.055-1.735-5.693-4.235-6.943A5.86 5.86 0 0114 14.532c-1.32 0-2.43-.416-3.402-1.11-2.499 1.249-4.234 3.887-4.234 6.942h15.272z" fill="#fff"/></svg>