<svg width="28" height="28" fill="none" xmlns="http://www.w3.org/2000/svg"><path d="M0 14C0 6.268 6.268 0 14 0s14 6.268 14 14-6.268 14-14 14S0 21.732 0 14z" fill="#0B1739"/><path fill-rule="evenodd" clip-rule="evenodd" d="M14.934 8.91c.972 0 1.817.16 2.533.481.716.321 1.268.777 1.655 1.368.386.59.58 1.29.58 2.098 0 .798-.194 1.495-.58 2.09-.387.596-.939 1.052-1.655 1.368-.716.316-1.56.474-2.533.474h-2.211v3h-2.541V8.909h4.752zm-.141 5.828c.763 0 1.343-.163 1.74-.49.398-.326.597-.79.597-1.391 0-.611-.199-1.08-.596-1.407-.398-.326-.978-.49-1.741-.49h-2.07v3.778h2.07z" fill="#fff"/></svg>