<svg width="28" height="28" fill="none" xmlns="http://www.w3.org/2000/svg"><path d="M0 14C0 6.268 6.268 0 14 0s14 6.268 14 14-6.268 14-14 14S0 21.732 0 14z" fill="#3EB57C"/><path fill-rule="evenodd" clip-rule="evenodd" d="M18.306 10.356c0-2.233-1.975-3.992-4.412-3.992a4.415 4.415 0 00-4.417 4.416c0 1.026.768 1.395.768 1.395s-1.336.557-1.336 2.046a2.926 2.926 0 002.926 2.925c.506 0 .665-.14 1.08-.366v3.867c0 .451.466.99 1.13.99.663 0 1.023-.539 1.023-.99V16.78c.392.171.617.25 1.071.25a3.197 3.197 0 003.197-3.197c0-1.806-1.642-2.048-1.642-2.048s.612-.531.612-1.43z" fill="#fff"/></svg>