<svg width="28" height="28" fill="none" xmlns="http://www.w3.org/2000/svg"><path d="M0 14C0 6.268 6.268 0 14 0s14 6.268 14 14-6.268 14-14 14S0 21.732 0 14z" fill="#3EB57C"/><path d="M22 10.198a.353.353 0 00-.195-.202l-1.503-.616a1.307 1.307 0 00-.945-1.003l-.08-.933a.342.342 0 00-.028-.485.346.346 0 00-.573.282l-.38.423-.24-.836a.345.345 0 10-.654-.026l-1.785 4.954-6.603.308a3.45 3.45 0 01-3.271-1.857.345.345 0 00-.463-.152l-.006.002a.351.351 0 00-.141.476 4.152 4.152 0 002.705 2.112c-.124.15-.371.492-.53 1.038a3.769 3.769 0 00.38 2.728l-.973 1.32a.351.351 0 00-.053.264l.425 2.332c.026.167.176.29.336.29h.442a.369.369 0 00.265-.132.35.35 0 00.07-.281l-.265-1.496 2.847-2.156c.274-.229.477-.484.618-.748l4.827.836.575 3.678c.026.176.176.3.335.3h.354a.353.353 0 00.354-.353v-3.74c.318-.22.442-.59.512-.959l.77-3.573a2.717 2.717 0 002.855-1.522.35.35 0 00.018-.273z" fill="#fff"/></svg>