<svg width="28" height="28" fill="none" xmlns="http://www.w3.org/2000/svg"><path d="M0 14C0 6.268 6.268 0 14 0s14 6.268 14 14-6.268 14-14 14S0 21.732 0 14z" fill="#F97270"/><path d="M16.807 13.858c1.752.389 2.239 1.46 2.239 2.335 0 .78-.292 1.266-.584 1.46-.681.682-1.85.779-3.212.779h-1.752c-1.07 0-1.07.584-1.07.779 0 .486.292.68.876.876.778.291 1.168.291 1.557.68.39.293.584.585.487 1.169 0 .486-.292.876-1.168.973.584-.292.486-.876-.098-.876-.194 0-.292 0-.486-.097-2.239-.584-2.92-1.168-2.92-2.628 0-1.07.486-2.336 2.141-2.628h3.504c.681-.097.778-.097.876-.195v-.194c0-.195 0-.39-.779-.584-.778-.195-2.044-.195-3.309-.195-1.363 0-2.53-.39-3.504-1.265-.973-.779-1.46-1.947-1.557-3.114v-.098c0-1.557.779-2.92 1.947-3.796 1.07-.778 2.433-1.362 5.45-.292.486.195 1.07.584.876 1.558-.098.486-.973.292-1.46.097-1.85-.681-2.822-.681-3.796 0-.778.487-1.168 1.363-1.168 2.336 0 1.46 1.46 2.53 3.212 2.53 1.655.195 2.822.195 3.698.39zm-4.963-3.99h7.98c0 1.654-1.751 2.92-3.99 2.92-2.238 0-3.99-1.364-3.99-2.92z" fill="#fff"/></svg>