<svg width="28" height="28" fill="none" xmlns="http://www.w3.org/2000/svg"><path d="M0 14C0 6.268 6.268 0 14 0s14 6.268 14 14-6.268 14-14 14S0 21.732 0 14z" fill="#F66897"/><path fill-rule="evenodd" clip-rule="evenodd" d="M14.53 21.324c5.489 0 7.978-3.451 7.978-3.451v.009a.635.635 0 00.043-.826.488.488 0 00-.737-.046l-1.058.835a8.772 8.772 0 01-2.41-3.625c-.278-.698-.122-1.23.138-1.469.156-.137.677-.376 1.127.267.46.642.668 2.055.668 2.055s.66.22 1.266-.128c.816-.468.607-1.423.607-1.423s-.373-.56-.98-1.193l-.01-.01c-.612-.62-1.884-1.91-4.065-.632-2.624 1.548-3.285-.49-3.807-2.099-.121-.375-.235-.726-.365-1.003-.763-1.67-2.02-1.68-2.02-1.68a1.141 1.141 0 01-.278-.541s-.035.009-.217.128c-.182.12-.338.432-.338.432s-.165 0-.581.275c-.408.284-.451.881-.451.881s-1.986 1.982-1.205 2.845c.457.511.875.165 1.318-.201.304-.253.621-.515.971-.515.85 0 1.145 1.285.503 3.543-.594 2.065-1.985 3.752-2.207 4.022l-.013.016-1.188-.9a.49.49 0 00-.737.074.631.631 0 00.069.817s2.472 3.543 7.978 3.543zm-.105-5.103c2.446 0 4.423 1.055 4.7 2.432-1.205.505-2.94 1.083-4.717 1.083-1.847 0-3.538-.634-4.666-1.184.356-1.322 2.307-2.331 4.683-2.331z" fill="#fff"/></svg>