<svg width="28" height="28" fill="none" xmlns="http://www.w3.org/2000/svg"><path d="M0 14C0 6.268 6.268 0 14 0s14 6.268 14 14-6.268 14-14 14S0 21.732 0 14z" fill="#0B1739"/><path fill-rule="evenodd" clip-rule="evenodd" d="M17.04 21.197a.5.5 0 00.92-.394l-.13-.303h.67a.5.5 0 100-1h-1.099l-.428-1h.527a.5.5 0 100-1h-.956l-.084-.197a.5.5 0 00-.96.197h-3a.5.5 0 00-.96-.197l-.084.197H10.5a.5.5 0 000 1h.527l-.428 1H9.5a.5.5 0 000 1h.67l-.13.303a.5.5 0 00.92.394l.298-.697h5.484l.298.697zm-.727-1.697l-.428-1h-3.77l-.428 1h4.626z" fill="#fff"/><path d="M18.194 13.72V7.566c0-.701-.6-1.202-1.201-1.202h-5.61c-.7 0-1.201.6-1.201 1.202v6.21c0 .4.2.9.6 1.101v.801c0 .3.301.601.602.601h.6c.301 0 .602-.3.602-.6v-.602h2.804v.601c0 .3.3.601.601.601h.6c.301 0 .602-.3.602-.6v-.702c.6-.1 1.001-.656 1.001-1.257zm-6.31-.245c-.3 0-.6-.3-.6-.601 0-.3.3-.601.6-.601.301 0 .601.3.601.6 0 .301-.2.602-.6.602zm4.407 0c-.3 0-.6-.3-.6-.601 0-.3.3-.601.6-.601s.601.3.601.6c0 .301-.3.602-.6.602zm.601-3.105h-5.608V7.566h5.608v2.804z" fill="#fff"/></svg>