<svg width="28" height="28" fill="none" xmlns="http://www.w3.org/2000/svg"><path d="M0 14C0 6.268 6.268 0 14 0s14 6.268 14 14-6.268 14-14 14S0 21.732 0 14z" fill="#A47FEB"/><path fill-rule="evenodd" clip-rule="evenodd" d="M6.364 14a7.637 7.637 0 1115.272 0 7.637 7.637 0 01-15.272 0zm5.949-2.036a1.368 1.368 0 11-2.736.001 1.368 1.368 0 012.736-.001zm6.11 0a1.369 1.369 0 11-2.738 0 1.369 1.369 0 012.738 0zm-4.39 7.257c-3.389 0-4.691-2.597-4.745-2.707a.58.58 0 011.043-.512c.043.085 1.06 2.056 3.702 2.056 2.634 0 3.59-1.96 3.629-2.044a.585.585 0 01.77-.28c.291.134.42.476.284.767-.05.112-1.284 2.72-4.683 2.72z" fill="#fff"/></svg>