<svg width="28" height="28" fill="none" xmlns="http://www.w3.org/2000/svg"><path d="M0 14C0 6.268 6.268 0 14 0s14 6.268 14 14-6.268 14-14 14S0 21.732 0 14z" fill="#910030"/><path fill-rule="evenodd" clip-rule="evenodd" d="M17.904 19.343c1.39 0 2.46-1.176 2.46-2.567 0-1.39-1.177-2.566-2.46-2.566-1.39 0-2.46 1.176-2.46 2.566 0 1.498 1.07 2.567 2.46 2.567zm-7.808 0c1.39 0 2.46-1.176 2.46-2.567 0-1.39-1.176-2.566-2.46-2.566-1.283 0-2.46 1.176-2.46 2.566 0 1.498 1.07 2.567 2.46 2.567zm3.85-6.63c1.391 0 2.46-1.177 2.46-2.567 0-1.39-1.176-2.567-2.46-2.567-1.283 0-2.46 1.176-2.46 2.567 0 1.39 1.07 2.566 2.46 2.566z" fill="#fff"/></svg>