<svg width="28" height="28" fill="none" xmlns="http://www.w3.org/2000/svg"><path d="M0 14C0 6.268 6.268 0 14 0s14 6.268 14 14-6.268 14-14 14S0 21.732 0 14z" fill="#72D7E6"/><path d="M12.369 8.305c-.183-.09-.183-.274 0-.365l.457-.274c.182-.092.274-.092.365 0 .823.64 1.188 1.37 1.28 2.376-.274.091-.549.091-.823.091-.274-.73-.64-1.37-1.28-1.828zm2.193 2.194c3.382-2.01 7.037.731 5.575 4.935-.822 2.285-2.65 6.124-5.849 4.57-.091-.092-.274-.092-.457 0-3.199 1.553-5.027-2.285-5.85-4.57-1.553-4.204 2.103-6.946 5.576-4.935.274.091.64.091 1.005 0z" fill="#fff"/></svg>