<svg width="28" height="28" fill="none" xmlns="http://www.w3.org/2000/svg"><path d="M0 14C0 6.268 6.268 0 14 0s14 6.268 14 14-6.268 14-14 14S0 21.732 0 14z" fill="#4BB6DE"/><path fill-rule="evenodd" clip-rule="evenodd" d="M9.797 11.678l10.566.043-1.046 4.511-.195.03a.812.812 0 01-.664.63l-5.878.912a3.545 3.545 0 01-.318.014c-.806 0-1.953-.28-2.457-1.326-1.096-2.28-1.883-5.45-2.157-6.648l-1.978-.6a.823.823 0 01-.545-1.021.811.811 0 011.01-.552l2.894.877.1.476c.005.022.251 1.181.668 2.654zm1.657 7.413a1.272 1.272 0 100 2.545 1.272 1.272 0 000-2.545zm6.364 0a1.273 1.273 0 10.002 2.545 1.273 1.273 0 00-.002-2.545z" fill="#fff"/></svg>