<svg width="28" height="28" fill="none" xmlns="http://www.w3.org/2000/svg"><path d="M0 14C0 6.268 6.268 0 14 0s14 6.268 14 14-6.268 14-14 14S0 21.732 0 14z" fill="#CF7FEB"/><path d="M21.09 11.34h-1.636V9.45a.547.547 0 00-.545-.54h-1.09a.547.547 0 00-.546.54v4.05h-6.546v-4.05a.547.547 0 00-.545-.54H9.09a.547.547 0 00-.546.54v1.892H6.91a.541.541 0 00-.545.54V17c0 .299.251.54.545.54h1.636v1.618c0 .299.252.54.546.54h1.09a.547.547 0 00.546-.54v-4.05h6.546v4.05c0 .299.251.54.545.54h1.091a.547.547 0 00.546-.54V17.54h1.636a.547.547 0 00.545-.54v-5.12a.547.547 0 00-.545-.54z" fill="#fff"/></svg>