<svg width="28" height="28" fill="none" xmlns="http://www.w3.org/2000/svg"><path d="M0 14C0 6.268 6.268 0 14 0s14 6.268 14 14-6.268 14-14 14S0 21.732 0 14z" fill="#802BBE"/><path fill-rule="evenodd" clip-rule="evenodd" d="M20.97 10.87a.21.21 0 00-.195-.194h-.293c-.877.487-2.34.877-3.9 1.072-.292 0-.682.098-.975.098a11.08 11.08 0 01-.585 2.437c.39 0 .78-.097.78.195.098.683-.682 1.268-1.365.975-.39.78-.975 1.365-1.657 1.853 1.072 2.242 2.925 3.705 4.875 3.412 2.632-.39 4.387-3.705 3.9-7.605a8.432 8.432 0 00-.585-2.242zM14.73 9.7c-.098-.78-.293-1.56-.585-2.34a.21.21 0 00-.195-.194H13.657c-.877.487-2.242.877-3.9 1.072-1.56.195-3.12.195-4.095 0h-.097c-.098 0-.098 0-.195.098-.098.097-.195.195-.195.292-.098.78-.098 1.56 0 2.438.487 3.802 3.022 6.63 5.752 6.337 2.633-.39 4.388-3.802 3.803-7.702zm-7.508 1.95c-.097-.877 1.658-1.072 1.853.098.097.488-1.755.683-1.853-.097zm3.51 4.388c-1.267.195-2.34-.877-2.242-2.145 0-.097.097-.097.195-.097.975.585 2.73.39 3.51-.488 0-.097.097 0 .195 0 0 .098.097.293.097.39.098 1.17-.682 2.145-1.755 2.34zm.39-4.582c-.195-1.17 1.658-1.463 1.755-.585.195.78-1.657 1.072-1.755.585zm8.19 7.02c0 .097 0 .097 0 0-.097.097-.097.097-.195.097-.39-.292-1.072-.39-1.755-.292-.78.097-1.365.39-1.657.78h-.098s-.097 0-.097-.098c0-.097-.098-.292-.098-.39-.097-1.072.683-2.145 1.658-2.242 1.072-.195 2.047.585 2.242 1.755v.39zm-1.462-4.193c-.098-.487 1.755-.78 1.852 0 .098.78-1.657 1.17-1.852 0z" fill="#fff"/></svg>