<svg width="28" height="28" fill="none" xmlns="http://www.w3.org/2000/svg"><path d="M0 14C0 6.268 6.268 0 14 0s14 6.268 14 14-6.268 14-14 14S0 21.732 0 14z" fill="#D8005A"/><path d="M20.866 11.34a.784.784 0 01-.498-.187L14.1 7.018l-6.268 4.135c-.398.282-.995.188-1.294-.188-.298-.376-.199-.94.2-1.222l6.765-4.511a.948.948 0 01.995 0l6.767 4.511c.398.282.497.752.199 1.222 0 .282-.299.376-.597.376zM18.08 17.074c-.498 0-.896-.376-.896-.846v-3.76c0-.469.398-.845.895-.845.498 0 .896.376.896.846v3.76c0 .47-.398.845-.896.845zm-3.98 0c-.498 0-.896-.376-.896-.846v-3.76c0-.469.398-.845.895-.845.498 0 .896.376.896.846v3.76c0 .47-.398.845-.896.845zm-3.98 0c-.498 0-.896-.376-.896-.846v-3.76c0-.469.398-.845.895-.845.498 0 .896.376.896.846v3.76c0 .47-.398.845-.896.845zM20.07 20.364H8.128c-.498 0-.896-.376-.896-.846s.398-.846.896-.846h11.94c.498 0 .896.376.896.846s-.398.846-.896.846z" fill="#fff"/></svg>