<svg xmlns="http://www.w3.org/2000/svg" xmlns:xlink="http://www.w3.org/1999/xlink" viewBox="0 0 44 24">
    <path id="3fqaa" d="M6.272 14.876c-.84.876-1.331 1.941-1.477 3.19l-.12-.003c-.796-.021-1.108-.039-1.497-.084-.276-.04-.504-.299-.512-.613-.045-2.232-.04-3.649.025-5.06.018-.429.304-.81.976-1.24.824-.516 1.734-.842 3.289-1.188.247-.057.466-.1.972-.187.474-.081.669-.118.917-.172.29-.06.566-.22.816-.452.435-.409.817-.772 1.587-1.506l.112-.107.113-.107a180.903 180.903 0 0 1 2.401-2.264l.264-.24c.74-.675 1.116-.968 1.554-1.207.52-.28 1.135-.48 2.132-.692a31.6 31.6 0 0 1 8.948-.576c1.473.117 2.956.35 4.398.692 2.437.57 4.43 2.018 6.097 4.422l.05.065c.016.037.078.148.195.361.337.62.513.873.817 1.144.273.242.518.373 1.125.619.261.106.377.16.486.225.338.206.687.483 1.04.827.222.21.332.489.332.864-.003.588-.004 1.052-.002 2.211.002 1.541 0 2.156-.007 2.939-.006.853-.49 1.324-1.373 1.33H38.632c-.2-1.576-.921-2.849-2.163-3.786a5.308 5.308 0 0 0-3.352-1.088c-2.752.036-4.96 1.99-5.348 4.84h-12.132c-.196-1.535-.906-2.79-2.126-3.724a5.304 5.304 0 0 0-3.347-1.108c-1.527.02-2.861.592-3.892 1.675zm.809 3.787c0-1.748 1.427-3.191 3.14-3.191 1.72 0 3.158 1.442 3.158 3.179 0 1.682-1.459 3.102-3.192 3.102-1.662 0-3.113-1.442-3.106-3.09zm22.993-.038c0-1.725 1.417-3.144 3.132-3.144 1.7-.007 3.158 1.438 3.158 3.136 0 1.709-1.435 3.136-3.15 3.136-1.73 0-3.14-1.4-3.14-3.128zm-4.737-18.653c-2.64-.078-5.29.154-7.913.691-2.016.418-2.825.744-3.707 1.556a580.96 580.96 0 0 1-5.39 4.93c-.081.073-.247.154-.433.202-.286.073-.582.145-1.01.243l-.177.041-.178.04c-1.164.267-1.65.39-2.25.575-1.59.485-2.683 1.244-3.354 2.398-.193.33-.29.607-.465 1.296-.058.225-.08 1.849-.089 5.55l.008.097c.268 1.493 1.171 2.424 2.613 2.652.403.06.816.086 1.375.089a38.322 38.322 0 0 0 .705-.002c.732 2.246 2.915 3.777 5.351 3.71 2.257-.068 4.278-1.58 4.984-3.702 4.22.008 8.434.008 12.655 0 1.208 3.76 6.15 4.98 9 2.145.6-.595 1.043-1.308 1.42-2.134.868.006 1.214.004 1.66-.012 1.118-.044 2.04-.483 2.726-1.31.4-.482.568-.905.792-1.92l.02-.11.007-.09c0-2.902.002-4.06.008-5.53l-.023-.16a11.077 11.077 0 0 0-.163-.504c-.2-.598-.305-.85-.495-1.154-.603-.965-1.494-1.594-3.028-2.204a47.195 47.195 0 0 1-.77-1.063c-.56-.786-.81-1.123-1.132-1.525-1.177-1.49-2.722-2.62-4.605-3.38-2.242-.912-4.632-1.314-8.142-1.415z"/>
</svg>
