<svg xmlns="http://www.w3.org/2000/svg" xmlns:xlink="http://www.w3.org/1999/xlink" viewBox="0 0 36 35">
    <path id="b6eua" d="M28.926 29.012c-4.321 4.641-12.625 4.276-16.125 3.88l20.773-22.267c-.124 4.443-.835 14.292-4.648 18.387zm-24.35-11.969c-2.445-3.012-2.604-9.725-2.51-13.144l10.153 11.236c-1.108 1.561-1.834 3.301-2.295 5.075-2.319-.596-4.121-1.656-5.347-3.167zm10.836-9.22c.72.886 1.24 2.013 1.571 3.332-1.426.721-2.69 1.58-3.656 2.61l-9.781-10.827c3.372.566 9.492 1.96 11.866 4.884zm-3.906 23.901c-.639-3.434-1.576-11.748 3.046-16.712 3.84-4.123 13.527-5.318 17.816-5.652zm22.93-24.254c-.484.013-9.26.272-15.852 2.962-.4-1.452-1.007-2.715-1.837-3.736-3.791-4.668-14.885-5.796-15.356-5.842a.862.862 0 0 0-.634.2.889.889 0 0 0-.308.6c-.042.481-.99 11.844 2.8 16.51 1.476 1.817 3.601 3.077 6.308 3.761-.98 5.826.53 11.493.627 11.844.007.024.02.045.03.068a.887.887 0 0 0 .19.308c.006.007.008.016.014.023l.006.005c.072.069.157.12.247.161.027.012.053.019.08.028.033.012.065.029.1.036.227.044 2.62.496 5.774.496 4.289 0 9.985-.835 13.549-4.664 5.463-5.867 5.16-21.246 5.144-21.897-.01-.49-.424-.88-.882-.863z"/>
</svg>
