<svg xmlns="http://www.w3.org/2000/svg" xmlns:xlink="http://www.w3.org/1999/xlink" viewBox="0 0 33 40">
    <path d="M31.194 39.87h-29.526a.972.972 0 0 1-.982-.962v-37.819c0-.532.441-.961.982-.961h29.526c.54 0 .981.429.981.961v37.82a.972.972 0 0 1-.981.96zm-28.544-37.82v35.897h6.84v-7.034c0-.533.442-.962.982-.962h11.909c.54 0 .981.43.981.962v7.034h6.841v-35.897zm16.858 25.365a.972.972 0 0 1-.981-.962v-7.884c0-.532.44-.96.981-.96h5.559c.54 0 .981.428.981.96v7.884a.972.972 0 0 1-.981.962zm4.577-1.923v-5.961h-3.595v5.961zm-9.75.961a.972.972 0 0 1-.982.962h-5.563a.972.972 0 0 1-.982-.962v-7.884c0-.532.441-.96.982-.96h5.563c.54 0 .982.428.982.96zm-5.564-6.922v5.96h3.6v-5.96zm10.737-3.975a.972.972 0 0 1-.981-.962v-8.283c0-.533.44-.962.981-.962h5.559c.54 0 .981.429.981.962v8.283a.972.972 0 0 1-.981.962zm.982-8.285v6.354h3.595v-6.354zm-7.038 8.285h-5.761a.972.972 0 0 1-.982-.962v-8.283c0-.533.441-.962.982-.962h5.761c.54 0 .982.429.982.962v8.283a.972.972 0 0 1-.982.962zm-4.78-8.285v6.354h3.8v-6.354zm2.784 24.603v6.073h3.993v-6.073zm5.956 0v6.073h3.993v-6.073z"/>
</svg>
