<svg xmlns="http://www.w3.org/2000/svg" xmlns:xlink="http://www.w3.org/1999/xlink" width="45" height="38" viewBox="0 0 45 38">
    <path id="kapwa" d="M13.685 19.506l9.19-4.712c.575-.295.799-.994.497-1.56a1.184 1.184 0 0 0-1.583-.488l-10.614 5.442-8.571-4.5a.218.218 0 0 1-.118-.193c0-.08.045-.154.118-.192l19.24-10.102a1.652 1.652 0 0 1 1.535 0l19.24 10.102a.218.218 0 0 1 .119.192c0 .08-.046.154-.118.192l-19.24 10.103a1.652 1.652 0 0 1-1.536 0zm-1.18 1.998l8.232 4.322c.225.117.46.212.7.284v4.907a1.15 1.15 0 0 0 .588 1.002c.363.206.81.206 1.174 0 .364-.207.588-.59.587-1.003v-4.906c.241-.072.475-.167.698-.282l13.421-7.07v7.453c0 .587-.328 1.126-.857 1.402l-13.668 7.2a1.653 1.653 0 0 1-1.536 0l-9.339-4.903zm-2.349-1.233v8.406l-1.95-1.064a1.584 1.584 0 0 1-.856-1.402v-7.454zm14.33-19.107a4.033 4.033 0 0 0-3.749 0l-19.24 10.102a2.522 2.522 0 0 0-1.36 2.23c0 .932.523 1.789 1.36 2.228l3.504 1.8v8.687a3.885 3.885 0 0 0 2.1 3.44l3.056 1.644v4.582s.219.973 1.187.973c.969 0 1.161-.973 1.161-.973v-3.35l8.232 4.323a4.033 4.033 0 0 0 3.75 0l13.667-7.2c1.294-.677 2.101-2 2.1-3.44v-8.686l3.472-1.8a2.521 2.521 0 0 0 1.36-2.229c0-.933-.523-1.79-1.36-2.229z"/>
</svg>
