<svg width="24" height="24" viewBox="0 0 24 24" fill="none" xmlns="http://www.w3.org/2000/svg">
    <path fill-rule="evenodd" clip-rule="evenodd" d="M12 4.30939L5.33974 8.15469V15.8453L12 19.6906L18.6603 15.8453V8.15469L12 4.30939ZM12.5 2.28867C12.1906 2.11004 11.8094 2.11004 11.5 2.28867L3.83974 6.71132C3.53034 6.88995 3.33974 7.22008 3.33974 7.57734V16.4226C3.33974 16.7799 3.53034 17.11 3.83975 17.2887L11.5 21.7113C11.8094 21.8899 12.1906 21.8899 12.5 21.7113L20.1603 17.2887C20.4697 17.11 20.6603 16.7799 20.6603 16.4226V7.57734C20.6603 7.22008 20.4697 6.88995 20.1603 6.71132L12.5 2.28867Z" />
    <path fill-rule="evenodd" clip-rule="evenodd" d="M3.64251 6.9855C3.92666 6.51192 4.54092 6.35836 5.0145 6.64251L12 10.8338L18.9855 6.64251C19.4591 6.35836 20.0733 6.51192 20.3575 6.9855C20.6416 7.45908 20.4881 8.07334 20.0145 8.35749L13 12.5662V16.5C13 17.0523 12.5523 17.5 12 17.5C11.4477 17.5 11 17.0523 11 16.5V12.5662L3.9855 8.35749C3.51192 8.07334 3.35836 7.45908 3.64251 6.9855Z" />
</svg>
