<svg width="48" height="48" viewBox="0 0 48 48" fill="none" xmlns="http://www.w3.org/2000/svg">
<rect width="48" height="48" rx="8" fill="#EE3524"/>
<path d="M23.9866 10C25.8936 10 26.4915 11.3659 26.9928 12.7319C27.2047 13.3108 32.1558 26.8681 32.3033 27.2749C32.3301 27.3444 32.3284 27.4217 32.2987 27.49C32.2689 27.5583 32.2135 27.6122 32.1444 27.64C31.9685 27.7081 29.3955 28.7089 29.2536 28.7619C29.1843 28.7858 29.1084 28.7819 29.042 28.7508C28.9756 28.7197 28.9239 28.664 28.8979 28.5954C28.845 28.4535 27.7798 25.4984 27.6588 25.1673H20.3239L19.0752 28.5954C19.0632 28.6297 19.0444 28.6613 19.02 28.6883C18.9956 28.7154 18.9661 28.7372 18.9332 28.7527C18.9003 28.7682 18.8646 28.777 18.8283 28.7786C18.7919 28.7802 18.7556 28.7745 18.7215 28.7619L15.8344 27.64C15.7649 27.6125 15.7088 27.559 15.6781 27.4908C15.6474 27.4226 15.6444 27.3452 15.6698 27.2749C15.859 26.7659 20.7288 13.4262 20.9785 12.7319C21.4609 11.3868 22.0815 10 23.9866 10ZM15.2839 34.2578C15.2464 34.2576 15.2092 34.2648 15.1745 34.2791C15.1399 34.2934 15.1084 34.3145 15.082 34.3411C15.0556 34.3677 15.0347 34.3993 15.0206 34.434C15.0066 34.4688 14.9996 34.506 15.0001 34.5435V37.7105C14.9991 37.7479 15.0055 37.785 15.019 37.8199C15.0325 37.8547 15.0527 37.8865 15.0786 37.9134C15.1045 37.9404 15.1355 37.9619 15.1697 37.9767C15.204 37.9916 15.2409 37.9995 15.2782 38H32.695C32.7317 37.9995 32.768 37.9918 32.8018 37.9772C32.8356 37.9627 32.8662 37.9417 32.8919 37.9153C32.9175 37.889 32.9377 37.8578 32.9513 37.8237C32.9649 37.7895 32.9717 37.753 32.9712 37.7162V34.5435C32.9722 34.4691 32.9437 34.3973 32.892 34.3437C32.8402 34.2902 32.7694 34.2593 32.695 34.2578H15.2782H15.2839ZM23.9809 14.427L21.4912 21.8754H26.4915L24.0036 14.427H23.9809Z" fill="white"/>
</svg>
