<svg width="48" height="48" viewBox="0 0 48 48" fill="none" xmlns="http://www.w3.org/2000/svg">
<rect width="48" height="48" rx="8" fill="#FFF200"/>
<path d="M15.0801 35.9108L23.2701 27.6008L31.7341 36.0828L35.2811 32.5708L26.9031 24.1908L28.5131 22.6328V19.3088L29.5251 18.4528V21.0568L30.8271 22.1188L34.7171 18.2288L35.9671 19.1888C36.7041 16.4648 32.4371 10.2788 28.9071 13.7058L24.7951 17.7838L25.6351 18.7938L23.5451 20.8338L21.5231 18.8458L22.5851 17.8858L18.0791 13.5338C14.6861 10.7408 11.2091 14.9908 11.0891 19.1368L12.3211 18.1098L16.1071 22.1868L17.4611 21.0568V18.5548L18.3011 19.1878V22.4608L19.9451 24.1068L11.5851 32.3468L15.0801 35.9118V35.9108Z" fill="black"/>
</svg>
