<svg width="48" height="48" viewBox="0 0 48 48" fill="none" xmlns="http://www.w3.org/2000/svg">
<rect width="48" height="48" rx="8" fill="#21A038"/>
<rect width="48" height="48" rx="8" fill="url(#paint0_radial)"/>
<rect width="48" height="48" rx="8" fill="#4D9D46"/>
<g clip-path="url(#clip0)">
<path fill-rule="evenodd" clip-rule="evenodd" d="M19.7894 13.9345C21.1018 13.3909 22.5087 13.1098 23.9296 13.1098C24.1113 13.1098 24.291 13.1167 24.471 13.126C26.5263 13.2273 28.4316 13.9022 30.0296 14.9987L32.7656 12.9808C30.2807 10.9699 27.1848 9.86878 23.9884 9.85957C22.2406 9.85036 20.5046 10.1682 18.8703 10.7971C17.0352 11.5043 15.3692 12.5892 13.9808 13.9806C11.5439 16.42 9.99653 19.7463 9.86927 23.4342C9.79987 25.33 10.1152 27.2189 10.797 28.9903C11.5039 30.8239 12.5889 32.4893 13.9816 33.8783C16.4127 36.3085 19.7292 37.8565 23.4062 37.9901C25.31 38.0638 27.2098 37.7482 28.989 37.0641C30.8241 36.3569 32.4901 35.272 33.8785 33.8783C36.4251 31.3329 38.0001 27.8155 38.0001 23.9294C38.0001 23.0702 37.9226 22.2271 37.7746 21.4094L34.7455 23.6415L34.7495 23.9294C34.7495 26.9125 33.5364 29.6168 31.577 31.5771L31.556 31.5978C31.4351 31.7176 31.3113 31.8351 31.1848 31.9503C30.2689 32.7819 29.2153 33.4522 28.0699 33.9267C26.7575 34.4703 25.3506 34.7514 23.9296 34.7514L23.8081 34.7491C23.6679 34.7491 23.5285 34.7445 23.3889 34.7352C20.6212 34.5993 18.1233 33.4176 16.2831 31.5771C15.7513 31.0473 15.2771 30.4645 14.8679 29.838C14.5034 29.2805 14.1904 28.6885 13.9338 28.0712C13.389 26.7582 13.1094 25.3507 13.1106 23.9294C13.1112 20.7529 14.4875 17.8919 16.6753 15.9109C17.5904 15.077 18.6442 14.409 19.7894 13.9345Z" fill="white"/>
<path fill-rule="evenodd" clip-rule="evenodd" d="M35.0627 15.3281C35.7322 16.1919 36.298 17.1295 36.7495 18.1246L30.3394 22.8491L23.9292 27.5736L18.573 24.2151V20.177L23.9287 23.5332L29.4957 19.4307L35.0627 15.3281Z" fill="white"/>
</g>
<defs>
<radialGradient id="paint0_radial" cx="0" cy="0" r="1" gradientUnits="userSpaceOnUse" gradientTransform="translate(6.03526 39.2278) rotate(-44.999) scale(46.9425 46.9408)">
<stop stop-color="#F2E913"/>
<stop offset="1" stop-color="#F2E913" stop-opacity="0"/>
</radialGradient>
<clipPath id="clip0">
<rect width="28.1402" height="28.1412" fill="white" transform="translate(9.85986 9.85938)"/>
</clipPath>
</defs>
</svg>
