<svg xmlns="http://www.w3.org/2000/svg" viewBox="0 0 33 40"><path d="M31.194 39.87H1.668a.972.972 0 01-.982-.962V1.089c0-.532.441-.961.982-.961h29.526c.54 0 .981.429.981.961v37.82a.972.972 0 01-.981.96zM2.65 2.05v35.897h6.84v-7.034c0-.533.442-.962.982-.962h11.909c.54 0 .981.43.981.962v7.034h6.841V2.05zm16.858 25.365a.972.972 0 01-.981-.962v-7.884c0-.532.44-.96.981-.96h5.559a.97.97 0 01.981.96v7.884a.972.972 0 01-.981.962zm4.577-1.923v-5.961H20.49v5.961zm-9.75.961a.972.972 0 01-.982.962H7.79a.972.972 0 01-.982-.962v-7.884a.97.97 0 01.982-.96h5.563c.54 0 .982.428.982.96zm-5.564-6.922v5.96h3.6v-5.96zm10.737-3.975a.972.972 0 01-.981-.962V6.311c0-.533.44-.962.981-.962h5.559c.54 0 .981.429.981.962v8.283a.972.972 0 01-.981.962zm.982-8.285v6.354h3.595V7.271zm-7.038 8.285H7.691a.972.972 0 01-.982-.962V6.311c0-.533.441-.962.982-.962h5.761c.54 0 .982.429.982.962v8.283a.972.972 0 01-.982.962zm-4.78-8.285v6.354h3.8V7.271zm2.784 24.603v6.073h3.993v-6.073zm5.956 0v6.073h3.993v-6.073z"/></svg>