<svg width="32" height="32" fill="none" xmlns="http://www.w3.org/2000/svg"><path clip-rule="evenodd" d="M16 1.499a6.5 6.5 0 00-6.5 6.5v9a6.5 6.5 0 1013 0v-9a6.5 6.5 0 00-6.5-6.5zm-7.5 6.5a7.5 7.5 0 0115 0v9a7.5 7.5 0 11-15 0v-9z"/><path d="M17.4 6.6a1.4 1.4 0 10-2.8 0v2.8a1.4 1.4 0 002.8 0V6.6z"/><path clip-rule="evenodd" d="M16 5.7a.9.9 0 00-.9.9v2.8a.9.9 0 001.8 0V6.6a.9.9 0 00-.9-.9zm-1.9.9a1.9 1.9 0 013.8 0v2.8a1.9 1.9 0 11-3.8 0V6.6zM12.646 27.645a.5.5 0 01.708 0L16 30.292l2.646-2.647a.5.5 0 01.708.708L16 31.706l-3.354-3.353a.5.5 0 010-.708z"/></svg>