<svg width="40" height="40" fill="none" xmlns="http://www.w3.org/2000/svg"><rect width="40" height="40" rx="20" fill="#fff"/><path d="M27 15.955a3.324 3.324 0 00-.938-2.043 3.447 3.447 0 00-2.11-.912 3.618 3.618 0 00-2.23.721 3.09 3.09 0 00-1.135 1.96A10.595 10.595 0 0119.5 18.61l-2.644-2.58a.923.923 0 00-.289-.292.954.954 0 00-1.39.443.889.889 0 00.07.786c.072.117.17.218.287.294l1.547 1.505a3.96 3.96 0 00-.806-.083 4.36 4.36 0 00-2.375.701 4.186 4.186 0 00-1.575 1.867 4.055 4.055 0 00-.243 2.402 4.125 4.125 0 001.17 2.13c.598.581 1.36.978 2.189 1.138.83.16 1.689.078 2.47-.237a4.251 4.251 0 001.918-1.531 4.08 4.08 0 00.72-2.31 4.382 4.382 0 00-.084-.794l1.444 1.404a.95.95 0 00.637.265.952.952 0 00.47-.176.916.916 0 00.31-.387.89.89 0 00-.152-.933l-1.8-1.742a7.877 7.877 0 012.813-1.24 3.281 3.281 0 002.062-1.067 3.467 3.467 0 00.75-2.217zm-10.725 9.303a2.534 2.534 0 01-1.384-.403 2.432 2.432 0 01-.919-1.085 2.356 2.356 0 01-.143-1.398c.095-.47.332-.901.68-1.24a2.507 2.507 0 011.274-.662 2.549 2.549 0 011.438.14 2.47 2.47 0 011.114.894 2.37 2.37 0 01-.313 3.046 2.52 2.52 0 01-1.747.708z" fill="#3EB57C"/></svg>