<svg width="168" height="24" fill="none" xmlns="http://www.w3.org/2000/svg"><rect width="24" height="24" rx="12" fill="#FF8A00"/><path d="M9 15l6-6m0 0h-3.818M15 9v4.09" stroke="#fff" stroke-width="1.5" stroke-linecap="round"/><rect x="32" y="2" width="136" height="20" rx="4" fill="#fff"/><path d="M42.64 12.88l-.468-1.152V16H40.78v-6h1.992l1.332 3.132L45.46 10h1.92v6h-1.392v-4.272l-.468 1.152-.744 1.74h-1.392l-.744-1.74zm7.016 3.228a.943.943 0 01-.696-.276.978.978 0 01-.264-.684c0-.264.088-.488.264-.672a.923.923 0 01.696-.288c.28 0 .508.096.684.288a.915.915 0 01.276.672.955.955 0 01-.276.684.904.904 0 01-.684.276zm4.62-1.344h.24c.176 0 .336-.036.48-.108.152-.08.28-.22.384-.42.104-.2.184-.476.24-.828.064-.352.096-.808.096-1.368V7.6h5.76V16h-1.44V8.872h-2.88v3.168c0 .8-.056 1.464-.168 1.992-.104.52-.268.936-.492 1.248-.216.304-.492.52-.828.648a3.35 3.35 0 01-1.152.18h-.24v-1.344zm10.377 1.344c-.649 0-1.14-.16-1.477-.48-.336-.32-.504-.764-.504-1.332 0-.312.049-.592.145-.84.103-.256.264-.468.48-.636.224-.176.508-.308.852-.396.352-.096.78-.144 1.284-.144h1.007v-.36c0-.288-.08-.504-.24-.648-.151-.152-.407-.228-.767-.228-.337 0-.58.064-.733.192a.793.793 0 00-.276.504h-1.512c.032-.536.248-.976.648-1.32.408-.352 1.032-.528 1.873-.528.8 0 1.4.184 1.8.552.4.368.6.86.6 1.476V16H66.74l-.143-.828c-.209.304-.48.536-.816.696-.329.16-.705.24-1.129.24zm.24-1.152c.224 0 .427-.036.611-.108.192-.08.356-.184.492-.312.136-.136.245-.288.325-.456.08-.168.12-.348.12-.54v-.18h-1.008c-.48 0-.817.08-1.009.24a.8.8 0 00-.288.648c0 .216.065.388.193.516.136.128.324.192.564.192zM73.683 16H69.95v1.56h-1.344V14.8h.636c.088-.144.168-.304.24-.48.08-.184.144-.392.192-.624.056-.24.1-.512.132-.816.032-.312.048-.672.048-1.08V10h4.452v4.8h.72v2.76h-1.344V16zm-2.484-4.2c0 .424-.016.796-.048 1.116a7 7 0 01-.108.828 4.428 4.428 0 01-.168.612 3.404 3.404 0 01-.18.444h2.22v-3.576h-1.716v.576zm7.246 4.308c-.904 0-1.612-.256-2.124-.768-.504-.512-.757-1.228-.757-2.148v-.384c0-.456.065-.864.193-1.224.135-.36.328-.664.575-.912.257-.256.56-.448.913-.576a3.31 3.31 0 011.2-.204c.904 0 1.608.256 2.112.768.511.512.767 1.228.767 2.148v.384c0 .456-.067.864-.203 1.224-.128.36-.32.668-.576.924-.249.248-.552.44-.913.576a3.459 3.459 0 01-1.188.192zm0-1.296c.456 0 .804-.132 1.044-.396.248-.264.371-.672.371-1.224v-.384c0-.544-.127-.948-.383-1.212-.249-.272-.593-.408-1.032-.408-.456 0-.808.132-1.056.396-.24.264-.36.672-.36 1.224v.384c0 .544.124.952.371 1.224.256.264.604.396 1.044.396zm8.667-1.32h-.588V16h-1.392v-2.508h-.6L83.176 16h-1.608l1.764-3.084L81.772 10h1.608l1.14 2.268h.612V10h1.392v2.268h.6L88.288 10h1.584l-1.524 2.808L90.088 16h-1.68l-1.296-2.508zm6.038 2.616c-.432 0-.824-.064-1.176-.192a2.581 2.581 0 01-.888-.576 2.758 2.758 0 01-.564-.924 3.64 3.64 0 01-.192-1.224v-.384a3.6 3.6 0 01.192-1.212c.136-.36.328-.664.576-.912.248-.256.544-.452.888-.588.352-.136.74-.204 1.164-.204.76 0 1.348.188 1.764.564.424.376.696.864.816 1.464h-1.488a.955.955 0 00-.396-.528c-.2-.136-.452-.204-.756-.204-.176 0-.344.032-.504.096a1.007 1.007 0 00-.408.288c-.12.128-.216.296-.288.504-.064.2-.096.444-.096.732v.384c0 .28.036.524.108.732.072.2.168.368.288.504a1.188 1.188 0 00.9.384c.344 0 .604-.076.78-.228.184-.152.308-.34.372-.564h1.488c-.12.632-.392 1.14-.816 1.524-.416.376-1.004.564-1.764.564zm5.59-2.616h-.6V16H96.75v-6h1.392v2.268h.6L100.18 10h1.608l-1.896 2.832L102.029 16h-1.68l-1.608-2.508zm5.569 2.616c-.648 0-1.14-.16-1.476-.48-.336-.32-.504-.764-.504-1.332 0-.312.048-.592.144-.84.104-.256.264-.468.48-.636.224-.176.508-.308.852-.396.352-.096.78-.144 1.284-.144h1.008v-.36c0-.288-.08-.504-.24-.648-.152-.152-.408-.228-.768-.228-.336 0-.58.064-.732.192a.793.793 0 00-.276.504h-1.512c.032-.536.248-.976.648-1.32.408-.352 1.032-.528 1.872-.528.8 0 1.4.184 1.8.552.4.368.6.86.6 1.476V16h-1.092l-.144-.828c-.208.304-.48.536-.816.696-.328.16-.704.24-1.128.24zm.24-1.152c.224 0 .428-.036.612-.108.192-.08.356-.184.492-.312.136-.136.244-.288.324-.456.08-.168.12-.348.12-.54v-.18h-1.008c-.48 0-.816.08-1.008.24a.8.8 0 00-.288.648c0 .216.064.388.192.516.136.128.324.192.564.192zm4.026-2.928c0-.32.048-.604.144-.852.104-.256.264-.468.48-.636.216-.176.496-.308.84-.396.352-.096.78-.144 1.284-.144h2.22v6h-1.392v-1.944h-1.032c-.064 0-.128-.004-.192-.012L109.943 16h-1.56l1.224-2.22c-.368-.168-.632-.4-.792-.696-.16-.296-.24-.648-.24-1.056zm1.464 0c0 .296.092.52.276.672.184.152.52.228 1.008.228h.828v-1.8h-.828c-.488 0-.824.076-1.008.228-.184.152-.276.376-.276.672z" fill="#0B1739"/><path opacity=".4" d="M123.36 8.836l1.8-1.236h.84V16h-.84V8.548l-1.8 1.224v-.936zm5.095-1.236h4.38v.768h-3.612l-.228 2.784c.208-.216.46-.384.756-.504s.624-.18.984-.18c.384 0 .736.068 1.056.204.328.128.608.316.84.564.232.24.412.536.54.888.136.344.204.728.204 1.152 0 .424-.068.808-.204 1.152-.128.344-.316.64-.564.888-.24.248-.532.44-.876.576a3.112 3.112 0 01-1.116.192c-.696 0-1.292-.172-1.788-.516-.488-.344-.812-.848-.972-1.512h.888c.144.416.376.728.696.936.32.2.712.3 1.176.3.576 0 1.036-.176 1.38-.528.344-.36.516-.856.516-1.488 0-.64-.172-1.136-.516-1.488-.344-.352-.804-.528-1.38-.528-.408 0-.756.092-1.044.276a2.025 2.025 0 00-.648.624h-.828l.36-4.56zm10.985 4.56l-.648-1.296V16H138v-6h1.104l1.968 3.708L143.04 10h1.08v6h-.792v-5.136l-.648 1.296-1.224 2.34h-.792l-1.224-2.34zm10.845-1.248l-.744 1.248-2.4 3.84h-.984v-6h.792v5.1l.744-1.26 2.4-3.84h.984v6h-.792v-5.088zm6.961 2.388h-3.336V16h-.792v-6h.792v2.58h3.336V10h.792v6h-.792v-2.7z" fill="#0B1739"/></svg>