<svg width="48" height="48" fill="none" xmlns="http://www.w3.org/2000/svg"><path fill-rule="evenodd" clip-rule="evenodd" d="M23.74 2c6.738.077 12.843 4.038 15.763 10.22a18.358 18.358 0 01-1.998 18.947L25.048 45.604c-.32.371-.819.653-1.485.653-.671 0-1.14-.272-1.47-.655L9.758 31.176c-4.148-5.41-4.927-12.752-2.01-18.941C10.667 6.04 16.781 2.072 23.53 2h.21zm-1.02 40.313c.546.47 1.37.41 1.841-.137L35.407 29.59c4.805-6.263 4.093-15.244-1.636-20.635a14.717 14.717 0 00-20.255 0c-5.729 5.391-6.44 14.372-1.655 20.61L22.578 42.17c.043.05.09.099.142.143zm-5.283-22.33c0-3.525 2.805-6.387 6.272-6.387 1.667 0 3.264.675 4.44 1.875a6.447 6.447 0 011.833 4.512c0 3.525-2.805 6.387-6.273 6.387-3.467 0-6.272-2.862-6.272-6.387zm6.272 3.7c1.993 0 3.614-1.654 3.614-3.7 0-2.046-1.62-3.7-3.614-3.7-1.992 0-3.613 1.654-3.613 3.7 0 2.046 1.62 3.7 3.613 3.7z" fill="#95D0A1"/></svg>