<svg width="48" height="48" fill="none" xmlns="http://www.w3.org/2000/svg"><path fill-rule="evenodd" clip-rule="evenodd" d="M35.108 13.43c1.883.76 3.428 1.89 4.605 3.38.322.401.571.739 1.131 1.525.405.568.566.79.771 1.063 1.535.61 2.425 1.239 3.028 2.203.19.304.295.556.495 1.154a30.998 30.998 0 01.163.505l.023.16c-.006 1.469-.008 2.627-.008 5.529l-.008.09c-.01.066-.01.066-.019.11-.224 1.015-.392 1.439-.792 1.92-.687.827-1.608 1.267-2.726 1.311-.446.015-.792.017-1.66.012-.377.826-.82 1.539-1.42 2.134-2.85 2.834-7.792 1.615-9-2.145-4.221.008-8.435.008-12.655 0-.706 2.122-2.727 3.633-4.984 3.702-2.436.066-4.619-1.464-5.35-3.71h-.205c-.26.002-.366.002-.501.001a9.413 9.413 0 01-1.375-.089c-1.442-.228-2.345-1.158-2.612-2.651L2 29.536c.01-3.7.031-5.324.089-5.55.176-.688.273-.966.465-1.295.67-1.155 1.764-1.914 3.355-2.399.6-.184 1.086-.307 2.25-.574l.177-.04.178-.041c.427-.099.723-.17 1.01-.244.185-.047.351-.129.432-.202a580.769 580.769 0 005.39-4.93c.882-.812 1.69-1.137 3.707-1.555a34.338 34.338 0 017.913-.691c3.51.1 5.9.503 8.142 1.415zm-.265 20.366c1.715 0 3.15-1.428 3.15-3.137 0-1.697-1.457-3.143-3.158-3.136-1.715 0-3.133 1.42-3.133 3.145a3.137 3.137 0 003.141 3.128zm-23.027 0c1.733 0 3.192-1.42 3.192-3.102 0-1.738-1.437-3.18-3.158-3.18-1.713 0-3.14 1.444-3.14 3.191-.007 1.648 1.444 3.09 3.106 3.09zm-.021-8.552a5.306 5.306 0 013.348 1.108c1.22.934 1.93 2.189 2.126 3.724h12.134c.389-2.851 2.597-4.805 5.35-4.84a5.31 5.31 0 013.353 1.087c1.241.938 1.962 2.211 2.163 3.787H41.567c.883-.006 1.368-.477 1.374-1.33.008-.783.009-1.398.007-2.94-.002-1.158-.002-1.622.001-2.21 0-.376-.11-.655-.33-.865a6.01 6.01 0 00-1.042-.826 3.305 3.305 0 00-.486-.226c-.607-.246-.852-.377-1.125-.619-.304-.27-.48-.524-.818-1.143-.116-.214-.178-.324-.193-.362l-.052-.064c-1.666-2.404-3.66-3.852-6.097-4.423a29.141 29.141 0 00-4.4-.691 31.612 31.612 0 00-8.95.575c-.997.213-1.612.413-2.133.693-.437.238-.814.531-1.553 1.206l-.264.241a180.75 180.75 0 00-2.402 2.263l-.113.108-.112.107c-.77.734-1.153 1.097-1.588 1.505-.25.232-.526.392-.816.453-.248.054-.443.09-.916.172-.507.087-.726.13-.973.186-1.556.346-2.465.673-3.29 1.189-.672.429-.958.811-.976 1.239-.064 1.412-.07 2.829-.025 5.061.008.314.236.573.512.612.389.046.701.063 1.498.084l.119.004c.147-1.249.637-2.315 1.478-3.19 1.031-1.084 2.365-1.655 3.893-1.675z" fill="#95D0A1"/></svg>