<svg xmlns="http://www.w3.org/2000/svg" width="48" height="48" fill="none"><path d="M4.5 14c0-5.657 0-8.485 1.757-10.243C8.015 2 10.843 2 16.5 2h14c5.657 0 8.485 0 10.243 1.757C42.5 5.515 42.5 8.343 42.5 14v24c0 .943 0 1.414-.293 1.707-.293.293-.764.293-1.707.293h-.125l-.043 2.083c-.039 1.85-.058 2.775-.641 3.346-.584.571-1.509.571-3.358.571H35c-1.886 0-2.828 0-3.414-.586C31 44.828 31 43.886 31 42v-2H16.5v2c0 1.886 0 2.828-.586 3.414C15.328 46 14.386 46 12.5 46h-1c-1.886 0-2.828 0-3.414-.586C7.5 44.828 7.5 43.886 7.5 42v-2h-1c-.943 0-1.414 0-1.707-.293C4.5 39.414 4.5 38.943 4.5 38V14z" stroke="#95D0A1" stroke-width="2"/><path d="M9 10a3 3 0 013-3h23a3 3 0 013 3v13a3 3 0 01-3 3H12a3 3 0 01-3-3V10z" stroke="#95D0A1" stroke-width="2"/><circle cx="14" cy="33" r="3" stroke="#95D0A1" stroke-width="2"/><circle cx="33" cy="33" r="3" stroke="#95D0A1" stroke-width="2"/></svg>