<svg width="48" height="48" fill="none" xmlns="http://www.w3.org/2000/svg"><rect width="48" height="48" rx="8" fill="#EE3524"/><path d="M23.987 10c1.907 0 2.505 1.366 3.006 2.732.212.579 5.163 14.136 5.31 14.543a.284.284 0 01-.159.365c-.175.068-2.748 1.069-2.89 1.122a.282.282 0 01-.356-.167c-.053-.142-1.118-3.097-1.24-3.428h-7.334l-1.249 3.428a.273.273 0 01-.354.167l-2.887-1.122a.287.287 0 01-.164-.365c.189-.51 5.059-13.849 5.309-14.543C21.46 11.387 22.08 10 23.986 10zm-8.703 24.258a.283.283 0 00-.284.285v3.168a.282.282 0 00.278.289h17.417a.279.279 0 00.276-.284v-3.172a.282.282 0 00-.276-.286H15.278h.006zm8.697-19.831l-2.49 7.448h5l-2.487-7.448h-.023z" fill="#fff"/></svg>