<svg width="48" height="48" fill="none" xmlns="http://www.w3.org/2000/svg"><rect width="48" height="48" rx="8" fill="#FFF200"/><path d="M15.08 35.91l8.19-8.31 8.464 8.483 3.547-3.512-8.378-8.38 1.61-1.558v-3.324l1.012-.856v2.604l1.302 1.062 3.89-3.89 1.25.96c.737-2.724-3.53-8.91-7.06-5.483l-4.112 4.078.84 1.01-2.09 2.04-2.022-1.988 1.062-.96-4.506-4.352c-3.393-2.793-6.87 1.457-6.99 5.603l1.232-1.027 3.786 4.077 1.354-1.13v-2.502l.84.633v3.273l1.644 1.646-8.36 8.24 3.495 3.565v-.001z" fill="#000"/></svg>