<svg width="48" height="48" fill="none" xmlns="http://www.w3.org/2000/svg"><rect width="48" height="48" rx="8" fill="#21A038"/><rect width="48" height="48" rx="8" fill="url(#paint0_radial)"/><rect width="48" height="48" rx="8" fill="#4D9D46"/><g clip-path="url(#clip0)" fill-rule="evenodd" clip-rule="evenodd" fill="#fff"><path d="M19.79 13.934a10.82 10.82 0 014.14-.824c.181 0 .361.007.541.016 2.055.101 3.96.776 5.559 1.873l2.736-2.018a14.015 14.015 0 00-8.778-3.121A14.04 14.04 0 0013.98 13.98a14.03 14.03 0 00-4.11 9.453c-.07 1.896.245 3.785.927 5.556a14.034 14.034 0 003.185 4.888 14.023 14.023 0 009.424 4.112 14.014 14.014 0 0010.472-4.112A14.022 14.022 0 0038 23.93c0-.859-.077-1.702-.225-2.52l-3.03 2.233.005.287c0 2.984-1.214 5.688-3.173 7.648l-.021.02a10.766 10.766 0 01-3.486 2.329 10.82 10.82 0 01-4.14.825l-.122-.002a10.78 10.78 0 01-7.525-3.172 10.762 10.762 0 01-2.35-3.506 10.783 10.783 0 01-.822-4.142c0-3.176 1.377-6.037 3.564-8.018a10.706 10.706 0 013.114-1.976z"/><path d="M35.063 15.328c.67.864 1.235 1.802 1.686 2.797l-6.41 4.724-6.41 4.725-5.356-3.359v-4.038l5.356 3.356 5.567-4.102 5.567-4.103z"/></g><defs><radialGradient id="paint0_radial" cx="0" cy="0" r="1" gradientUnits="userSpaceOnUse" gradientTransform="rotate(-44.999 50.37 12.329) scale(46.9425 46.9408)"><stop stop-color="#F2E913"/><stop offset="1" stop-color="#F2E913" stop-opacity="0"/></radialGradient><clipPath id="clip0"><path fill="#fff" transform="translate(9.86 9.86)" d="M0 0h28.14v28.141H0z"/></clipPath></defs></svg>